<svg width="23" height="23" viewBox="0 0 23 23" fill="none" xmlns="http://www.w3.org/2000/svg">
<path d="M19.0139 20.1857C14.7655 23.9687 8.14709 23.9074 3.98799 20.1857C4.03139 20.1328 4.0799 20.0842 4.13281 20.0408C4.17933 19.9953 4.22795 19.9515 4.28186 19.9007C4.48007 19.9303 4.68091 19.9642 4.88282 19.9895C5.08472 20.0149 5.28715 20.0424 5.48694 20.0488C5.62277 19.9245 5.81728 19.6939 5.86168 19.603C5.80705 19.5887 5.75049 19.5831 5.69413 19.5866C5.64127 19.5824 5.58842 19.5824 5.53557 19.5787C5.48271 19.575 5.4214 19.5686 5.36432 19.5644C5.30724 19.5602 5.25861 19.558 5.20576 19.5538C5.1529 19.5496 5.09212 19.5427 5.03504 19.5364C4.97795 19.53 4.92933 19.5258 4.87647 19.5173C4.82362 19.5089 4.76231 19.5173 4.70364 19.4845C4.71391 19.4663 4.7252 19.4486 4.73747 19.4317C4.93831 19.1953 5.14127 18.96 5.34106 18.722C5.35547 18.7027 5.37449 18.6874 5.39639 18.6774C5.41828 18.6674 5.44233 18.6631 5.46633 18.6649C5.74399 18.6681 6.02182 18.669 6.29984 18.6676C6.40977 18.6676 6.51971 18.6575 6.62489 18.6522C6.74592 18.4998 6.85012 18.3347 6.93567 18.1599C6.8055 18.1593 6.6754 18.1667 6.54614 18.1821C6.41136 18.1901 6.27658 18.1985 6.1418 18.2027C6.00841 18.2117 5.87456 18.2117 5.74117 18.2027C5.75755 18.1705 5.76654 18.1499 5.7787 18.1298C5.92774 17.8955 6.07891 17.6623 6.22531 17.4259C6.23816 17.4031 6.25681 17.3841 6.27937 17.3709C6.30192 17.3576 6.32758 17.3505 6.35375 17.3503C6.7121 17.3197 7.06675 17.2636 7.42088 17.2007C7.44505 17.1981 7.46811 17.1892 7.4877 17.1748C7.50729 17.1604 7.52272 17.141 7.5324 17.1187C7.60534 16.9685 7.67458 16.8162 7.74381 16.6513C7.72171 16.6518 7.69965 16.6535 7.67775 16.6565C7.34371 16.7348 7.00703 16.7999 6.66717 16.8496C6.63176 16.8543 6.59635 16.8697 6.56147 16.8496C6.56147 16.8406 6.55829 16.8311 6.56147 16.8242C6.69624 16.536 6.83155 16.2478 6.97003 15.9522C7.36009 15.8544 7.75597 15.7544 8.14656 15.6143C8.21677 15.4363 8.27556 15.254 8.32257 15.0686C8.28557 15.0453 8.25703 15.0686 8.22954 15.0797C7.93515 15.1918 7.63652 15.2912 7.33525 15.379C7.28874 15.3927 7.24223 15.4044 7.19202 15.4176C7.18726 15.3986 7.17933 15.3859 7.1825 15.3769C7.27605 15.077 7.37066 14.7772 7.4695 14.4647C7.84212 14.3177 8.22162 14.1585 8.59424 13.9735C8.63177 13.7847 8.66559 13.597 8.6936 13.3981C8.59881 13.433 8.50735 13.4764 8.42035 13.5277C8.32838 13.5716 8.23853 13.6202 8.14656 13.6652C8.0546 13.7101 7.97003 13.7508 7.88229 13.7905C7.79279 13.8362 7.69983 13.8747 7.60428 13.9058C7.6024 13.8848 7.6024 13.8638 7.60428 13.8428C7.66189 13.5626 7.70999 13.2807 7.74329 12.9968C7.74505 12.9747 7.75276 12.9535 7.7656 12.9354C7.77844 12.9173 7.79594 12.9031 7.81623 12.8942C7.90661 12.8461 7.99646 12.7974 8.08367 12.7445C8.29508 12.6171 8.50122 12.4875 8.70946 12.3585C8.74382 12.3368 8.77659 12.312 8.80671 12.2914C8.83375 12.1014 8.84048 11.909 8.8268 11.7176C8.7898 11.7134 8.76866 11.7419 8.74382 11.7599C8.48272 11.9503 8.21404 12.1292 7.93779 12.2966C7.90569 12.3257 7.86548 12.3441 7.82257 12.3495C7.80883 12.1824 7.83737 12.0211 7.83789 11.8599C7.83842 11.6986 7.83789 11.5426 7.83789 11.3776C7.951 11.2909 8.062 11.2079 8.17088 11.1227C8.27976 11.0376 8.38229 10.9562 8.488 10.87C8.59371 10.7838 8.69942 10.6896 8.80513 10.5987C8.80287 10.4068 8.7875 10.2153 8.75914 10.0255C8.71316 10.0123 8.69995 10.044 8.68145 10.062C8.44219 10.2911 8.19413 10.5102 7.93726 10.7193C7.90872 10.742 7.87806 10.7616 7.84794 10.7822C7.84794 10.7822 7.84001 10.7822 7.83631 10.7822C7.83261 10.7822 7.82891 10.7785 7.82732 10.7753C7.82417 10.7679 7.82204 10.7601 7.82098 10.752C7.79085 10.439 7.76126 10.1265 7.73007 9.80392C8.02077 9.52154 8.30671 9.22224 8.57574 8.90497C8.53451 8.71725 8.49593 8.53164 8.44149 8.3344C8.33578 8.43328 8.26496 8.54116 8.17722 8.63793C8.08948 8.7347 8.00121 8.84257 7.91295 8.9441C7.82468 9.04563 7.73906 9.13817 7.64868 9.22753C7.60904 9.21801 7.61062 9.18946 7.60534 9.16831C7.53821 8.89492 7.47426 8.62048 7.40502 8.34709C7.39858 8.3217 7.39879 8.29507 7.40564 8.26978C7.41249 8.24449 7.42575 8.22139 7.44413 8.20273C7.64973 7.94309 7.84212 7.67394 8.02553 7.39844C8.05301 7.35772 8.07838 7.31647 8.11009 7.26941C8.05037 7.09015 7.97532 6.91406 7.90978 6.73692C7.86485 6.73004 7.86009 6.766 7.84741 6.7898C7.67722 7.07393 7.49646 7.35102 7.30512 7.62106C7.2861 7.64803 7.26654 7.67394 7.24593 7.69932C7.24117 7.70461 7.23166 7.70567 7.22426 7.70884C7.22076 7.70944 7.21718 7.70944 7.21369 7.70884C7.21039 7.70641 7.20783 7.70311 7.20629 7.69932L6.86115 6.79773C6.87648 6.7697 6.89498 6.73427 6.914 6.69937C7.08631 6.40695 7.24276 6.10607 7.39339 5.80042C7.40975 5.77254 7.41801 5.74066 7.41727 5.70834C7.41652 5.67602 7.40679 5.64455 7.38916 5.61746C7.31517 5.49055 7.24593 5.36047 7.17405 5.23197C7.16462 5.22029 7.15379 5.20981 7.1418 5.20077C7.08155 5.32081 7.0361 5.4419 6.98324 5.55824C6.93039 5.67457 6.86961 5.80254 6.8083 5.9231C6.75513 6.03956 6.69476 6.15259 6.62753 6.26153C6.6207 6.26252 6.61376 6.26252 6.60692 6.26153C6.60313 6.25996 6.59997 6.25717 6.59794 6.2536C6.42087 5.91782 6.23853 5.58468 6.03292 5.2637C6.19639 4.88076 6.34051 4.48984 6.46474 4.09242C6.35903 3.93378 6.24857 3.77938 6.12066 3.62285C6.10051 3.65094 6.08663 3.68305 6.07996 3.71698C5.99487 4.03425 5.88969 4.35153 5.77605 4.66193C5.76231 4.69948 5.7454 4.73596 5.7232 4.78461C5.69466 4.7513 5.67034 4.72803 5.65343 4.70265C5.49117 4.49113 5.33102 4.27961 5.16559 4.07286C5.14512 4.05082 5.13097 4.02366 5.12464 3.99425C5.11832 3.96484 5.12005 3.93427 5.12965 3.90576C5.21791 3.59536 5.28821 3.28072 5.3511 2.96398C5.36326 2.89999 5.3733 2.83548 5.38335 2.77573C5.26376 2.62067 5.12666 2.47996 4.97478 2.35639C4.93514 2.48753 4.9325 2.62079 4.90554 2.75299C4.87859 2.88519 4.85586 3.02637 4.83049 3.1628C4.80512 3.29923 4.77764 3.4272 4.74487 3.55358C4.72901 3.55358 4.71791 3.55358 4.71368 3.54829C4.47055 3.30681 4.22778 3.0648 3.98535 2.82226C4.09106 2.68107 4.77077 2.16021 5.27605 1.83447C7.01601 0.710632 9.02766 0.0791153 11.0975 0.00696097C13.1673 -0.0651934 15.218 0.424707 17.0319 1.42466C17.7142 1.80063 18.7761 2.54887 19.0002 2.8101C18.9144 2.91922 18.8145 3.01649 18.7031 3.09935C18.5044 3.06973 18.303 3.03642 18.1011 3.01104C17.9048 2.9812 17.707 2.96249 17.5086 2.95499C17.3834 3.06603 17.1778 3.30875 17.1318 3.40129C17.2597 3.42138 17.3865 3.41715 17.5118 3.42667C17.6371 3.43619 17.7724 3.44729 17.9024 3.45998C18.0324 3.47268 18.1529 3.48748 18.2724 3.50123C18.294 3.54459 18.2629 3.56045 18.2459 3.58055C18.0832 3.76986 17.9193 3.95758 17.757 4.14689C17.7068 4.20558 17.6598 4.26745 17.6059 4.33408H17.4753L16.5345 4.33038C16.4933 4.33038 16.4526 4.33408 16.4119 4.33619C16.3955 4.33656 16.3794 4.34113 16.3653 4.34946C16.3511 4.35779 16.3393 4.36961 16.331 4.38379C16.2428 4.52127 16.1535 4.65823 16.0668 4.79572C16.0621 4.80827 16.0594 4.82147 16.0588 4.83485C16.1926 4.84542 16.3231 4.81528 16.4505 4.81158C16.5779 4.80788 16.72 4.79572 16.8548 4.79043C16.9896 4.78514 17.1133 4.78461 17.238 4.7862C17.2416 4.79347 17.2444 4.80109 17.2465 4.80894C17.2477 4.81272 17.2477 4.81679 17.2465 4.82057C17.2412 4.83114 17.2354 4.84225 17.229 4.8523L16.7264 5.62698C16.6894 5.6328 16.6376 5.64231 16.5858 5.6476C16.2274 5.68303 15.8728 5.73697 15.5224 5.80624C15.4144 5.97342 15.3284 6.15381 15.2666 6.34297C15.3057 6.33715 15.3411 6.3345 15.3754 6.32604C15.6894 6.2499 16.007 6.1949 16.3268 6.14467C16.3628 6.13885 16.3992 6.13991 16.4447 6.13674C16.4399 6.15845 16.4338 6.17983 16.4262 6.20072C16.3083 6.45666 16.1873 6.71153 16.0721 6.96853C16.0625 6.99271 16.0468 7.01397 16.0265 7.03021C16.0062 7.04644 15.982 7.05708 15.9563 7.06107C15.6423 7.13563 15.331 7.2197 15.024 7.32017C14.9663 7.33921 14.9093 7.35983 14.8495 7.37993C14.7919 7.56236 14.7185 7.73422 14.6836 7.923C14.7003 7.9274 14.7178 7.9284 14.735 7.92595C14.7521 7.9235 14.7686 7.91764 14.7835 7.90872C15.0895 7.7945 15.3992 7.69033 15.7137 7.60096C15.7438 7.5925 15.7755 7.58669 15.8157 7.5777C15.8179 7.59525 15.8179 7.61302 15.8157 7.63058C15.7287 7.91542 15.6406 8.20026 15.5514 8.48511C15.5477 8.49674 15.5419 8.50784 15.534 8.52741C15.1561 8.676 14.7766 8.83623 14.4066 9.02025C14.3701 9.21114 14.3347 9.39833 14.3062 9.60192C14.442 9.54375 14.553 9.47501 14.6698 9.41949C14.7866 9.36396 14.9114 9.29945 15.0335 9.24234C15.1526 9.18115 15.2763 9.12917 15.4034 9.08687C15.3865 9.25979 15.3427 9.41737 15.321 9.57812C15.2993 9.73888 15.2729 9.89275 15.247 10.0609C15.2142 10.0805 15.1767 10.1037 15.1381 10.1249C14.8517 10.2828 14.5719 10.4517 14.2988 10.6315L14.2274 10.6791C14.2155 10.6869 14.2053 10.6972 14.1977 10.7094C14.1902 10.7215 14.1853 10.7352 14.1836 10.7494C14.1721 10.9244 14.1705 11.0999 14.1788 11.275C14.2169 11.2851 14.2375 11.2539 14.2623 11.2359C14.5266 11.0427 14.7986 10.8619 15.0784 10.6933C15.1085 10.6748 15.1349 10.6442 15.1762 10.6516C15.1804 10.6595 15.1873 10.6669 15.1873 10.6738C15.1767 10.9879 15.1661 11.3025 15.155 11.6256L15.0636 11.7002C14.8205 11.8937 14.5779 12.0876 14.3358 12.2818C14.2882 12.3204 14.2444 12.3638 14.1941 12.4093C14.2012 12.5991 14.2188 12.7883 14.247 12.9761C14.2951 12.9814 14.312 12.9481 14.3337 12.927C14.5645 12.7063 14.8036 12.4948 15.0509 12.2924C15.0847 12.2644 15.1207 12.2395 15.1508 12.2152C15.1577 12.2164 15.1644 12.2183 15.1709 12.221C15.1741 12.2237 15.1764 12.2275 15.1772 12.2316L15.275 13.194C15.182 13.2871 15.0837 13.3838 14.987 13.4833C14.8902 13.5827 14.8004 13.6779 14.7095 13.7773C14.6186 13.8767 14.5245 13.984 14.4304 14.0893C14.4648 14.2823 14.5107 14.4668 14.5578 14.6561C14.6053 14.645 14.6196 14.608 14.6423 14.5826C14.8509 14.3418 15.0595 14.1007 15.2681 13.8592C15.2946 13.8291 15.3247 13.8021 15.3596 13.7672C15.3723 13.7841 15.3855 13.7947 15.3881 13.8074C15.4595 14.1094 15.5292 14.4118 15.6032 14.7296C15.5853 14.754 15.5599 14.7904 15.5329 14.8253C15.3268 15.0897 15.1323 15.3626 14.9463 15.6418C14.9262 15.6719 14.9082 15.7037 14.8876 15.7375C14.9552 15.9141 15.0224 16.0886 15.09 16.2663C15.1355 16.2605 15.1429 16.2251 15.1587 16.1997C15.3258 15.9231 15.5012 15.6524 15.6873 15.389C15.711 15.3489 15.7414 15.3131 15.7771 15.2833C15.7914 15.3145 15.8036 15.3393 15.8136 15.3647C15.9114 15.6159 16.0065 15.8681 16.1091 16.1177C16.122 16.1448 16.1275 16.1749 16.125 16.2048C16.1225 16.2347 16.112 16.2634 16.0948 16.288C15.9267 16.5688 15.7729 16.857 15.6302 17.1515C15.6091 17.1954 15.5884 17.2398 15.5694 17.2816C15.6426 17.4661 15.7372 17.6415 15.8511 17.804C15.9161 17.6882 15.9568 17.5645 16.0134 17.4482C16.0699 17.3318 16.1276 17.2039 16.1883 17.0833C16.2423 16.9671 16.3028 16.8541 16.3696 16.7449C16.3763 16.7441 16.383 16.7441 16.3897 16.7449C16.3934 16.7466 16.3965 16.7494 16.3987 16.7528C16.5773 17.088 16.7586 17.4217 16.9653 17.7443C16.8013 18.1268 16.6572 18.5176 16.5335 18.915C16.6392 19.0737 16.7496 19.227 16.8791 19.3867C16.8922 19.3568 16.9037 19.3263 16.9135 19.2952C17.0026 18.9681 17.1071 18.6455 17.2269 18.3275C17.2391 18.2948 17.2539 18.262 17.2671 18.2313C17.2777 18.2313 17.284 18.2313 17.2856 18.2313L17.8834 19.0049C17.876 19.0366 17.8675 19.0763 17.8575 19.1149C17.7634 19.4708 17.6772 19.8277 17.6175 20.191C17.6175 20.2032 17.6175 20.2153 17.6175 20.2259C17.7232 20.3692 17.9346 20.5871 18.0245 20.6378C18.0594 20.5062 18.0673 20.3734 18.0921 20.2412C18.117 20.109 18.1387 19.9768 18.1651 19.8436C18.1915 19.7103 18.2179 19.5792 18.2502 19.4396C18.2673 19.4447 18.2835 19.4524 18.2983 19.4623C18.5224 19.7003 18.7551 19.9294 18.9965 20.1498C19.0038 20.1609 19.0097 20.173 19.0139 20.1857Z" fill="#35BD46"/>
<path d="M17.6197 5.05375C17.6768 5.13624 17.6974 5.23301 17.7371 5.31815C17.7767 5.40328 17.8095 5.49159 17.847 5.57778C17.8845 5.66398 17.9263 5.75704 17.9675 5.84588C18.0087 5.93472 18.0452 6.01615 18.0864 6.09494C18.1213 6.09917 18.1277 6.07644 18.1393 6.0611C18.2048 5.96222 18.2677 5.86175 18.3338 5.76339C18.3472 5.74574 18.3553 5.72463 18.3572 5.70253C18.3591 5.68043 18.3546 5.65826 18.3444 5.63859C18.2527 5.41544 18.1636 5.19141 18.0769 4.9665C18.0304 4.84488 17.9913 4.72061 17.9469 4.59211C18.1483 4.33089 18.3602 4.08236 18.5811 3.84334C18.604 3.82132 18.628 3.8005 18.653 3.78094C18.7529 4.17066 18.8475 4.55034 18.9797 4.92155C19.1004 4.81116 19.2092 4.68833 19.3042 4.5551C19.1962 4.1739 19.108 3.78736 19.0399 3.39704C19.1255 3.28847 19.2267 3.19314 19.3401 3.11414C19.6345 3.30715 20.5605 4.37954 21.0315 5.07596C22.3144 6.97365 23 9.21218 23 11.5032C23 13.7942 22.3144 16.0327 21.0315 17.9304C20.5732 18.6104 19.6414 19.6918 19.3449 19.8869C19.3048 19.8605 19.2677 19.8296 19.2344 19.7949C19.0272 19.604 18.8243 19.4078 18.6356 19.1979C18.6314 19.1937 18.6356 19.1831 18.6314 19.1688C18.7471 19.1329 18.8703 19.1302 18.9892 19.1059C19.1081 19.0816 19.2386 19.0636 19.3629 19.0377C19.4815 19.0177 19.5989 18.9907 19.7143 18.9568C19.7164 18.951 19.7176 18.9449 19.718 18.9388C19.7178 18.9346 19.7164 18.9305 19.7138 18.9272L19.4036 18.602C19.3646 18.6042 19.3258 18.6085 19.2873 18.6147C18.958 18.6781 18.625 18.7151 18.292 18.7495C18.2769 18.7505 18.2617 18.7505 18.2466 18.7495C18.1144 18.6289 17.7149 18.1075 17.6652 17.9849C17.69 17.9817 17.7127 17.9764 17.7355 17.9759C17.8745 17.9727 18.0135 17.9759 18.1525 17.9679C18.328 17.9605 18.5029 17.9489 18.681 17.9373C18.7207 17.9373 18.7603 17.9251 18.7994 17.9193C18.7994 17.904 18.7994 17.8939 18.7947 17.8886C18.708 17.7696 18.6208 17.6512 18.5304 17.5264H18.4125H17.4569C17.4324 17.5279 17.4077 17.5265 17.3835 17.5222C17.3608 17.5156 17.3396 17.5046 17.3211 17.4899C17.3098 17.4782 17.3007 17.4646 17.2941 17.4497C17.1234 17.1753 16.9638 16.895 16.8185 16.6063C16.8062 16.5777 16.7956 16.5484 16.7867 16.5185C16.9242 16.528 17.0484 16.5497 17.1736 16.5624C17.2989 16.5751 17.4337 16.5867 17.5642 16.5941C17.6894 16.6098 17.8156 16.6151 17.9416 16.61C17.9205 16.5249 17.8449 16.3794 17.7201 16.1806C17.3248 16.1464 16.9314 16.0922 16.5415 16.0183C16.4284 15.7787 16.3364 15.5302 16.246 15.2811C16.2223 15.2359 16.2096 15.1857 16.209 15.1347C16.2413 15.1316 16.2738 15.1367 16.3037 15.1495C16.5996 15.2291 16.8983 15.2968 17.1995 15.3525C17.2422 15.3652 17.2869 15.3695 17.3311 15.3652C17.3264 15.2843 17.2397 15.0479 17.1673 14.9147C16.7878 14.8227 16.4035 14.7296 16.0293 14.5974C15.9448 14.3182 15.8819 14.0395 15.8221 13.7598C15.8185 13.7323 15.8163 13.7046 15.8158 13.6768C15.8554 13.6889 15.885 13.6963 15.9136 13.7069C16.2043 13.8127 16.495 13.9248 16.7862 14.0316C16.8211 14.0528 16.862 14.0617 16.9025 14.057C16.9183 14.0216 16.9025 13.9904 16.894 13.9602C16.8776 13.8761 16.857 13.7926 16.8375 13.709C16.81 13.5916 16.8089 13.5927 16.7001 13.5504C16.5177 13.478 16.3359 13.406 16.1551 13.3294C16.0272 13.2765 15.9025 13.2141 15.7756 13.158C15.7544 13.1507 15.7359 13.1371 15.7224 13.1191C15.7089 13.1011 15.7011 13.0795 15.7001 13.057C15.6752 12.8048 15.6472 12.5531 15.6234 12.3009C15.6197 12.2654 15.6234 12.23 15.6234 12.1824C15.7402 12.2379 15.854 12.2995 15.9643 12.367C16.0801 12.4278 16.1948 12.4912 16.3111 12.551C16.4247 12.6137 16.5423 12.6689 16.6631 12.7165C16.6483 12.551 16.635 12.3992 16.6208 12.2363C16.4506 12.1391 16.2756 12.0433 16.1044 11.9413C15.9331 11.8392 15.7608 11.7335 15.5917 11.6277C15.5804 11.3134 15.5892 10.9986 15.6181 10.6854C15.6631 10.6722 15.6821 10.705 15.7064 10.724C15.9543 10.9175 16.2075 11.1047 16.4712 11.2766C16.5019 11.2962 16.5346 11.3125 16.5669 11.3295C16.5669 11.3295 16.5743 11.3268 16.578 11.3258C16.5817 11.3247 16.5885 11.3125 16.5891 11.3062C16.5938 11.1592 16.5975 11.0122 16.6017 10.8662C16.5753 10.8289 16.5403 10.7985 16.4997 10.7774C16.2453 10.592 15.9987 10.3963 15.7598 10.1904C15.7291 10.164 15.7006 10.1376 15.6752 10.1122C15.6942 9.83933 15.7852 9.31477 15.8338 9.1868C15.8745 9.1868 15.8919 9.2254 15.9173 9.2492C16.1393 9.46071 16.3613 9.67223 16.5833 9.88375C16.6128 9.91124 16.6451 9.93663 16.6789 9.9636C16.6895 9.9509 16.7011 9.94297 16.7027 9.93398C16.7297 9.78962 16.7556 9.64473 16.7815 9.49456C16.7492 9.46177 16.7175 9.4311 16.6868 9.39884C16.4712 9.17569 16.2557 8.95201 16.0404 8.72781C16.0093 8.69608 15.9823 8.66065 15.9575 8.63156C16.0285 8.32582 16.1209 8.02543 16.2339 7.73262C16.2709 7.72627 16.2799 7.75958 16.2952 7.77968C16.4828 8.03297 16.6784 8.27939 16.8856 8.51629C16.9152 8.55013 16.9458 8.58239 16.9723 8.61147C17.0082 8.61147 17.0066 8.58556 17.0124 8.56705C17.0473 8.45812 17.079 8.34813 17.1181 8.24079C17.1287 8.21684 17.1318 8.19028 17.1271 8.16454C17.1224 8.1388 17.1101 8.11507 17.0917 8.09643C16.8817 7.84052 16.6846 7.5742 16.5013 7.29848C16.4231 7.18267 16.4247 7.207 16.4828 7.07744C16.5838 6.85376 16.689 6.63273 16.7931 6.41063C16.8045 6.38893 16.8172 6.36791 16.8311 6.34771C16.8724 6.35934 16.8798 6.39371 16.8946 6.42015C17.0473 6.69512 17.208 6.96587 17.3835 7.22709C17.4057 7.25988 17.4194 7.30165 17.4701 7.32016C17.5357 7.18003 17.6007 7.0399 17.6689 6.89448C17.5711 6.72368 17.4701 6.55129 17.3745 6.37626C17.2788 6.20123 17.1927 6.02937 17.1055 5.8628C17.1657 5.71421 17.5061 5.17643 17.6197 5.05375Z" fill="#35BD46"/>
<path d="M4.89403 16.8776L4.62976 17.2895C4.78198 17.6538 4.92997 18.0166 5.04731 18.3883C4.98071 18.519 4.49657 19.0885 4.3602 19.1995C4.33219 19.1963 4.338 19.171 4.33166 19.1535C4.32509 19.1341 4.31962 19.1143 4.31528 19.0943C4.24498 18.7918 4.15671 18.4936 4.06422 18.198C4.05777 18.1504 4.03693 18.1059 4.00449 18.0705C3.94001 18.1451 3.87447 18.2175 3.8121 18.2921C3.77299 18.3386 3.73811 18.3883 3.70111 18.437C3.71432 18.4925 3.72595 18.548 3.74075 18.603C3.82585 18.9203 3.89931 19.2376 3.95587 19.5591C3.95587 19.5749 3.9601 19.5913 3.96327 19.6162C3.87024 19.7082 3.77299 19.8007 3.67257 19.8859C3.61971 19.8832 3.59857 19.8446 3.57056 19.8177C3.19698 19.4631 2.8482 19.0832 2.52669 18.6808C1.47224 17.3697 0.719545 15.8423 0.322141 14.2072C0.218187 13.7782 0.139475 13.3435 0.0864109 12.9053C0.0257098 12.4141 -0.00306818 11.9195 0.000258567 11.4247C0.00307746 11.0573 0.0233382 10.6902 0.0610409 10.3232C0.174009 9.19102 0.45752 8.08246 0.901951 7.03515C1.51269 5.58803 2.41335 4.28148 3.54836 3.19611C3.57796 3.16808 3.60862 3.14323 3.64297 3.11044C3.66153 3.11916 3.67923 3.1296 3.69583 3.14164C3.9238 3.34681 4.14244 3.5615 4.35175 3.78571C4.35888 3.79505 4.36524 3.80495 4.37077 3.81532C4.36549 3.84494 4.34012 3.83912 4.3232 3.84441C4.3074 3.84877 4.29134 3.85212 4.27511 3.85446C4.10967 3.88142 3.94424 3.90733 3.77933 3.93589C3.62711 3.96392 3.47542 3.99829 3.32373 4.03054C3.30992 4.03416 3.29633 4.03857 3.28303 4.04376C3.28303 4.05381 3.27986 4.05963 3.28303 4.06174L3.59382 4.39805C3.62583 4.39771 3.65779 4.39524 3.68948 4.39065C4.00661 4.32825 4.3269 4.29177 4.64773 4.25687C4.68367 4.25264 4.72067 4.25264 4.75344 4.25105C4.86549 4.35046 5.2471 4.84013 5.33483 4.99506C5.32479 5.02838 5.29625 5.01886 5.27405 5.01939C5.1028 5.02573 4.93103 5.02838 4.75978 5.03631C4.59646 5.04424 4.43367 5.05693 4.27035 5.06804C4.25057 5.07069 4.23098 5.07457 4.21168 5.07967C4.23282 5.14577 4.33483 5.29436 4.48388 5.47679C4.67469 5.47256 4.87025 5.4641 5.06528 5.4641C5.26031 5.4641 5.45746 5.47203 5.65355 5.47679C5.71571 5.54834 5.76896 5.62718 5.81211 5.71158C5.86496 5.79513 5.91253 5.88026 5.96063 5.96593C6.00873 6.05159 6.05312 6.12932 6.09646 6.21287C6.14507 6.29823 6.18832 6.38653 6.22596 6.47727C6.20061 6.47879 6.17519 6.47879 6.14985 6.47727C5.82955 6.43497 5.50872 6.40377 5.18579 6.39002C5.14932 6.39002 5.11285 6.39002 5.07638 6.39319C5.07638 6.39319 5.07109 6.39848 5.06263 6.408C5.12236 6.54548 5.21116 6.67239 5.27987 6.8194C5.67577 6.8532 6.0697 6.9072 6.4601 6.98121C6.59602 7.2629 6.71016 7.55459 6.80154 7.85372C6.77141 7.88069 6.74023 7.86006 6.71063 7.85372C6.49921 7.80401 6.2878 7.74796 6.07955 7.70248C5.9601 7.67499 5.83906 7.65595 5.71856 7.63374C5.7029 7.63241 5.68717 7.63241 5.67152 7.63374C5.71149 7.77947 5.76111 7.92239 5.82004 8.06153C5.82884 8.07282 5.83985 8.08221 5.85238 8.08912C5.86492 8.09602 5.87873 8.10031 5.89297 8.10172C5.99868 8.12711 6.10862 8.14984 6.21486 8.17945C6.43896 8.24132 6.66253 8.30689 6.88558 8.37141C6.91676 8.3804 6.94636 8.39362 6.97966 8.40631C7.06767 8.70189 7.13983 9.00197 7.19583 9.30526C7.1583 9.33328 7.13452 9.30843 7.11021 9.29891C6.81951 9.19315 6.52881 9.08105 6.23811 8.9737C6.19933 8.95236 6.15549 8.94195 6.11126 8.94356C6.12235 9.1018 6.15416 9.25789 6.20587 9.40784C6.38505 9.47976 6.57109 9.55167 6.7545 9.62888C6.9379 9.70608 7.11496 9.78223 7.2952 9.87688C7.34324 10.1807 7.37412 10.487 7.38769 10.7943C7.34858 10.8234 7.32744 10.7943 7.30471 10.7827C7.05312 10.6473 6.80207 10.5104 6.54995 10.375C6.50344 10.3496 6.45481 10.3285 6.40619 10.3068C6.38901 10.3001 6.37134 10.2948 6.35333 10.2909C6.34982 10.3083 6.34788 10.326 6.34752 10.3438C6.35756 10.466 6.36919 10.5876 6.37818 10.7103C6.37757 10.7284 6.38224 10.7464 6.39162 10.762C6.401 10.7776 6.41469 10.7901 6.43103 10.798C6.4601 10.8118 6.48864 10.8282 6.51771 10.8435C6.7952 10.9916 7.06369 11.1555 7.32797 11.3268C7.35175 11.3422 7.37395 11.3601 7.39509 11.375C7.42046 11.5304 7.40196 12.1681 7.36814 12.3183C7.32162 12.3183 7.29678 12.2824 7.2656 12.2586C7.02723 12.073 6.78357 11.8937 6.5304 11.7298C6.49657 11.7081 6.46221 11.6885 6.42469 11.6668C6.41681 11.6795 6.41077 11.6932 6.40672 11.7076C6.40143 11.8503 6.39668 11.9936 6.39139 12.1438C6.42099 12.1676 6.45164 12.1935 6.48388 12.2168C6.74252 12.404 6.99234 12.6019 7.23336 12.8106C7.26401 12.8371 7.29308 12.8635 7.32374 12.8936C7.28621 13.2056 7.23706 13.5113 7.17152 13.8127C7.12501 13.8222 7.10915 13.7878 7.08801 13.7656C6.86954 13.539 6.64245 13.3199 6.40672 13.1083C6.37802 13.077 6.3431 13.0519 6.30418 13.0348C6.29389 13.0624 6.28576 13.0907 6.27987 13.1194C6.26348 13.2485 6.22701 13.3743 6.2212 13.5086C6.25291 13.5409 6.28462 13.5726 6.31581 13.6049L6.9453 14.2579C6.9675 14.2817 6.98759 14.3076 7.01031 14.3314C7.02157 14.3434 7.0293 14.3582 7.03266 14.3742C7.03602 14.3903 7.03487 14.4069 7.02934 14.4224C7.02564 14.434 7.02194 14.4457 7.01877 14.4578C6.94407 14.6993 6.86937 14.9411 6.79467 15.1833C6.78621 15.2103 6.77405 15.2362 6.76296 15.2637C6.72014 15.2605 6.7101 15.2267 6.68949 15.2034C6.51348 14.9829 6.33854 14.7619 6.16095 14.5419C6.12818 14.5001 6.09171 14.461 6.05524 14.4219C6.04138 14.4081 6.02673 14.3953 6.01137 14.3833C6.00133 14.3917 5.99181 14.3959 5.9897 14.4023C5.94319 14.5456 5.89773 14.6889 5.85069 14.837C6.10323 15.1443 6.33895 15.465 6.55682 15.7978C6.45587 16.0622 6.33536 16.3102 6.21169 16.5587C6.19583 16.5899 6.1768 16.6195 6.15302 16.6602C6.07268 16.5476 6.02035 16.4329 5.95481 16.326C5.88927 16.2192 5.82215 16.1008 5.75133 15.9908C5.68945 15.8829 5.61873 15.7803 5.53991 15.6841C5.53306 15.6833 5.52614 15.6833 5.5193 15.6841C5.51588 15.6863 5.51314 15.6894 5.51137 15.6931L5.32109 16.0976C5.37395 16.2134 5.45111 16.3202 5.51295 16.4344C5.57479 16.5487 5.64403 16.6703 5.70693 16.7893C5.76982 16.9082 5.82532 17.0219 5.88135 17.1335C5.82849 17.2726 5.4786 17.8241 5.36813 17.9399C5.3528 17.9093 5.33853 17.8823 5.32638 17.8543C5.2027 17.5698 5.07937 17.2851 4.9564 17.0003C4.94477 16.9685 4.92363 16.9331 4.89403 16.8776Z" fill="#35BD46"/>
</svg>
