<svg width="28" height="23" viewBox="0 0 28 23" fill="none" xmlns="http://www.w3.org/2000/svg">
<path d="M18.7157 0C20.3449 0.016245 21.765 0.158659 23.152 0.5415C24.3789 0.88102 25.5365 1.36458 26.5084 2.23098C27.2985 2.93493 27.7354 3.82407 27.904 4.86646C28.104 6.11191 27.9738 7.33245 27.6767 8.53945C27.0136 11.2307 25.7627 13.6295 24.0876 15.8053C22.9211 17.3292 21.5414 18.6718 19.9923 19.7907C18.4986 20.8699 16.8513 21.6318 15.0947 22.1549C13.2484 22.7029 11.3695 23.0495 9.44003 22.9942C7.77406 22.9466 6.11714 22.7906 4.51091 22.2968C3.33731 21.9356 2.23733 21.425 1.33579 20.5483C0.521205 19.7577 0.146187 18.7581 0.0389624 17.6453C-0.113072 16.0582 0.194198 14.5301 0.710582 13.0426C1.86711 9.71017 3.76301 6.86297 6.31986 4.46845C8.09093 2.80984 10.1538 1.67702 12.4546 0.962786C14.4834 0.330135 16.5933 0.00569271 18.7157 0V0ZM10.7891 20.1438C10.8113 20.1494 10.8341 20.1516 10.8569 20.1503C11.0495 20.1037 11.242 20.0582 11.433 20.0062C14.1349 19.2735 16.7051 18.1099 19.0476 16.5591C20.8954 15.3396 22.5593 13.9025 23.9596 12.1648C24.0418 12.0625 24.0993 11.9422 24.1276 11.8134C24.3432 10.7379 24.3379 9.62895 24.1122 8.55569C23.8396 7.21423 23.393 5.91539 22.7839 4.69318C22.5497 4.22532 22.3571 3.72985 21.981 3.34484C20.8854 2.22596 19.5267 1.40926 18.0335 0.971992C17.4061 0.783008 16.783 0.680665 16.1296 0.819289C15.2275 1.01098 14.311 1.14419 13.4169 1.36674C11.5552 1.83514 9.81132 2.5992 8.23816 3.72931C6.26171 5.15291 4.67682 6.94961 3.37305 9.0111C3.133 9.39014 2.91215 9.78057 2.67209 10.1834C2.92709 10.2067 3.14687 10.2046 3.35705 10.249C4.23938 10.4336 4.91954 10.9724 5.55222 11.5827C5.84935 11.8686 6.09154 12.2249 6.41908 12.4648C8.26323 13.8158 9.62301 15.5253 10.3213 17.7439C10.4029 18.0043 10.484 18.2648 10.5816 18.5778C14.8045 17.2944 18.6533 15.2784 22.3006 12.8178C22.2806 12.8734 22.2481 12.9235 22.2056 12.964C22.0813 13.0788 21.9549 13.192 21.8258 13.3019C19.6749 15.1387 17.2114 16.4491 14.6812 17.6415C13.4367 18.228 12.1585 18.7245 10.8019 18.9877C10.7534 18.9974 10.6798 19.0803 10.683 19.1241C10.7091 19.4631 10.7513 19.801 10.7891 20.1438ZM1.49849 12.7577C1.3774 13.1454 1.24937 13.5386 1.13148 13.9355C0.785799 15.0981 0.619895 16.2834 0.684443 17.5007C0.706766 18.1073 0.925799 18.6894 1.30752 19.1566C1.39095 19.2568 1.49924 19.3325 1.62119 19.3759C2.22026 19.5752 2.84227 19.6099 3.46694 19.585C4.06708 19.5606 4.66615 19.5124 5.26628 19.4875C5.42632 19.4815 5.469 19.4333 5.48874 19.2709C5.6237 18.1554 5.42365 17.0784 5.14999 16.0089C5.10785 15.8464 5.08918 15.6629 5.00703 15.5215C4.21058 14.1429 3.1522 13.0935 1.49849 12.7577ZM6.63566 20.7611C7.29341 20.7004 7.91115 20.6393 8.52996 20.59C8.69533 20.577 8.74014 20.5033 8.72787 20.3485C8.67453 19.6673 8.66546 18.9801 8.56784 18.3049C8.38699 17.0264 7.94636 15.8313 7.31102 14.7115C6.62339 13.5001 5.82268 12.3781 4.76644 11.4625C4.18551 10.96 3.54909 10.5598 2.78305 10.4136C2.63102 10.3843 2.53766 10.4185 2.47098 10.5684C2.20852 11.1576 1.93753 11.7424 1.6708 12.3299C1.64891 12.3882 1.63108 12.4479 1.61745 12.5086C1.63751 12.5187 1.65818 12.5273 1.67934 12.5346C1.71561 12.5406 1.75189 12.5449 1.78603 12.5482C2.73074 12.6369 3.61953 13.0421 4.31247 13.6999C5.61356 14.901 6.23771 16.4573 6.54231 18.1706C6.69634 19.025 6.72778 19.8975 6.63566 20.7611ZM18.0185 0.676333C18.0223 0.685538 18.0244 0.697451 18.0287 0.698534C18.1631 0.734634 18.2979 0.76911 18.433 0.801961C19.9748 1.17932 21.3698 2.01694 22.4382 3.20676C23.8417 4.74624 24.7982 6.54348 25.3535 8.56057C25.4527 8.92121 25.5216 9.28997 25.6048 9.65494C25.8768 9.15283 26.1227 8.63662 26.3415 8.10842C26.3642 8.0303 26.3642 7.94718 26.3415 7.86907C26.2487 7.44129 26.1649 7.0108 26.047 6.59005C25.4069 4.30221 24.07 2.53693 22.1197 1.24058C21.8284 1.04726 21.5409 0.832285 21.1707 0.801961C20.7253 0.76568 20.2814 0.697451 19.8371 0.681748C19.2327 0.66063 18.6256 0.676333 18.0185 0.676333ZM22.6212 1.09004C24.8297 2.36906 26.0145 4.41106 26.7634 6.79095C26.86 6.3897 26.9923 5.9944 26.9848 5.59965C26.9736 5.02241 26.8749 4.44571 26.788 3.8728C26.7517 3.5681 26.6244 3.28198 26.4231 3.05297C25.3967 1.92611 24.0466 1.44526 22.6212 1.09004ZM2.1189 19.8595C2.16745 19.9164 2.17865 19.938 2.19572 19.9478C3.08125 20.4644 4.05428 20.6517 5.05664 20.7226C5.08668 20.7221 5.11614 20.7141 5.14252 20.6995C5.16889 20.6849 5.1914 20.664 5.20814 20.6387C5.28229 20.4259 5.3383 20.2055 5.41298 19.9483C4.2922 20.1665 3.22102 20.1801 2.1189 19.8595Z" fill="#35BD46"/>
<path d="M6.30672 9.83252C6.12481 9.72097 5.96317 9.62079 5.801 9.52278C5.59615 9.39878 5.52414 9.22008 5.61002 9.04193C5.69591 8.86378 5.90342 8.79826 6.12107 8.91793C6.35846 9.04843 6.58305 9.20221 6.82577 9.35113L8.30077 8.09539C8.12366 7.98709 7.96683 7.87879 7.80466 7.78619C7.57634 7.65244 7.49899 7.46508 7.60301 7.27502C7.7017 7.09416 7.90388 7.04217 8.11993 7.16672C8.33598 7.29126 8.53549 7.44776 8.74887 7.58096C8.80222 7.61291 8.89717 7.63836 8.93558 7.61183C9.39168 7.29072 9.84245 6.95878 10.3306 6.60247C10.1337 6.4893 9.96195 6.38587 9.78377 6.29057C9.54852 6.16819 9.4605 5.98841 9.55332 5.79347C9.64614 5.59853 9.83178 5.54276 10.0606 5.66351C10.3194 5.79997 10.5578 5.97434 10.8133 6.11783C10.8806 6.1552 10.9974 6.17198 11.0577 6.13949C11.4594 5.91044 11.852 5.66406 12.2947 5.39493C12.1304 5.29692 11.9891 5.20324 11.8402 5.12418C11.6061 5.00288 11.5175 4.82419 11.6093 4.62817C11.701 4.43214 11.8979 4.37691 12.132 4.50795C12.3662 4.639 12.5977 4.81282 12.8341 4.96065C12.8874 4.99368 12.9733 5.03267 13.0181 5.01155C13.4155 4.82581 13.8066 4.62708 14.2493 4.40778C14.0642 4.29623 13.9143 4.19767 13.7575 4.11374C13.551 4.00544 13.4694 3.82187 13.5574 3.64047C13.6503 3.44878 13.8423 3.36972 14.0375 3.48885C14.3069 3.6513 14.5539 3.85003 14.8169 4.02277C14.8799 4.06392 14.9807 4.09804 15.0442 4.07692C15.4805 3.92476 15.911 3.75689 16.3895 3.57712C16.2562 3.46882 16.1426 3.37297 16.0263 3.28146C15.8267 3.12496 15.7809 2.93706 15.9025 2.76216C16.0241 2.58725 16.2284 2.5618 16.4221 2.7183C16.6275 2.88508 16.8131 3.07623 17.0116 3.25167C17.0612 3.29499 17.1358 3.35564 17.1855 3.34427C17.5327 3.26738 17.8789 3.17424 18.2721 3.07352C18.1702 3.01937 18.1153 2.9923 18.0587 2.96522C17.8453 2.85692 17.7616 2.67877 17.8453 2.49791C17.9355 2.30026 18.135 2.21849 18.3447 2.33546C18.5739 2.46512 18.7904 2.61671 18.9912 2.78815C19.1043 2.884 19.2046 2.93057 19.3433 2.89645C19.4289 2.87594 19.5159 2.86236 19.6036 2.85584C19.817 2.83959 19.9706 2.95439 20.0026 3.1515C20.0314 3.32748 19.9157 3.47965 19.7119 3.53055C19.6698 3.54192 19.6271 3.55004 19.5567 3.56629C19.5956 3.6957 19.6361 3.81862 19.6708 3.94534C19.729 4.15435 19.6287 4.352 19.4398 4.40669C19.2707 4.45543 19.1011 4.35254 19.0301 4.16085C18.853 3.68217 18.8525 3.67892 18.3697 3.77801C18.0854 3.83649 17.8037 3.90635 17.5109 3.97349C17.592 4.19822 17.6682 4.38991 17.729 4.58647C17.8048 4.82906 17.72 5.0148 17.5221 5.07382C17.3242 5.13284 17.1737 5.03158 17.0894 4.80578C17.0249 4.63196 16.9582 4.45868 16.8761 4.29244C16.8604 4.26765 16.839 4.24716 16.8137 4.2328C16.7884 4.21845 16.7599 4.21066 16.731 4.21013C16.5887 4.24586 16.4488 4.29071 16.3122 4.34442C15.9959 4.45759 15.68 4.57402 15.3616 4.6899C15.456 4.93682 15.5584 5.15938 15.6224 5.39385C15.6544 5.51298 15.6555 5.67434 15.5979 5.7729C15.5623 5.8203 15.516 5.8583 15.4629 5.88365C15.4098 5.90901 15.3514 5.92099 15.2928 5.91856C15.1861 5.89907 15.0634 5.7886 15.0111 5.68517C14.8985 5.4637 14.8276 5.22111 14.7268 4.95361L13.3814 5.59041C13.4721 5.80701 13.5553 6.00195 13.6337 6.19906C13.6644 6.27479 13.688 6.3533 13.7041 6.43353C13.7489 6.65608 13.6577 6.82287 13.4705 6.87214C13.2736 6.92629 13.1136 6.81204 13.041 6.59544C12.9685 6.37884 12.8746 6.1579 12.7797 5.91152L11.4305 6.70969C11.5767 6.99398 11.7186 7.24415 11.8349 7.50624C11.9512 7.76832 11.8883 7.95893 11.6749 8.04449C11.4876 8.11922 11.3351 8.02445 11.2177 7.78186C11.111 7.55768 10.9846 7.34054 10.848 7.08495L9.36181 8.14412C9.53465 8.46902 9.70162 8.76414 9.84939 9.06901C9.95608 9.2856 9.90647 9.46376 9.75177 9.56448C9.55652 9.69281 9.34261 9.60834 9.23165 9.37549C9.10842 9.11612 8.97079 8.86378 8.81662 8.56324L7.33415 9.8179C7.47285 10.0751 7.60995 10.3025 7.71984 10.543C7.82333 10.7699 7.75931 10.9545 7.58114 11.0374C7.38803 11.1278 7.21839 11.0466 7.10423 10.8208C7.02208 10.6583 6.92872 10.5007 6.82097 10.3058C6.55424 10.5728 6.31845 10.8132 6.07893 11.0493C5.91889 11.2058 5.75032 11.2236 5.60789 11.1067C5.43078 10.9621 5.43025 10.7352 5.61376 10.5424C5.83034 10.315 6.05386 10.0908 6.30672 9.83252Z" fill="#35BD46"/>
</svg>
