<svg width="66" height="66" viewBox="0 0 66 66" fill="none" xmlns="http://www.w3.org/2000/svg">
<path d="M41.9911 65.8422C41.733 65.8422 41.4604 65.8422 41.1539 65.8243C40.7151 65.8079 40.2715 65.7622 39.8634 65.7148C39.2763 65.6461 38.6778 65.5513 38.0891 65.419C37.1142 65.2181 36.1657 64.9027 35.263 64.4793C34.9508 64.3236 34.6538 64.1387 34.3758 63.9269L34.3467 63.904C34.2716 63.8357 34.1764 63.7944 34.0757 63.7863C34.0757 63.7863 34.0564 63.77 34.0273 63.7128C33.8273 63.3042 33.8806 62.8957 34.2032 62.4054C34.5258 61.9151 35.0549 61.5523 35.834 61.3235C36.2368 61.2109 36.6518 61.1489 37.0696 61.1388H37.36C38.685 61.1504 39.9846 61.5084 41.1329 62.1782C41.7991 62.5557 42.225 62.9382 42.5121 63.4203C42.546 63.4806 42.5958 63.5303 42.6558 63.5638C42.7159 63.5972 42.784 63.6132 42.8525 63.6098H42.9025C43.8003 63.539 44.6833 63.3364 45.5237 63.0084C46.6179 62.5815 47.642 61.9892 48.5611 61.2516C49.3066 60.6603 49.9996 60.0041 50.6323 59.2905C52.3191 57.3861 53.6505 55.1873 54.5618 52.8009L54.573 52.778C54.605 52.7314 54.6206 52.6752 54.617 52.6185C54.6135 52.5618 54.5912 52.508 54.5537 52.4659C54.5332 52.4431 54.5083 52.4248 54.4806 52.4122C54.4528 52.3995 54.4228 52.3927 54.3924 52.3923C54.3265 52.3958 54.2637 52.4211 54.2133 52.4642L54.194 52.4789C53.1311 53.0316 51.9493 53.3079 50.7549 53.283H50.5468C49.2419 53.2754 47.9513 53.006 46.7496 52.4904C46.4369 52.3482 46.1363 52.1798 45.8512 51.987C45.7915 51.9439 45.7211 51.9184 45.6479 51.9135C45.5253 51.9135 45.4414 51.9936 45.3963 52.1553C45.1721 52.9725 44.764 53.7161 44.3671 54.4433L44.3252 54.5217C44.1549 54.8 43.9363 55.0448 43.68 55.2441C43.6125 55.3032 43.5256 55.3347 43.4364 55.3323C43.3228 55.3271 43.2107 55.3039 43.1041 55.2637C42.6605 55.1183 42.2637 54.8176 41.854 54.3207C40.9055 53.1727 39.6664 52.3077 38.2697 51.8187C37.9138 51.7008 37.5484 51.6144 37.1777 51.5605C37.1562 51.5581 37.1346 51.5581 37.1132 51.5605C36.9929 51.57 36.8793 51.62 36.7905 51.7027L36.7631 51.7239C36.4345 51.98 36.1858 52.3267 36.0469 52.7224C35.7098 53.5924 35.6836 54.5544 35.9727 55.4418C36.0345 55.6752 36.1494 55.8907 36.3082 56.071C36.3905 56.156 36.4034 56.2099 36.3082 56.3587C36.0418 56.7853 35.7158 57.1706 35.3404 57.5026C35.1477 57.6646 34.9451 57.8142 34.7339 57.9504L34.7016 57.9733C34.424 58.174 34.0925 58.2841 33.7515 58.2887C33.4305 58.2807 33.1163 58.1925 32.8369 58.0321C32.7667 57.9883 32.6869 57.9625 32.6046 57.957C32.5405 57.9622 32.4788 57.9844 32.4259 58.0214C32.3729 58.0584 32.3305 58.1089 32.303 58.1678C32.2505 58.2581 32.1806 58.3368 32.0975 58.3991C32.0143 58.4614 31.9196 58.5062 31.819 58.5306C31.6073 58.5794 31.391 58.6046 31.1738 58.6058C30.8759 58.6068 30.5805 58.5514 30.3028 58.4423C30.1242 58.3634 29.953 58.2683 29.7914 58.158L29.6027 58.0403C29.55 58.0043 29.4887 57.9835 29.4252 57.9798C29.3774 57.9808 29.3309 57.9956 29.2912 58.0226C29.2514 58.0495 29.2201 58.0874 29.201 58.1318C28.9736 58.56 28.5687 58.6956 28.0332 58.7675C27.9337 58.7808 27.8335 58.7879 27.7331 58.7888C27.5048 58.7938 27.278 58.7496 27.0678 58.6592C26.8575 58.5688 26.6687 58.4341 26.5137 58.2642C26.4896 58.2349 26.4599 58.2109 26.4263 58.1938C26.3927 58.1766 26.356 58.1667 26.3185 58.1645C26.2796 58.1651 26.2415 58.1756 26.2077 58.1951C26.1739 58.2145 26.1454 58.2422 26.1249 58.2756C26.0417 58.3894 25.9308 58.4794 25.803 58.5367C25.6752 58.594 25.5349 58.6167 25.3958 58.6025C25.2766 58.6005 25.1576 58.5923 25.0393 58.578C24.628 58.5357 24.2446 58.3476 23.9569 58.0468C23.9256 58.0106 23.8872 57.9813 23.8442 57.9607C23.8012 57.9402 23.7544 57.9289 23.7069 57.9275C23.6062 57.9313 23.511 57.9754 23.4424 58.0501C23.3186 58.1695 23.1729 58.2629 23.0134 58.3252C22.854 58.3874 22.684 58.4173 22.5132 58.4129C22.0164 58.4014 21.5406 58.2074 21.1744 57.8671C21.1109 57.7994 21.0339 57.7463 20.9484 57.7114C20.863 57.6764 20.7712 57.6604 20.6792 57.6644C19.8565 57.6644 19.1129 57.3376 18.3402 56.6463C18.0176 56.3603 17.6369 55.9615 17.503 55.4075C17.4721 55.2939 17.4841 55.1726 17.5369 55.0676C17.8595 54.3256 18.1821 53.4333 18.0918 52.4708C18.0111 51.5637 17.5272 50.8218 16.611 50.2008C16.5578 50.1638 16.4948 50.1439 16.4303 50.1436C16.3748 50.1463 16.3202 50.159 16.269 50.1812L16.2464 50.1893C15.5754 50.4345 14.9302 50.709 14.4414 50.9199C14.3013 50.9845 14.1568 51.0391 14.0091 51.0833C13.9041 51.1135 13.7956 51.1294 13.6865 51.1307C13.5455 51.1302 13.4072 51.0917 13.2858 51.019C13.1645 50.9463 13.0644 50.8421 12.9961 50.7172C12.6154 50.1436 12.4089 49.4686 12.2089 48.8149L12.1702 48.6891C12.2388 48.6087 12.2901 48.5147 12.3209 48.4132C12.3518 48.3116 12.3614 48.2047 12.3493 48.0991C12.3462 48.0447 12.3462 47.9901 12.3493 47.9357C12.3789 47.6922 12.3505 47.445 12.2663 47.2149C12.182 46.9849 12.0446 46.7786 11.8653 46.6136C11.5427 46.2867 11.2491 45.9288 10.9394 45.5562C10.8088 45.3928 10.6781 45.2424 10.5442 45.0856L10.3942 44.9091L10.2813 45.1133L10.1732 45.3127C10.1135 45.4239 10.0539 45.5366 9.99094 45.6396C9.24248 46.9568 8.08268 47.6857 6.54381 47.8066C6.35347 47.8213 6.16151 47.8278 5.97439 47.8278C4.76854 47.831 3.58423 47.504 2.54661 46.8816C2.44545 46.8321 2.3511 46.7695 2.26594 46.6953C2.30221 46.6006 2.34646 46.5093 2.39821 46.4224C3.03054 45.231 3.8403 44.3779 4.87589 43.8076C5.4357 43.4996 6.03828 43.2792 6.66318 43.1539L6.98579 43.082V42.9529C6.98697 42.8989 6.97225 42.8459 6.94352 42.8005C6.91478 42.7551 6.87334 42.7193 6.82448 42.6979L6.80997 42.6897C6.75351 42.6456 6.68899 42.6031 6.62446 42.5606C6.51471 42.4979 6.41424 42.4198 6.32604 42.3286C6.26103 42.2392 6.17624 42.1664 6.07848 42.1162C5.98072 42.066 5.8727 42.0396 5.76308 42.0393C5.62422 42.0447 5.48682 42.07 5.35497 42.1145C4.96939 42.2361 4.56834 42.2999 4.16453 42.3041C3.30899 42.3006 2.48892 41.9573 1.88042 41.348C1.31853 40.8238 0.871727 40.1857 0.568987 39.4752C0.355141 38.9956 0.220016 38.4839 0.168945 37.9602C0.169829 37.9543 0.169829 37.9482 0.168945 37.9422C0.637208 37.8084 1.12126 37.7397 1.60781 37.7379C2.4444 37.7417 3.26652 37.9594 3.99797 38.3707C4.72942 38.7821 5.34654 39.3739 5.79212 40.0913C6.02953 40.4569 6.18075 40.8729 6.2341 41.3072C6.2397 41.4075 6.27436 41.504 6.33375 41.5845C6.39313 41.665 6.47461 41.726 6.568 41.7599C7.39228 42.1308 8.2698 42.3204 9.11989 42.5051L9.67478 42.626L9.91352 42.7306V42.4037L9.90223 42.376C9.7614 41.9671 9.5139 41.6046 9.18602 41.3268C8.73759 40.9738 8.37949 40.4982 8.0359 39.7857C7.92944 39.5667 7.82136 39.3493 7.71329 39.132C7.55198 38.8051 7.39067 38.4783 7.22936 38.1514C7.19384 38.0723 7.14163 38.002 7.07642 37.9456C7.0112 37.8891 6.93457 37.8478 6.85191 37.8246C5.61791 37.4225 4.81137 36.8914 4.23711 36.1021C3.80528 35.4777 3.53769 34.7521 3.45961 33.9939C3.2545 32.5484 3.5147 31.0744 4.20163 29.7906C4.22744 29.7432 4.26292 29.686 4.28873 29.686C4.33276 29.6908 4.37547 29.7041 4.41455 29.7252C6.50026 30.6535 7.76652 32.2501 8.17785 34.4727C8.39078 35.6167 8.26496 36.6201 7.79394 37.5255C7.75445 37.5874 7.73796 37.6614 7.74742 37.7345C7.75688 37.8075 7.79166 37.8748 7.84556 37.9243C7.98428 38.0713 8.11817 38.2217 8.25205 38.3737L8.42788 38.5698L8.46337 38.6008L8.72952 38.8264V38.426C8.65209 37.5157 9.01504 36.7509 9.86835 36.0024C10.3172 35.6114 10.8539 35.3381 11.4314 35.2065H11.4588C11.4581 35.2097 11.4581 35.2131 11.4588 35.2163C11.7546 35.8915 11.8358 36.6432 11.6913 37.3673C11.5468 38.0913 11.1837 38.752 10.6523 39.2578C10.389 39.4997 10.0846 39.6913 9.75382 39.8233L9.52477 39.923L9.70866 40.0864L9.8377 40.2089C9.93191 40.3025 10.031 40.3909 10.1345 40.4737C10.5966 40.8387 10.9665 41.3098 11.2137 41.8481C11.5412 42.4874 11.9148 43.1014 12.3315 43.685C12.3563 43.7341 12.393 43.776 12.4381 43.8069C12.4833 43.8377 12.5354 43.8565 12.5896 43.8615C12.7509 43.8615 12.809 43.6981 12.8332 43.6409C13.0448 43.151 13.0979 42.6058 12.9848 42.0834C12.9542 41.9445 12.9203 41.8072 12.888 41.6683C12.7385 41.0763 12.6227 40.4761 12.5412 39.8707C12.4488 38.9552 12.4961 38.0308 12.6816 37.13C12.7864 36.5449 12.8913 35.9174 12.9429 35.2849C12.9423 35.2613 12.9479 35.2379 12.9593 35.2172C12.9706 35.1965 12.9872 35.1792 13.0074 35.1673C13.4913 34.8257 13.5865 34.3126 13.6849 33.8174C13.696 33.7775 13.6985 33.7357 13.692 33.6948C13.6856 33.6538 13.6705 33.6148 13.6478 33.5804C13.6244 33.5495 13.5947 33.524 13.5607 33.5057C13.5268 33.4874 13.4894 33.4766 13.451 33.4742C13.2558 33.4513 13.1074 33.3369 12.9542 33.0901C12.6315 32.5639 12.5202 31.9462 12.4525 31.4248C12.3315 30.4966 12.5009 29.5275 12.9864 28.3704C13.0489 28.2215 13.0685 28.0578 13.0429 27.8981C12.9284 27.1333 12.8219 26.2442 12.9913 25.3634C13.1606 24.4825 13.622 23.6605 14.443 22.8009C15.1899 22.0164 16.019 21.2254 16.9739 20.3822C17.0413 20.3338 17.0927 20.2659 17.1214 20.1875C17.1502 20.1091 17.155 20.0238 17.1352 19.9425C17.103 19.7791 17.0804 19.601 17.0578 19.4163C17.0481 19.3346 17.0385 19.2529 17.0272 19.1663L16.9965 18.944L16.7981 19.0404C16.0093 19.4212 15.1496 19.5732 14.3188 19.7187L14.0801 19.7611C13.7861 19.8198 13.4876 19.8526 13.1881 19.8592C13.0655 19.8599 12.9431 19.8512 12.8219 19.8331C12.7245 19.8298 12.6288 19.8057 12.5412 19.7624C12.4536 19.719 12.3761 19.6573 12.3138 19.5814C12.2686 19.4988 12.2413 19.4074 12.2338 19.3132C12.2263 19.2191 12.2387 19.1244 12.2702 19.0355C12.4315 18.3965 12.7541 17.8082 13.059 17.2379L13.1058 17.1545C13.3074 16.7884 13.5284 16.424 13.743 16.071C13.9865 15.6722 14.2382 15.2539 14.464 14.8371C14.7866 14.2161 15.0689 13.5608 15.3334 12.9283C15.4399 12.675 15.5448 12.4217 15.6561 12.17C15.8488 11.6588 16.1211 11.1821 16.4626 10.758C16.9465 10.2057 17.5127 9.9262 18.1273 9.9262C18.3657 9.9287 18.6025 9.96557 18.8306 10.0357C19.4462 10.2489 20.0331 10.5393 20.5775 10.9002L20.7566 11.0081C21.8261 11.652 23.1117 12.3743 24.5328 12.8679C24.6064 12.8941 24.6838 12.9079 24.7619 12.9087C24.8694 12.9076 24.9751 12.8801 25.0699 12.8286C25.6354 12.5181 26.1821 12.1737 26.7072 11.7974C26.9314 11.6438 27.1557 11.4885 27.3831 11.3398C27.8025 11.0653 28.1461 10.9378 28.4655 10.9378C28.8381 10.9378 29.2123 11.1192 29.6398 11.5082C30.7007 12.4439 31.8257 13.3024 33.0063 14.0772C33.3915 14.3586 33.8541 14.5106 34.329 14.5119H34.4096C34.7232 14.5191 35.0358 14.5486 35.3452 14.6002C35.5372 14.628 35.7356 14.6557 35.934 14.6737C36.7212 14.744 37.4793 14.878 38.3197 15.0332C39.807 15.3062 41.0232 15.5807 42.1475 15.8994C43.4328 16.2489 44.6959 16.6768 45.9302 17.1807C47.2794 17.7335 48.5836 18.393 49.8306 19.1532C50.6792 19.6783 51.4943 20.2569 52.2712 20.8855C53.053 21.5057 53.7766 22.1977 54.4327 22.9528C54.7241 23.2836 54.9936 23.6335 55.2392 24.0004C55.2709 24.0542 55.3157 24.0988 55.3694 24.1297C55.4232 24.1607 55.4839 24.1769 55.5457 24.1769C55.5977 24.1767 55.6494 24.1684 55.699 24.1524C56.1199 24.0112 56.5578 23.9287 57.0007 23.9073H57.1265H57.1669C57.219 23.9114 57.2715 23.9033 57.3201 23.8838C57.3687 23.8642 57.4123 23.8337 57.4475 23.7945C57.4797 23.7455 57.5008 23.69 57.5095 23.6318C57.5181 23.5736 57.514 23.5142 57.4976 23.4578C57.3685 22.8335 57.2395 22.2223 57.0701 21.6144C56.5976 19.9414 55.9191 18.3354 55.0505 16.8342C54.3859 15.7087 53.6397 14.6347 52.818 13.6213C51.755 12.2795 50.3533 11.4183 49.0112 10.6518C48.0927 10.1333 47.1423 9.67534 46.1657 9.28067C44.4814 8.59733 42.7398 8.06897 40.9619 7.70198C40.5248 7.60883 40.0796 7.52712 39.6489 7.44704L39.044 7.33264C39.0185 7.32766 38.9926 7.32493 38.9666 7.32447L39.5682 6.87178L40.0118 6.53839C40.052 6.51505 40.0863 6.48277 40.1123 6.44397C40.1383 6.40518 40.1553 6.36091 40.1619 6.3145C40.1617 6.27056 40.1521 6.22718 40.1337 6.18739C40.1153 6.14759 40.0886 6.11233 40.0554 6.08407C39.952 5.97724 39.8655 5.85486 39.7989 5.72126C39.7586 5.64445 39.7166 5.56601 39.6683 5.49083C39.8812 5.36336 40.1086 5.2506 40.3296 5.1411C40.6127 5.00643 40.8884 4.8564 41.1555 4.69168C41.1739 4.68381 41.1917 4.67452 41.2087 4.6639C41.3571 4.58546 41.4507 4.53643 41.4765 4.41713C41.5023 4.29783 41.433 4.21285 41.3297 4.07884L40.9442 3.58039C40.6603 3.21323 40.378 2.84606 40.0973 2.4789C40.7644 2.19339 41.4112 1.86139 42.033 1.48528C42.2943 1.33492 42.5653 1.17967 42.8396 1.03585C42.9792 0.95528 43.137 0.912505 43.2977 0.911652C43.3796 0.911826 43.4613 0.921142 43.5412 0.939434C45.1543 1.29734 46.7125 1.74185 48.4369 2.24684C49.5659 2.57073 50.6564 3.01901 51.6889 3.58366C52.7128 4.13777 53.6847 4.78545 54.5924 5.51862C55.169 5.98859 55.7219 6.48767 56.249 7.01396C57.3558 8.13811 58.3301 9.38849 59.1526 10.7401C61.0947 13.9135 62.4096 17.4391 63.0239 21.1208C63.124 21.7108 63.1852 22.3204 63.2401 22.9087L63.2659 23.1718C63.3603 24.0788 63.3991 24.9908 63.382 25.9027C63.377 26.0223 63.4174 26.1392 63.495 26.2295C64.5628 27.5369 65.258 29.1107 65.6178 31.0669C65.7181 31.6778 65.7859 32.2937 65.821 32.912C65.8531 33.4905 65.8424 34.0707 65.7887 34.6476C65.7132 35.6877 65.5211 36.7157 65.2161 37.7118C64.8529 38.9009 64.3279 40.0328 63.6563 41.0751C62.9652 42.1899 62.0419 43.1381 60.9511 43.8533C60.5186 44.1403 60.0415 44.3513 59.5397 44.4776C59.4484 44.4921 59.3657 44.5408 59.3081 44.614C59.2505 44.6872 59.222 44.7797 59.2284 44.8731V45.0055C59.1961 45.7033 59.1622 46.424 59.1042 47.13C59.038 47.7563 58.9242 48.3764 58.7638 48.9849C58.7025 49.2447 58.6396 49.5128 58.5848 49.7791C58.2861 51.1543 57.8421 52.4928 57.2604 53.7716C56.7694 54.8943 56.1855 55.973 55.5151 56.996C54.8451 58.0022 54.1055 58.959 53.302 59.8592C52.6822 60.568 52.0144 61.232 51.3034 61.8465C49.679 63.2323 48.3176 64.1263 46.8868 64.7424C46.1062 65.0703 45.2994 65.33 44.4752 65.5186C43.8784 65.6788 43.2682 65.7822 42.6524 65.8275C42.4427 65.8373 42.225 65.8422 41.9911 65.8422ZM19.8581 35.5709C19.3336 35.5822 18.8103 35.6286 18.2918 35.7098C18.228 35.7215 18.1676 35.7471 18.1146 35.7849C18.0617 35.8227 18.0175 35.8719 17.9853 35.9288C17.4191 36.7067 16.7481 37.1692 15.9335 37.3441C15.4181 37.4475 14.9083 37.5773 14.4059 37.733C14.0285 37.8556 13.5123 38.0239 13.2639 38.56C13.0991 38.9026 13.0237 39.2822 13.0449 39.6627C13.0661 40.0432 13.1831 40.4119 13.3849 40.7335C13.7075 41.2859 13.843 41.9118 13.8236 42.7633C13.8166 43.1421 13.7326 43.5154 13.5768 43.8599C13.3381 44.3779 13.4397 44.7195 13.9236 45.0365C14.434 45.3586 15.0278 45.5186 15.6286 45.4958C15.8982 45.493 16.1674 45.4756 16.4352 45.4435C17.2056 45.356 17.9689 45.2129 18.7193 45.0153C18.8338 44.9859 18.9516 44.963 19.0742 44.9401C19.4006 44.8992 19.7159 44.7931 20.0017 44.628C21.2083 43.8435 22.0422 42.9234 22.5503 41.8154C22.6089 41.7052 22.6454 41.5844 22.6579 41.4599C22.6703 41.3354 22.6584 41.2097 22.6229 41.0898C22.5537 40.8416 22.5051 40.5879 22.4777 40.3315C22.4192 39.7818 22.4009 39.2285 22.4229 38.676C22.4229 38.3867 22.4229 38.0877 22.4229 37.7935C22.4229 37.72 22.4229 37.6497 22.4229 37.5778V37.3555L22.0761 37.3228L21.9938 37.7527C21.9524 37.346 21.8725 36.9443 21.7551 36.5531C21.6923 36.3148 21.5606 36.101 21.3769 35.9391C21.1932 35.7772 20.966 35.6746 20.7243 35.6445C20.4383 35.5941 20.1484 35.5695 19.8581 35.5709Z" fill="#FCFCFC"/>
<path d="M34.9743 6.98454C35.9421 6.4534 36.9099 5.90756 37.8987 5.41238C37.9359 5.39441 37.9778 5.38297 38.0601 5.35028C37.7955 6.04157 37.5455 6.6871 37.3003 7.3359C37.2648 7.43069 37.2116 7.42578 37.1309 7.41598C36.4357 7.331 35.7388 7.25255 35.0436 7.17084C34.9791 7.17084 34.9017 7.17084 34.8823 7.0924C34.8629 7.01395 34.9307 7.00741 34.9743 6.98454Z" fill="#FCFCFC"/>
<path d="M36.7597 1.58985C36.708 1.49016 36.7774 1.46075 36.8129 1.42643C37.2694 0.98191 37.7275 0.527588 38.1808 0.0765334C38.2105 0.0439983 38.2486 0.0204953 38.2908 0.00866021C38.3329 -0.0031749 38.3775 -0.00287406 38.4195 0.00952899L39.2486 0.200737C38.4276 0.72043 37.5823 1.13226 36.7597 1.58985Z" fill="#FCFCFC"/>
<path d="M35.4576 5.6853C34.8124 5.39931 34.1785 5.07409 33.501 4.73907C34.4059 4.54132 35.1915 4.14747 36.027 3.90723C36.2093 3.8533 36.3497 3.7863 36.1884 3.56404C36.1528 3.48372 36.1237 3.40066 36.1012 3.31563C36.0762 3.27036 36.0691 3.21713 36.0814 3.16674C36.0937 3.11635 36.1244 3.07259 36.1674 3.04435C36.5174 2.73057 36.8642 2.41026 37.2078 2.08831C37.2184 2.07418 37.2319 2.06246 37.2472 2.05389C37.2626 2.04532 37.2795 2.0401 37.297 2.03857C37.3145 2.03703 37.3321 2.0392 37.3486 2.04495C37.3652 2.05071 37.3805 2.05991 37.3933 2.07196C37.9385 2.43477 38.4628 2.82536 38.9725 3.23555C39.1129 3.34832 39.0516 3.39898 38.9435 3.47579C38.0058 4.13603 37.0971 4.83385 36.2174 5.56927C36.1223 5.67268 35.9954 5.74043 35.8575 5.7615C35.7195 5.78257 35.5786 5.75571 35.4576 5.6853Z" fill="#FCFCFC"/>
<path d="M20.1963 56.4973L20.2351 56.4731L20.1963 56.486V56.4973Z" fill="#040404"/>
<path d="M38.9696 3.23555C38.4599 2.82536 37.9356 2.43477 37.3904 2.07196C37.3775 2.05991 37.3623 2.05071 37.3457 2.04495C37.3291 2.0392 37.3115 2.03703 37.2941 2.03857C37.2766 2.0401 37.2597 2.04532 37.2443 2.05389C37.2289 2.06246 37.2155 2.07418 37.2049 2.08831C36.8613 2.41516 36.5145 2.73057 36.1645 3.04435C36.1215 3.07259 36.0907 3.11635 36.0784 3.16674C36.0662 3.21713 36.0733 3.27036 36.0983 3.31563C36.1208 3.40066 36.1499 3.48372 36.1854 3.56404C36.3467 3.7863 36.2096 3.8533 36.0241 3.90723C35.1885 4.14747 34.403 4.54132 33.498 4.73907C34.1755 5.07409 34.8046 5.39277 35.4547 5.6853C35.5753 5.75488 35.7156 5.78127 35.8528 5.76022C35.9901 5.73917 36.1163 5.67191 36.2112 5.56927C37.0898 4.83386 37.9985 4.13603 38.9373 3.47579C39.0438 3.40061 39.1099 3.34832 38.9696 3.23555ZM35.7757 5.06755C35.7192 5.11004 35.6628 5.06755 35.6144 5.04794C35.3966 4.95806 35.1724 4.88452 34.9434 4.81588C35.4273 4.73417 35.8612 4.43019 36.4177 4.56747C36.1854 4.75214 35.979 4.91557 35.7757 5.06755ZM37.1678 3.76832C37.0581 3.74708 36.9791 3.73073 36.9403 3.6049C36.9057 3.49976 36.8574 3.39975 36.7968 3.30746C36.7258 3.1947 36.7339 3.12933 36.8484 3.04108C37.15 2.80901 37.1452 2.79921 37.4469 3.04108C37.6489 3.20489 37.8648 3.35036 38.0921 3.47579C37.971 3.59412 37.8246 3.68264 37.6643 3.7345C37.5041 3.78636 37.3342 3.80017 37.1678 3.77486V3.76832Z" fill="#040404"/>
<path d="M37.8987 5.41238C36.9083 5.90266 35.9453 6.4534 34.9742 6.98454C34.9307 7.00741 34.8661 7.02539 34.8839 7.0924C34.9016 7.1594 34.9839 7.1643 35.0452 7.17084C35.7404 7.25255 36.4373 7.33427 37.1325 7.41598C37.2131 7.42578 37.2664 7.43069 37.3019 7.3359C37.5471 6.6822 37.7971 6.04157 38.0616 5.35028C37.9777 5.38297 37.9358 5.39441 37.8987 5.41238ZM36.376 6.75737L37.0518 6.45177C36.9663 6.83092 36.9664 6.83092 36.376 6.75737Z" fill="#040404"/>
<path d="M39.2486 0.200737C38.4276 0.72043 37.5823 1.13226 36.7597 1.58985C36.708 1.49016 36.7774 1.46075 36.8129 1.42643C37.2694 0.98191 37.7275 0.527588 38.1808 0.0765334C38.2105 0.0439983 38.2486 0.0204953 38.2908 0.00866021C38.3329 -0.0031749 38.3775 -0.00287406 38.4195 0.00952899L39.2486 0.200737Z" fill="#040404"/>
<path d="M43.1414 42.6374C43.4725 41.9421 43.6498 41.1819 43.6608 40.4099C43.6614 40.0282 43.5877 39.65 43.4438 39.2972C43.2998 38.9444 43.0885 38.6239 42.822 38.354C41.9106 37.3735 40.8298 36.6364 39.6991 35.9582C39.5797 35.8863 39.4523 35.8291 39.3297 35.7621C39.0115 35.5922 38.6632 35.4877 38.305 35.4546C37.9468 35.4215 37.5857 35.4605 37.2424 35.5693C36.7391 35.7082 36.2745 35.9533 35.7648 36.0595C35.0375 36.2328 34.2922 36.3162 33.5452 36.308C32.537 36.2818 31.5611 36.1266 30.7126 35.5088C30.5721 35.4131 30.4542 35.2872 30.3672 35.14C30.2802 34.9928 30.2263 34.828 30.2094 34.6574C30.1677 34.1511 30.2875 33.6447 30.5513 33.2127C30.3743 33.2799 30.2176 33.3925 30.0964 33.5395C29.882 33.7935 29.7059 34.0782 29.5738 34.3844C28.877 36.0808 30.019 37.5892 31.4998 37.8017C31.5302 37.8018 31.5603 37.8083 31.5882 37.8206C31.6161 37.8329 31.6412 37.8509 31.662 37.8733C31.6829 37.8958 31.699 37.9224 31.7093 37.9513C31.7197 37.9803 31.7242 38.0111 31.7224 38.0419C31.76 38.315 31.7284 38.5934 31.6305 38.8507C31.5325 39.108 31.3715 39.3359 31.1627 39.5127C30.9062 39.7334 30.6497 39.9556 30.3997 40.1844C29.9753 40.5536 29.6436 41.0196 29.4319 41.5441C29.1786 42.2109 29.1092 42.9038 29.4786 43.5428C30.1178 44.6838 31.1256 45.5668 32.3322 46.0432C34.1047 46.7716 36.0286 47.0401 37.9295 46.8244C39.0732 46.6871 40.1523 46.3521 41.0363 45.5562C41.937 44.748 42.6551 43.7524 43.1414 42.6374ZM38.657 43.1604C37.9601 43.1683 37.286 42.9091 36.7697 42.4348C36.7213 42.3939 36.6923 42.3253 36.6084 42.3155C36.6346 42.5057 36.6918 42.6902 36.7778 42.8613C36.9935 43.3141 37.3019 43.7153 37.6823 44.0382C38.0628 44.3611 38.5066 44.5983 38.9845 44.7342C39.0297 44.7437 39.0725 44.7627 39.11 44.7899C39.1475 44.8172 39.179 44.8521 39.2024 44.8924C39.2258 44.9328 39.2406 44.9776 39.2459 45.0241C39.2511 45.0706 39.2467 45.1177 39.2329 45.1623C39.2087 45.2686 39.1329 45.2294 39.0716 45.2261C38.6183 45.2048 38.1634 45.1869 37.7118 45.1493C36.4213 45.043 35.1389 44.9858 33.8517 44.9401C33.7533 44.9401 33.5742 45.0349 33.571 44.8077C33.571 44.6328 33.571 44.489 33.8243 44.4629C34.1938 44.425 34.5517 44.3105 34.8758 44.1267C35.1999 43.9428 35.4833 43.6935 35.7083 43.3941C35.9492 43.0774 36.0888 42.6936 36.1084 42.2942C35.9713 42.3972 35.8648 42.4854 35.7487 42.559C34.9824 43.0493 33.6759 42.9741 32.9613 42.4086C32.3757 41.9445 32.2547 41.3692 32.5838 40.6927C32.8483 40.1485 33.2952 39.7971 33.7823 39.4866C34.4931 39.0426 35.1593 38.5292 35.7712 37.9536C36.0676 37.6781 36.2897 37.3305 36.4165 36.9437C36.51 37.1267 36.5778 37.2705 36.6536 37.4111C37.0068 38.0648 37.5279 38.5763 38.0795 39.0568C38.5118 39.4343 38.9748 39.7742 39.3797 40.186C39.7292 40.5069 39.9749 40.9273 40.0846 41.3921C40.2814 42.3678 39.6604 43.1457 38.657 43.1604Z" fill="#040404"/>
<path d="M32.219 33.9416C32.5313 34.1375 32.8819 34.2624 33.2465 34.3077C33.9491 34.3605 34.6546 34.2608 35.3161 34.0151C36.5694 33.587 37.8228 33.1621 39.1584 33.0493C40.4489 32.9414 41.7168 33.0281 42.9459 33.4742C43.6266 33.721 44.3025 33.9776 44.9816 34.2309C45.0054 34.2224 45.0256 34.206 45.0388 34.1843C45.052 34.1625 45.0575 34.1369 45.0542 34.1116C45.0048 34.0827 44.9574 34.0505 44.9123 34.0151C44.3406 33.5311 43.728 33.0991 43.0814 32.7241C42.3794 32.3166 41.6167 32.0274 40.8231 31.8677C40.4651 31.7843 40.0952 31.7666 39.7311 31.8154C38.3652 31.978 37.0413 32.3976 35.8274 33.0526C35.2321 33.402 34.6049 33.6926 33.9547 33.9204C33.6523 34.0272 33.3302 34.0635 33.0121 34.0268C32.694 33.99 32.3881 33.881 32.1174 33.7079C32.0722 33.6801 32.0319 33.6246 31.9561 33.6507C32.0048 33.7775 32.0986 33.8812 32.219 33.9416Z" fill="#040404"/>
<path d="M20.0897 50.7548C20.0284 50.4459 19.9575 50.1386 19.9171 49.8069C19.8005 50.2971 19.8038 50.8087 19.9268 51.2973C20.0881 51.8415 20.4107 52.1063 20.9769 52.1357C21.3447 52.1592 21.7106 52.0661 22.0238 51.8693C21.6287 51.8857 21.2347 51.8178 20.8672 51.6699C20.6701 51.5993 20.4946 51.4777 20.3582 51.3172C20.2218 51.1567 20.1293 50.9628 20.0897 50.7548Z" fill="#040404"/>
<path d="M26.4131 51.9706C27.7745 51.8219 28.4214 50.3985 27.789 48.895C27.8729 50.1533 27.5406 51.2352 26.4131 51.9706Z" fill="#040404"/>
<path d="M14.0957 27.1906H14.1057V27.1823H14.0957V27.1906Z" fill="#040404"/>
<path d="M21.2871 52.907L21.3307 52.9312C21.3178 52.9199 21.3243 52.8763 21.2871 52.907Z" fill="#040404"/>
<path d="M26.3176 52.9514L26.291 52.9381L26.3176 52.9514Z" fill="#040404"/>
<path d="M19.1354 13.935C19.4967 13.8713 19.658 13.5787 19.7903 13.2813C19.8489 13.1637 19.8705 13.0308 19.852 12.9004C19.8335 12.77 19.7759 12.6485 19.687 12.5524C19.4236 12.2412 19.0723 12.0193 18.6805 11.9167C18.3046 11.8219 18.1046 11.9902 18.1095 12.4315C18.1317 12.8699 18.2804 13.292 18.5369 13.6457C18.5998 13.746 18.6893 13.8264 18.7951 13.8775C18.901 13.9287 19.0189 13.9486 19.1354 13.935ZM18.4998 12.9446C18.4219 12.8173 18.3906 12.6664 18.4111 12.5181C18.4756 12.1504 18.7773 12.0278 19.0563 12.2762C19.179 12.3826 19.2762 12.5158 19.3405 12.6659C19.4048 12.816 19.4345 12.9789 19.4273 13.1424C19.4245 13.1972 19.4186 13.2517 19.4096 13.3058C19.358 13.5885 19.2144 13.6506 18.9854 13.4872C18.7832 13.348 18.6168 13.162 18.4998 12.9446Z" fill="#040404"/>
<path d="M65.9821 32.8989C65.9466 32.2724 65.8777 31.6483 65.7756 31.0293C65.4417 29.2202 64.7933 27.5484 63.6173 26.1184C63.5909 26.0882 63.5706 26.053 63.5576 26.0149C63.5446 25.9768 63.5391 25.9364 63.5415 25.8961C63.5592 24.9778 63.5205 24.0592 63.4254 23.1457C63.3576 22.4577 63.298 21.7664 63.1818 21.0832C62.9146 19.4657 62.5098 17.8745 61.972 16.3276C61.2855 14.3396 60.3865 12.4336 59.2911 10.6436C58.4609 9.28097 57.4785 8.01973 56.3634 6.88484C55.8315 6.35506 55.2732 5.85323 54.6906 5.38133C53.7749 4.64359 52.7949 3.99157 51.7629 3.43329C50.7208 2.86153 49.6194 2.40879 48.4787 2.0834C46.8527 1.6111 45.2267 1.14534 43.5733 0.775996C43.3003 0.708543 43.0121 0.748243 42.7668 0.887125C41.8376 1.38884 40.9505 1.97227 39.9616 2.35795C39.789 2.42496 39.9116 2.49196 39.9536 2.54753C40.3697 3.09173 40.7908 3.63431 41.2102 4.18178C41.3715 4.39587 41.3715 4.39587 41.1343 4.52498C41.115 4.53642 41.094 4.54295 41.0763 4.55439C40.6004 4.86 40.0713 5.06591 39.5858 5.35518C39.5197 5.3944 39.4245 5.41565 39.5051 5.53004C39.6664 5.7523 39.7471 6.02032 39.9471 6.21643C40.0471 6.31122 39.9987 6.36024 39.9181 6.41908L39.4793 6.74593L38.6018 7.39963C38.7389 7.52547 38.8889 7.46664 39.0212 7.49115C39.6664 7.61372 40.2988 7.72485 40.9359 7.86049C42.7041 8.22615 44.4364 8.7512 46.1123 9.42937C47.0819 9.82249 48.0258 10.2777 48.9384 10.7923C50.3305 11.5866 51.6806 12.4266 52.6985 13.7209C53.5152 14.7283 54.2571 15.7957 54.918 16.9143C55.7798 18.4025 56.4529 19.9948 56.9215 21.6536C57.0828 22.2583 57.2199 22.8711 57.3457 23.4856C57.3796 23.649 57.3457 23.7487 57.1425 23.7373C56.6387 23.7363 56.1383 23.8202 55.6617 23.9857C55.6125 24.0098 55.5561 24.0142 55.5038 23.9982C55.4516 23.9821 55.4071 23.9467 55.3794 23.8991C55.1275 23.5264 54.8516 23.171 54.5535 22.8352C53.8881 22.0759 53.1554 21.38 52.3646 20.7564C51.5813 20.1261 50.7597 19.5465 49.9046 19.0208C48.6493 18.2571 47.3371 17.5938 45.98 17.0368C44.7391 16.5327 43.4702 16.1027 42.1796 15.749C40.915 15.3911 39.6293 15.1166 38.3373 14.8796C37.5404 14.7325 36.7436 14.5904 35.937 14.5184C35.4063 14.4711 34.8821 14.355 34.3481 14.355C33.895 14.3595 33.4524 14.2169 33.0851 13.9481C31.9106 13.1774 30.7915 12.3233 29.7364 11.3921C28.9008 10.6322 28.2298 10.5897 27.2845 11.2091C26.5215 11.7092 25.7956 12.2648 24.9859 12.6799C24.9238 12.7155 24.8547 12.7367 24.7836 12.7421C24.7125 12.7474 24.6411 12.7368 24.5745 12.711C23.2518 12.2583 22.0291 11.6046 20.829 10.8757C20.1999 10.4982 19.5772 10.0994 18.8675 9.88697C17.8593 9.58463 17.0205 9.88697 16.3333 10.6567C15.9782 11.0928 15.6944 11.5839 15.4929 12.1112C15.1058 13.0002 14.7654 13.9089 14.3073 14.7669C13.8847 15.5578 13.3814 16.2981 12.9507 17.0826C12.6136 17.6987 12.2668 18.3132 12.099 19.0045C11.9587 19.583 12.2039 19.9213 12.7846 20.003C13.2223 20.049 13.6644 20.0242 14.0944 19.9295C15.0284 19.766 15.9704 19.6222 16.8528 19.1957C16.8899 19.4702 16.9141 19.7284 16.9624 19.9834C16.977 20.0354 16.9751 20.0907 16.9568 20.1414C16.9386 20.1922 16.905 20.2358 16.8608 20.2661C15.9817 21.0424 15.13 21.8448 14.3186 22.6946C13.5992 23.4496 13.0282 24.2848 12.8265 25.3405C12.6652 26.2083 12.7491 27.0695 12.8765 27.9308C12.8991 28.0605 12.8834 28.1941 12.8314 28.3148C12.4104 29.3183 12.1426 30.3511 12.2861 31.4542C12.336 32.0628 12.5154 32.6533 12.812 33.1849C12.8713 33.3053 12.9579 33.4096 13.0647 33.4895C13.1716 33.5693 13.2956 33.6223 13.4266 33.6441C13.4431 33.6428 13.4597 33.6458 13.4748 33.6529C13.4898 33.66 13.5028 33.6708 13.5125 33.6844C13.5223 33.6981 13.5284 33.714 13.5303 33.7307C13.5322 33.7474 13.5298 33.7643 13.5234 33.7798C13.4282 34.257 13.3363 34.7342 12.9088 35.0414C12.8693 35.0674 12.8366 35.1026 12.8136 35.1442C12.7906 35.1857 12.7778 35.2324 12.7765 35.28C12.7265 35.8945 12.6265 36.5008 12.5168 37.1071C12.3302 38.0243 12.2823 38.965 12.3749 39.8968C12.4834 40.6454 12.6326 41.3874 12.8217 42.1194C12.9265 42.609 12.8762 43.1197 12.6781 43.5788C12.6088 43.7504 12.5571 43.7177 12.4717 43.5935C12.0595 43.0159 11.6896 42.4085 11.3651 41.7762C11.1046 41.216 10.7178 40.7256 10.2359 40.3446C10.0972 40.2383 9.97462 40.1092 9.82137 39.9671C10.1694 39.8268 10.4896 39.6242 10.7666 39.3689C11.3182 38.8383 11.6948 38.1482 11.8449 37.3927C11.9951 36.6372 11.9114 35.8532 11.6054 35.1476C11.557 35.0283 11.5006 35.0202 11.3893 35.0463C10.7861 35.1839 10.2255 35.4696 9.75685 35.8782C8.99387 36.5466 8.46639 37.3408 8.56156 38.426C8.56156 38.4423 8.56156 38.4586 8.56156 38.475L8.53414 38.4505C8.34219 38.2364 8.15507 38.0207 7.95827 37.8115C7.92765 37.7867 7.9078 37.7508 7.90298 37.7114C7.89815 37.672 7.90874 37.6323 7.93246 37.6007C8.45349 36.5989 8.53414 35.535 8.33251 34.4416C7.91149 32.1259 6.60491 30.5194 4.4821 29.5814C4.27079 29.4866 4.17239 29.5095 4.06109 29.7203C3.35531 31.0343 3.08822 32.5444 3.29972 34.0249C3.38194 34.8096 3.65945 35.5603 4.10626 36.2066C4.78536 37.1398 5.74353 37.6432 6.80009 37.988C6.86227 38.0048 6.91994 38.0355 6.9688 38.078C7.01766 38.1204 7.05648 38.1734 7.08238 38.2331C7.34369 38.779 7.61953 39.3199 7.88891 39.8674C8.16013 40.4865 8.56926 41.0336 9.0842 41.4657C9.389 41.7258 9.61864 42.0646 9.74878 42.4462V42.4936L9.71652 42.4805C8.67448 42.2436 7.61953 42.0654 6.63072 41.6209C6.56239 41.5982 6.50271 41.5546 6.45994 41.496C6.41717 41.4375 6.39342 41.3669 6.39198 41.2941C6.33566 40.8354 6.17617 40.3959 5.9258 40.0096C5.33068 39.0471 4.44047 38.3088 3.39159 37.908C2.34272 37.5071 1.19304 37.4658 0.11874 37.7902C0.00582499 37.8213 -0.0070796 37.8736 0.00259884 37.9798C0.0550833 38.5201 0.193442 39.0482 0.412319 39.5438C0.723382 40.2757 1.18346 40.9328 1.76246 41.4722C2.8158 42.4707 4.04335 42.6865 5.39349 42.2779C5.7161 42.1815 5.95645 42.1472 6.20002 42.4413C6.35505 42.5851 6.52485 42.7117 6.70653 42.8188C6.74847 42.8499 6.81944 42.8597 6.81783 42.9463L6.62588 42.9904C5.98577 43.1193 5.36817 43.344 4.79343 43.6572C3.70784 44.2763 2.82811 45.2079 2.26574 46.3341C2.03668 46.7656 2.03184 46.7656 2.45608 47.0172C3.68886 47.7572 5.11921 48.0881 6.54684 47.9635C8.11958 47.8409 9.32777 47.1137 10.1214 45.7164C10.2214 45.5399 10.315 45.3601 10.4134 45.1803C10.8602 45.7033 11.2748 46.2361 11.7409 46.7165C11.9028 46.8643 12.0271 47.0495 12.1032 47.2563C12.1793 47.4632 12.205 47.6856 12.1781 47.9046C12.1506 48.1465 12.2281 48.4162 11.9958 48.6057C11.9781 48.6204 11.9813 48.6776 11.9958 48.7103C12.2184 49.4327 12.4265 50.1648 12.8475 50.8005C13.1378 51.2418 13.5282 51.3725 14.0347 51.2336C14.1893 51.1896 14.3407 51.135 14.488 51.0702C15.08 50.8136 15.6752 50.5652 16.2817 50.3429C16.3559 50.3168 16.4269 50.2792 16.5092 50.3429C17.2738 50.861 17.8335 51.5294 17.919 52.4904C17.9964 53.3778 17.7238 54.208 17.377 55.0087C17.3103 55.1468 17.2949 55.3046 17.3335 55.4533C17.4673 56.004 17.8174 56.4142 18.2206 56.7754C18.9175 57.4013 19.7047 57.8344 20.6661 57.8344C20.7373 57.8309 20.8084 57.843 20.8747 57.8698C20.9409 57.8966 21.0007 57.9374 21.05 57.9896C21.6 58.5322 22.784 58.9064 23.5422 58.1743C23.5584 58.1514 23.5796 58.1327 23.6042 58.1195C23.6287 58.1063 23.656 58.099 23.6837 58.0982C23.7115 58.0974 23.7391 58.1032 23.7644 58.1149C23.7896 58.1267 23.8118 58.1442 23.8293 58.1661C24.142 58.4951 24.5599 58.7007 25.0085 58.7463C25.4601 58.7969 25.9247 58.8149 26.2441 58.3737C26.2876 58.3116 26.3312 58.3214 26.3844 58.3737C26.593 58.5987 26.8538 58.7673 27.1432 58.8641C27.4325 58.9608 27.7412 58.9827 28.041 58.9277C28.554 58.859 29.054 58.7283 29.3315 58.2086C29.3831 58.1138 29.4347 58.1351 29.5089 58.1792C29.7394 58.3358 29.9816 58.474 30.2332 58.5927C30.7493 58.7878 31.3116 58.8203 31.8463 58.6858C31.9683 58.6569 32.0834 58.6034 32.1845 58.5284C32.2857 58.4534 32.3709 58.3586 32.435 58.2495C32.5367 58.086 32.6109 58.0942 32.7577 58.1727C33.4448 58.5436 34.1207 58.5583 34.7885 58.1057C35.0166 57.956 35.2353 57.7923 35.4434 57.6154C35.8309 57.2738 36.1673 56.8768 36.4419 56.4371C36.5468 56.2737 36.5855 56.1184 36.4177 55.9468C36.277 55.7841 36.1754 55.5905 36.1209 55.3814C35.8419 54.5281 35.8676 53.6026 36.1935 52.7665C36.3219 52.4004 36.5522 52.0797 36.8565 51.8432C36.942 51.7778 37.0291 51.6945 37.1501 51.7157C37.511 51.7678 37.8667 51.852 38.2131 51.9674C39.5821 52.448 40.7973 53.2951 41.7296 54.4188C42.0683 54.8714 42.5278 55.2162 43.0539 55.4124C43.3007 55.4925 43.5588 55.5546 43.783 55.3617C44.0564 55.1498 44.2897 54.8896 44.4718 54.5936C44.8928 53.8223 45.3203 53.0542 45.5558 52.1962C45.5945 52.0589 45.6429 52.0328 45.7687 52.121C46.0618 52.318 46.3704 52.4901 46.6914 52.6358C47.9078 53.1566 49.2132 53.4303 50.5337 53.4415C51.8245 53.4989 53.1081 53.2174 54.2599 52.6244C54.3131 52.5966 54.3712 52.5181 54.4325 52.5819C54.4938 52.6456 54.4228 52.6914 54.4035 52.7453C53.4991 55.1124 52.178 57.2935 50.5047 59.1826C49.8783 59.8885 49.1923 60.5376 48.4545 61.1225C47.5469 61.849 46.5365 62.4329 45.4574 62.8548C44.6298 63.1773 43.7605 63.3765 42.8765 63.4464C42.8299 63.4563 42.7814 63.451 42.738 63.4314C42.6945 63.4117 42.6583 63.3787 42.6345 63.3369C42.2877 62.7551 41.7667 62.3563 41.1956 62.0295C39.9379 61.2918 38.501 60.9266 37.0484 60.9754C36.617 60.9856 36.1884 61.0498 35.7725 61.1666C35.0837 61.3693 34.4627 61.6896 34.053 62.3106C33.7578 62.7616 33.6061 63.2437 33.8675 63.7814C33.9094 63.8664 33.9546 63.9448 34.0546 63.9448C34.1341 63.957 34.2076 63.9949 34.2643 64.0527C34.5504 64.2716 34.8567 64.462 35.1789 64.6214C36.0929 65.0508 37.0532 65.3706 38.0405 65.5742C38.6341 65.7017 39.2315 65.8008 39.8326 65.8716C40.2681 65.9207 40.7053 65.9664 41.1424 65.9828C41.6457 66.0024 42.1522 66.0089 42.6555 65.9828C43.2811 65.937 43.901 65.8319 44.5073 65.669C45.3408 65.4781 46.1567 65.2157 46.9462 64.8845C48.598 64.172 50.0401 63.1261 51.4032 61.9625C52.1174 61.3383 52.7879 60.6644 53.4098 59.9458C54.2184 59.0397 54.9628 58.077 55.6375 57.0646C56.313 56.0339 56.9012 54.947 57.3957 53.8157C57.9817 52.5264 58.429 51.1769 58.7297 49.7906C58.9136 48.9032 59.1798 48.0305 59.2524 47.1218C59.3137 46.3701 59.3475 45.615 59.383 44.86C59.383 44.7178 59.4298 44.6476 59.5701 44.6165C60.0897 44.4864 60.5839 44.2681 61.0316 43.971C62.1398 43.2427 63.0792 42.2798 63.7851 41.1486C64.4666 40.0966 65.0002 38.9537 65.3708 37.7526C65.68 36.7434 65.8743 35.7016 65.9499 34.6476C66.0032 34.0663 66.014 33.4818 65.9821 32.8989ZM7.38725 37.2624C6.90332 36.4583 6.46779 35.651 6.04033 34.8437C5.86612 34.5168 5.69029 34.19 5.51608 33.8533C5.51608 33.8141 5.51608 33.7651 5.45478 33.7765C5.46608 33.8108 5.47737 33.8435 5.49027 33.8778C5.91128 35.0218 6.38875 36.156 6.88235 37.3098C6.65292 37.2498 6.4302 37.166 6.21777 37.0597C4.87892 36.4599 4.13207 35.4157 3.94011 33.9546C3.77795 32.7725 3.94094 31.568 4.41113 30.4737C4.4692 30.338 4.51598 30.3201 4.64664 30.3887C6.64201 31.4313 7.63889 33.1261 7.78406 35.3601C7.82459 36.0189 7.68742 36.6765 7.38725 37.2624ZM3.83849 40.4247C3.83031 40.4421 3.82116 40.459 3.81106 40.4753L5.45962 41.5768C5.0094 41.739 4.53401 41.8176 4.05625 41.8089C3.47345 41.792 2.91299 41.5779 2.46415 41.2009C1.604 40.5081 0.997978 39.5432 0.742999 38.4603C0.722029 38.3802 0.705899 38.3344 0.817201 38.2969C2.62223 37.8458 4.95635 39.0748 5.61609 40.8299C5.68969 41.0037 5.73386 41.1888 5.74675 41.3774L3.83849 40.4247ZM9.3923 37.3637C9.74444 36.6801 10.3238 36.1447 11.028 35.852C11.1151 35.8128 11.1489 35.8144 11.1893 35.9157C11.5522 37.0417 10.9441 38.6286 9.92138 39.2022C9.80965 39.2775 9.68303 39.3272 9.55038 39.3477C9.60841 38.8748 9.72213 38.4106 9.88912 37.9651C9.92622 37.9439 9.92622 37.9063 9.92784 37.8703C9.92945 37.8344 9.96494 37.8082 9.98268 37.7755H9.92461L9.89073 37.8442C9.87783 37.8703 9.86493 37.8965 9.85041 37.9226C9.67067 38.2302 9.50803 38.5478 9.36326 38.8737C9.25312 38.6369 9.19816 38.3775 9.20264 38.1157C9.20711 37.8539 9.2709 37.5966 9.38907 37.3637H9.3923ZM9.86009 44.793C9.44875 45.7017 8.89224 46.4877 7.9744 46.9323C7.3141 47.2238 6.59707 47.3596 5.87741 47.3294C4.90075 47.3194 3.93999 47.0776 3.07228 46.6234C2.93839 46.5547 2.89 46.5122 2.98517 46.3521C4.15787 44.4024 5.8887 43.5069 8.11797 43.5216C8.66226 43.533 9.19746 43.6652 9.68587 43.9089L7.21787 44.9041C7.04725 44.9346 6.88883 45.014 6.76137 45.1329L7.21949 44.9695C7.61146 44.8502 8.00667 44.7374 8.4051 44.6427C8.8047 44.5503 9.21082 44.4896 9.61974 44.4613C10.0085 44.4531 10.0085 44.4531 9.85686 44.793H9.86009ZM12.1426 44.476C11.82 44.7244 11.82 45.0398 11.9151 45.3993C11.9648 45.6317 12.0009 45.8669 12.0232 46.1037C11.928 46.089 11.9006 46.0105 11.8619 45.9582C11.4974 45.5219 11.1409 45.0806 10.7731 44.6508C10.734 44.614 10.7084 44.5649 10.7005 44.5115C10.6926 44.458 10.7028 44.4035 10.7295 44.3567C10.7682 44.2766 10.7779 44.1834 10.8166 44.105C10.8715 43.9971 10.8328 43.9318 10.7537 43.8566C10.5735 43.6863 10.3736 43.5387 10.1585 43.417L9.63426 43.0754C9.77298 43.1048 9.91332 43.131 10.0553 43.149C10.4876 43.2078 10.6344 43.0231 10.486 42.6129C10.2549 41.8893 9.82041 41.2498 9.23583 40.7727C9.02907 40.6055 8.85927 40.3962 8.73739 40.1583C8.5293 39.7726 8.32767 39.3836 8.12119 38.9914C8.22604 38.962 8.25669 39.047 8.29863 39.0976C8.89547 39.8004 9.46972 40.5227 10.1908 41.1078C10.4526 41.3472 10.6596 41.6417 10.7973 41.9707C11.1865 42.7426 11.6432 43.4777 12.1619 44.1671C12.2507 44.2897 12.2668 44.3861 12.1394 44.476H12.1426ZM54.7632 25.5317C54.7653 25.5366 54.7664 25.5419 54.7664 25.5472C54.7664 25.5526 54.7653 25.5578 54.7632 25.5627C54.7455 25.5791 54.7261 25.5971 54.7067 25.5627C54.6874 25.5284 54.7342 25.5268 54.7632 25.5317ZM50.9838 21.6095C51.0805 21.6193 51.1707 21.6633 51.2386 21.7337C52.242 22.4822 53.1953 23.2846 53.9679 24.288C54.0905 24.4514 54.0712 24.5168 53.897 24.5855C53.8138 24.6147 53.737 24.6602 53.6711 24.7195C53.4356 24.9499 53.2227 24.8829 52.9501 24.7554C52.7455 24.6683 52.5622 24.5368 52.4131 24.3703C52.264 24.2037 52.1527 24.006 52.0871 23.7912C51.8105 23.0578 51.4494 22.36 51.0112 21.7124C50.9902 21.6814 50.9596 21.6601 50.9805 21.6095H50.9838ZM52.3936 25.7376C51.793 26.3052 51.2573 26.9395 50.7966 27.6284C50.7305 27.7281 50.687 27.7477 50.6111 27.6284C50.0127 26.7133 49.4094 25.8013 48.811 24.8862C48.7258 24.7214 48.666 24.5445 48.6335 24.3616C48.54 24.0445 48.4475 23.7269 48.3561 23.4088C49.403 23.9857 50.4305 24.5364 51.4628 25.0806C51.7613 25.2441 52.0581 25.3977 52.3581 25.5497C52.4613 25.6069 52.4936 25.6428 52.3936 25.7376ZM47.2318 19.3542C47.243 19.3542 47.2592 19.3362 47.2672 19.3411C47.9125 19.6353 48.5287 19.9948 49.1481 20.3478C49.203 20.3839 49.2475 20.4341 49.2771 20.4933C49.8675 21.5703 50.4998 22.6178 51.1225 23.6768C51.137 23.703 51.1467 23.7307 51.1854 23.819C50.8466 23.6556 50.5595 23.5068 50.2756 23.3614C49.5707 23.0002 48.869 22.6309 48.1431 22.3122C48.0985 22.2978 48.0579 22.2725 48.025 22.2386C47.9922 22.2047 47.9679 22.1632 47.9544 22.1177C47.7141 21.2091 47.4705 20.3037 47.2269 19.3967C47.2283 19.382 47.2321 19.3676 47.2382 19.3542H47.2318ZM41.0827 16.9649C42.793 17.4319 44.4649 18.033 46.0833 18.7626C46.138 18.7813 46.1867 18.8145 46.2245 18.8587C46.2622 18.903 46.2875 18.9567 46.2978 19.0143C46.393 19.4081 46.5026 19.7987 46.6204 20.2514C45.5542 19.6892 44.4879 19.2709 43.4394 18.8263C42.549 18.4456 41.8264 17.8458 41.1037 17.2378C40.9763 17.1283 40.8456 17.0238 40.6875 16.8947C40.8222 16.8951 40.9559 16.9189 41.0827 16.9649ZM27.6942 11.9821C27.9442 11.9047 28.2072 11.8801 28.4669 11.9099C28.7266 11.9397 28.9775 12.0232 29.2041 12.1553C29.688 12.4054 30.0896 12.7584 30.5235 13.0705C31.0284 13.4349 31.5253 13.8108 32.0656 14.2145C31.5624 14.2619 31.1268 14.2782 30.7332 13.9742C30.4784 13.7781 30.1945 13.6196 29.9267 13.4464C29.867 13.4072 29.8138 13.3467 29.7235 13.3761C29.9557 13.6507 30.188 13.9219 30.4542 14.2374C30.1316 14.2374 29.8541 14.2374 29.5783 14.2374C28.9637 14.2472 28.3491 14.2602 27.7345 14.2717C27.6545 14.2808 27.5739 14.2592 27.5087 14.2112C27.0248 13.819 26.5506 13.4317 26.057 13.0313C26.5457 12.5851 27.0587 12.1864 27.6894 11.9821H27.6942ZM21.8581 12.724C22.1783 12.9658 22.4062 13.3122 22.5034 13.7046C22.5402 13.7949 22.5451 13.8953 22.5171 13.9889C22.4892 14.0824 22.4302 14.1633 22.3501 14.2177C22.2686 14.2691 22.1729 14.2924 22.0773 14.2841C21.9816 14.2759 21.8912 14.2365 21.8194 14.172C21.6465 14.0322 21.5056 13.8561 21.4064 13.6558C21.3073 13.4554 21.2522 13.2357 21.2452 13.0117C21.237 12.9357 21.2499 12.8589 21.2824 12.7899C21.3149 12.7209 21.3656 12.6625 21.429 12.6211C21.592 12.5296 21.7307 12.6309 21.8533 12.724H21.8581ZM16.2946 16.8816C16.1333 16.9698 16.0769 16.9273 16.0269 16.7672C15.8933 16.3012 15.9007 15.8054 16.0478 15.3437C16.1269 15.0692 16.2091 14.7963 16.3075 14.4792C15.5946 15.1117 15.0784 15.8209 14.8429 16.7165C14.7767 16.9666 14.7251 17.2215 14.6816 17.4748C14.6797 17.5111 14.6672 17.5461 14.6457 17.5752C14.6241 17.6043 14.5945 17.6263 14.5606 17.6382C14.2578 17.7697 13.9412 17.8656 13.6169 17.9242C13.2943 17.97 13.1701 17.8131 13.2637 17.5091C13.3487 17.2559 13.4812 17.0217 13.654 16.8195C14.0638 16.3063 14.4832 15.8013 14.8977 15.2914C15.4013 14.6933 15.7898 14.0049 16.043 13.2617C16.1956 12.7911 16.3968 12.3381 16.6431 11.9102C16.7726 11.6769 16.9255 11.4578 17.0996 11.2565C17.2756 11.0303 17.5171 10.8657 17.7902 10.7857C18.0633 10.7057 18.3543 10.7143 18.6223 10.8103C19.4643 11.0669 20.2192 11.5 20.9661 11.9543C21.1145 12.0458 21.2597 12.1439 21.4371 12.2583C21.3279 12.2759 21.225 12.3217 21.1383 12.3912C21.0515 12.4608 20.9839 12.5517 20.9419 12.6554C20.8749 12.8667 20.8638 13.0921 20.9096 13.3091C20.9514 13.6408 21.0666 13.9587 21.2468 14.239C21.3101 14.3441 21.3943 14.4347 21.494 14.505C21.5937 14.5753 21.7068 14.6239 21.826 14.6476C21.9453 14.6712 22.0681 14.6695 22.1866 14.6425C22.3052 14.6155 22.4169 14.5638 22.5146 14.4907C23.0534 14.136 23.1889 13.5787 22.884 12.9626C22.8631 12.9626 22.8405 12.9479 22.855 12.9218C22.8695 12.8956 22.8905 12.9218 22.9098 12.9218C23.6999 13.189 24.4661 13.5236 25.2004 13.9219C25.6536 14.146 26.1208 14.3398 26.5989 14.5021C26.7498 14.559 26.8959 14.6279 27.0361 14.708C27.1974 14.8061 27.1877 14.8894 27.0119 14.9679C26.6833 15.1043 26.3329 15.1785 25.9779 15.1869C25.2165 15.2293 24.4568 15.146 23.6954 15.1297C22.8244 15.1133 21.9533 15.0937 21.0838 15.0267C20.304 14.9859 19.5284 15.167 18.8449 15.5497C17.99 15.9909 17.1367 16.4305 16.2898 16.8816H16.2946ZM17.9335 17.6726C17.9029 17.5827 17.9464 17.5549 17.9997 17.5091C18.7994 16.8684 19.7095 16.3835 20.6838 16.0792C20.7185 16.0606 20.759 16.0568 20.7965 16.0684C20.8339 16.0801 20.8653 16.1062 20.8838 16.1413C21.2423 16.6729 21.7711 17.0626 22.3808 17.2444C22.5776 17.3098 22.7776 17.3882 22.7695 17.6497C22.7679 17.7456 22.7356 17.8385 22.6774 17.9142C22.6192 17.99 22.5383 18.0445 22.4469 18.0697C22.2153 18.1646 21.9713 18.2246 21.7226 18.2478C21.0692 18.3433 20.4399 18.5652 19.8692 18.9015C19.3692 19.1777 18.8772 19.4702 18.3578 19.7186C18.2394 19.777 18.117 19.8267 17.9916 19.8674C17.7061 19.9523 17.5948 19.8477 17.669 19.5569C17.7174 19.3575 17.7867 19.1614 17.8512 18.9653C18.0188 18.5552 18.0461 18.1001 17.9287 17.6726H17.9335ZM13.4169 38.6286C13.6282 38.1726 14.0508 38.0223 14.4622 37.8883C14.9591 37.734 15.4636 37.6058 15.9736 37.5042C16.8899 37.3065 17.5754 36.7754 18.1206 36.0334C18.1408 35.9943 18.1691 35.9602 18.2037 35.9333C18.2382 35.9065 18.2782 35.8877 18.3207 35.8782C19.1127 35.7719 19.9031 35.6673 20.7032 35.8111C20.9154 35.8372 21.1151 35.9271 21.2764 36.0693C21.4377 36.2114 21.5532 36.3993 21.6081 36.6087C21.8177 37.3521 21.9134 38.1237 21.892 38.8966V39.06H21.9291L22.2098 37.501H22.263C22.263 37.5974 22.263 37.6954 22.263 37.7935C22.284 38.6449 22.2065 39.4997 22.3178 40.3495C22.347 40.6147 22.3978 40.8771 22.4695 41.1339C22.4996 41.2347 22.5094 41.3406 22.4983 41.4453C22.4872 41.5501 22.4555 41.6514 22.405 41.7435C21.8613 42.9283 20.9806 43.7945 19.9144 44.4874C19.5417 44.7309 19.0949 44.7456 18.6788 44.8535C17.9369 45.0488 17.1822 45.1902 16.4205 45.2768C15.5978 45.3699 14.7638 45.383 14.0202 44.896C13.6056 44.6247 13.5266 44.3714 13.7315 43.9252C13.897 43.5604 13.986 43.1647 13.9928 42.7633C14.0105 42.0213 13.9218 41.3121 13.5314 40.6387C13.3432 40.3422 13.2333 40.0016 13.2121 39.6497C13.1909 39.2977 13.2592 38.9462 13.4105 38.6286H13.4169ZM39.3293 48.7512C40.0407 49.0453 40.6795 49.4768 41.3569 49.8363C41.558 49.9448 41.7784 50.0115 42.0053 50.0326C42.2322 50.0536 42.4609 50.0286 42.6781 49.9589C43.4072 49.7448 44.0298 49.3918 44.3847 48.6515C44.4935 49.0289 44.5542 49.4188 44.5653 49.8118C44.5944 51.3742 43.9992 52.644 42.8135 53.636C42.7499 53.6911 42.6718 53.7263 42.5888 53.7374C42.5057 53.7484 42.4213 53.7347 42.3458 53.6981C41.8618 53.5346 41.4957 53.1751 41.1376 52.827C40.3214 52.024 39.376 51.368 38.3421 50.8871C36.9968 50.2661 35.7225 50.374 34.5159 51.2238C34.2519 51.4009 34.0257 51.6299 33.8506 51.8971C33.6755 52.1643 33.5551 52.4644 33.4964 52.7796C33.4851 52.8385 33.4771 52.8973 33.4706 52.9561C33.4705 52.9987 33.4732 53.0413 33.4787 53.0836C33.6604 52.7951 33.8575 52.5169 34.0691 52.2501C34.3009 51.9603 34.5957 51.7288 34.9305 51.5735C35.0299 51.5278 35.1353 51.4964 35.2434 51.4804C35.3257 51.4673 35.4337 51.4248 35.4886 51.5065C35.5434 51.5882 35.4434 51.6373 35.4128 51.701C35.0209 52.4943 34.8234 53.3716 34.8369 54.2586C34.8439 54.674 34.7956 55.0885 34.6933 55.4908C34.6045 55.8743 34.3867 56.2144 34.0774 56.453C33.7681 56.6915 33.3865 56.8136 32.998 56.7983C32.8423 56.7904 32.69 56.7494 32.551 56.6779C32.412 56.6063 32.2895 56.5059 32.1915 56.3831C31.8322 55.9786 31.5929 55.4795 31.5011 54.9434C31.334 54.2168 31.3568 53.4586 31.5672 52.7437C31.6237 52.5672 31.7092 52.4037 31.7769 52.224C31.5684 52.3701 31.3948 52.5616 31.2688 52.7845C30.7755 53.6413 30.633 54.6597 30.872 55.6216C30.9328 55.8358 31.0329 56.0365 31.1672 56.2132C31.2134 56.2741 31.237 56.3496 31.2338 56.4265C31.2305 56.5033 31.2007 56.5765 31.1494 56.6332C31.0503 56.779 30.9223 56.9023 30.7737 56.9953C30.625 57.0884 30.4589 57.1491 30.2859 57.1737C30.1128 57.1983 29.9366 57.1862 29.7685 57.1381C29.6003 57.0901 29.4438 57.0072 29.3089 56.8947C28.7701 56.4747 28.5556 55.8667 28.4685 55.2114C28.3558 54.4409 28.5012 53.6543 28.8814 52.9774C28.7887 52.9769 28.6991 53.0113 28.6298 53.0738C27.9846 53.5363 27.5297 54.2978 27.6991 55.1983C27.8265 55.8716 28.0362 56.5057 28.5233 57.0074C28.5879 57.0744 28.5733 57.1169 28.5088 57.1709C28.4923 57.1859 28.4751 57.2001 28.4572 57.2133C27.9975 57.5288 26.9796 57.7036 26.4376 57.0761C26.0393 56.6064 25.7996 56.0201 25.7537 55.4026C25.6583 54.5849 25.8428 53.7588 26.2763 53.0623C26.2989 53.0248 26.3247 52.9921 26.2925 52.9496C25.3666 53.4121 25.1165 54.4531 25.2246 55.2915C25.3004 55.8782 25.3666 56.4665 25.615 57.0123C25.6585 57.1055 25.5988 57.1267 25.544 57.1643C24.9133 57.5941 23.8696 57.3474 23.5389 56.6446C22.9518 55.3944 23.0066 54.1246 23.5244 52.8613C23.5341 52.8385 23.5599 52.8221 23.5793 52.8025L23.5518 52.7731V52.7829C23.4793 52.7535 23.4276 52.8221 23.3776 52.8581C23.1338 53.0174 22.926 53.2272 22.7678 53.4736C22.6096 53.7201 22.5047 53.9976 22.4598 54.288C22.3711 54.7928 22.3825 55.3104 22.4933 55.8107C22.6041 56.311 22.812 56.7839 23.105 57.2019C23.1437 57.2542 23.176 57.3114 23.2308 57.3964C22.95 57.4333 22.6646 57.4122 22.392 57.3343C22.1209 57.2674 21.8692 57.1366 21.6573 56.9526C21.4454 56.7686 21.2793 56.5365 21.1726 56.2753C20.7564 55.3062 20.8096 54.3322 21.1193 53.3549C21.1521 53.1964 21.2314 53.0517 21.3468 52.9398C21.3245 52.9295 21.3003 52.9239 21.2758 52.9234C21.1822 52.9234 21.1387 53.0264 21.0887 53.0869C20.6668 53.5543 20.3775 54.1285 20.2515 54.7489C20.145 55.298 20.0402 55.8504 20.1934 56.4109C20.1934 56.4403 20.2031 56.4681 20.2354 56.4796C20.2284 56.4889 20.2194 56.4965 20.209 56.5016C20.1987 56.5067 20.1872 56.5092 20.1757 56.509C20.148 56.5063 20.1211 56.498 20.0966 56.4845C19.9886 56.4371 19.8821 56.3881 19.774 56.3341C18.6836 55.7638 18.3642 55.1003 18.5852 53.8827C18.6687 53.4914 18.7226 53.0942 18.7465 52.6946C18.7607 52.3526 18.6943 52.012 18.5529 51.701C18.4061 51.3872 18.2642 51.0702 18.1045 50.7629C17.6303 49.8494 16.9076 49.2921 15.8817 49.1467C15.4556 49.0726 15.0234 49.0414 14.5912 49.0535C15.123 49.1287 15.6246 49.3483 16.043 49.6892C15.9606 49.7225 15.8709 49.7327 15.7833 49.7187C15.3868 49.7276 14.9971 49.8241 14.6412 50.0014C14.3735 50.1403 14.2509 50.1109 14.1202 49.8478C13.8081 49.1619 13.5769 48.4411 13.4314 47.7004C15.1332 48.055 16.7866 48.1906 18.3594 47.1382C17.6606 47.2344 16.9562 47.2819 16.2511 47.2803C15.009 47.2885 14.0057 46.7688 13.1104 45.8602L14.0008 46.107C15.0157 46.4207 16.0977 46.4355 17.1205 46.1494C17.4532 46.0571 17.7967 46.0109 18.1416 46.0122C18.427 45.9879 18.7057 45.9115 18.9643 45.7866C19.6982 45.4941 20.416 45.1444 21.1145 44.7848L21.3258 44.6835C21.2495 45.1425 21.1367 45.5944 20.9887 46.035C20.8636 46.3769 20.8029 46.7394 20.8096 47.1039C20.8481 48.0457 20.8244 48.9892 20.7386 49.9278C20.7168 50.1201 20.7282 50.3148 20.7725 50.5031C20.7893 50.615 20.8479 50.716 20.9362 50.7854C21.0245 50.8547 21.1356 50.8871 21.2468 50.8757C21.498 50.8999 21.7487 50.8236 21.9452 50.6633C22.4195 50.2236 22.9647 50.2547 23.5357 50.3609C23.9117 50.4553 24.2717 50.6063 24.6036 50.8087C24.7447 50.8937 24.9054 50.9397 25.0696 50.942C25.2338 50.9443 25.3957 50.9028 25.5392 50.8218C25.9215 50.6191 26.2941 50.4198 26.457 49.9785C26.581 49.6212 26.6299 49.2415 26.6006 48.8639C26.5849 48.612 26.5225 48.3653 26.4167 48.1367C26.3125 47.8515 26.2495 47.5527 26.2295 47.2493C26.1491 46.6928 26.0018 46.1484 25.7908 45.6281C25.5504 45.0332 25.3472 44.422 25.1262 43.819C25.0402 43.5993 24.9406 43.3853 24.8278 43.1784C24.711 42.9191 24.5144 42.7053 24.2675 42.5688C24.0206 42.4324 23.7366 42.3808 23.4583 42.4217C23.1744 42.4479 22.8889 42.4658 22.6082 42.5198C22.5759 42.5198 22.5437 42.541 22.5227 42.5034V42.523H22.4969L22.5146 42.5018C22.6566 42.2795 22.7937 42.054 22.9437 41.8366C23.4104 41.1462 23.7281 40.3638 23.8761 39.5405C24.0567 38.5927 24.2616 38.3965 25.3633 38.2331C25.7892 38.1661 26.1618 38.2544 26.4215 38.6384C26.4215 38.6597 26.4215 38.6972 26.4586 38.6891C26.4586 38.6891 26.4586 38.6384 26.4586 38.6123C26.2312 38.0141 25.7489 37.7723 25.0246 37.9389C24.7939 37.9929 24.7891 37.903 24.7536 37.7298C24.685 37.3635 24.7312 36.9846 24.8859 36.6463C25.0043 36.3267 25.0729 35.9903 25.0891 35.6494C25.1181 35.3045 24.8907 35.0725 24.6907 34.8616C24.4105 34.5589 24.1996 34.1973 24.0729 33.8027C24.06 33.7651 24.0729 33.6883 23.9777 33.6948C24.0506 34.134 24.0452 34.5829 23.9616 35.0202C23.903 35.3434 23.7514 35.6418 23.526 35.8782C23.4357 35.9713 23.3647 36.0105 23.2712 35.8782C23.1923 35.781 23.106 35.6903 23.0131 35.6069C22.8196 35.3986 22.5847 35.2342 22.3238 35.1246C22.063 35.015 21.7822 34.9627 21.5 34.9711C20.3709 34.9711 19.2595 35.0006 18.1416 35.1019C17.9733 35.1159 17.8099 35.1657 17.662 35.2483C17.5141 35.3308 17.3851 35.4441 17.2834 35.5807C17.2068 35.6698 17.1387 35.7661 17.0802 35.8684C16.6673 36.6855 15.9091 36.8832 15.1155 37.0238C14.9911 37.0399 14.8648 37.027 14.7461 36.9862C14.679 36.9745 14.6154 36.9472 14.5605 36.9065C14.5055 36.8657 14.4607 36.8126 14.4294 36.7513C14.3981 36.69 14.3813 36.6222 14.3803 36.5532C14.3793 36.4842 14.3941 36.4159 14.4235 36.3537C14.4672 36.2135 14.5284 36.0795 14.6057 35.955C15.1945 35.0202 15.4349 33.9726 15.5833 32.8956C15.6365 32.5018 15.6881 32.1079 15.7446 31.6994C16.5237 32.3531 17.3754 32.809 18.3836 32.9316C18.3981 32.8499 18.3287 32.8499 18.2948 32.827C17.7599 32.448 17.2748 32.0015 16.8511 31.4984C16.2527 30.7891 16.1124 29.954 16.2172 29.0584C16.3612 28.0227 16.6718 27.018 17.1367 26.0841C17.1509 26.0358 17.1831 25.9951 17.2264 25.9704C17.2698 25.9457 17.3208 25.939 17.3689 25.9517C17.742 26.0024 18.1216 25.9537 18.4704 25.8104C18.8192 25.6671 19.1251 25.4342 19.3579 25.1346C19.5038 24.9684 19.6365 24.7908 19.7547 24.6034C20.5289 23.2862 21.5871 22.224 22.6905 21.196C23.1744 20.745 23.6583 20.3789 24.3552 20.3037C25.1673 20.1865 25.9455 19.8951 26.6377 19.449C27.4539 18.9587 28.3798 18.7708 29.2976 18.5796C29.5702 18.524 29.8444 18.4782 30.159 18.4161C29.6533 18.9597 29.3499 19.6646 29.3008 20.4099C29.6347 20.2269 29.9461 20.0406 30.2767 19.8837C31.6382 19.23 33.4077 19.7203 34.2143 20.7548C34.7302 21.4309 34.9745 22.2798 34.8982 23.131C34.7982 24.8371 34.0336 26.2622 33.0093 27.5647C32.0248 28.779 30.8406 29.8118 29.5089 30.6175C28.6233 31.1951 27.9127 32.0095 27.4555 32.9708C26.686 34.4972 26.457 36.1184 26.4957 37.8049C26.518 38.329 26.6063 38.848 26.7586 39.3493C26.8619 39.2529 26.8167 39.1548 26.8135 39.0699C26.7175 37.2824 27.0822 35.5005 27.8717 33.8991C28.3346 32.9659 28.9121 32.1014 29.7977 31.5131C29.9609 31.4 30.13 31.2958 30.3042 31.2009C31.5543 30.5472 32.7899 29.869 33.9723 29.0927C34.9982 28.4194 35.8306 27.5369 36.5839 26.5711C36.9148 26.1937 37.2173 25.7916 37.4888 25.3683C37.6074 25.1762 37.6946 24.9659 37.7469 24.7456C36.8016 25.6183 35.8499 26.4779 34.6821 27.1529C35.2391 26.3304 35.6204 25.3992 35.8015 24.4188C36.0967 22.6685 35.6128 21.1976 34.2643 20.0324C33.5255 19.3934 32.6512 19.0519 31.7253 18.8247C31.4688 18.7642 31.2123 18.7021 30.9526 18.6613C30.7913 18.6351 30.7913 18.5779 30.8494 18.4472C30.9822 18.1416 31.0524 17.8119 31.0559 17.4781C31.0559 17.4094 31.0559 17.3277 30.9994 17.2967C30.9429 17.2656 30.8849 17.3473 30.8381 17.3898C30.563 17.6891 30.1987 17.8889 29.8009 17.9585C28.2099 18.2619 26.6696 18.7929 25.2262 19.5356C24.8246 19.7464 24.4052 19.9981 23.9358 19.8625C23.5793 19.7562 23.3728 19.9033 23.1292 20.1125C21.9856 21.1143 20.8709 22.1455 20.0208 23.4268C19.654 23.9923 19.201 24.4953 18.6788 24.9172C18.09 25.3797 17.448 25.6052 16.7124 25.3339C16.5511 25.2735 16.5753 25.4059 16.5511 25.4663C16.2285 26.4207 15.9349 27.38 15.6575 28.3475C15.3641 29.461 14.9966 30.553 14.5574 31.616C14.4762 31.823 14.355 32.0113 14.2009 32.17C13.8783 32.4805 13.5363 32.3972 13.4218 31.9608C13.2804 31.4104 13.3166 30.8286 13.525 30.3004C13.5476 30.2383 13.575 30.1779 13.5976 30.1174C13.5976 30.1174 13.5976 30.1043 13.5766 30.0815C13.254 30.1991 13.2072 30.5194 13.0653 30.7695C12.9225 30.1571 12.9286 29.5187 13.0832 28.9092C13.2377 28.2997 13.536 27.7374 13.9525 27.2705L14.0008 27.2297L14.0847 27.1823C14.0444 27.1643 14.0057 27.1578 13.9783 27.2068L13.9202 27.2264C13.5056 27.4094 13.5072 27.4094 13.496 26.9486C13.4621 24.9597 14.2912 23.4039 15.8156 22.1945C16.0692 21.9853 16.3389 21.7967 16.6221 21.6307C16.6609 22.1775 16.6609 22.7264 16.6221 23.2731C16.6221 23.332 16.6221 23.4104 16.5511 23.448C16.0978 23.6637 16.0172 24.1017 15.9381 24.5332C15.9037 24.7616 15.9081 24.9943 15.951 25.2212C16.0204 25.2212 16.0027 25.1607 16.0123 25.1264C16.074 24.8276 16.2072 24.5486 16.4001 24.3141C16.5931 24.0796 16.8399 23.8967 17.1189 23.7814C17.1851 23.752 17.2238 23.7324 17.2189 23.6425C17.1334 22.0458 17.9722 20.977 19.2224 20.1942C20.145 19.6157 21.1952 19.3918 22.2711 19.2905C22.7892 19.2455 23.3094 19.2291 23.8293 19.2414C23.7535 18.7904 23.1066 18.5469 22.0388 18.5632C22.6388 18.001 26.3199 17.501 28.2959 17.7183C27.9362 17.2166 27.3877 17.13 26.8619 16.9911C27.4006 16.9518 27.9378 16.9469 28.4749 16.8881C28.7087 16.8701 28.9414 16.8391 29.1718 16.795C29.8928 16.6315 30.5961 16.7868 31.3027 16.9028C32.1153 17.0586 32.9073 17.3098 33.6626 17.6513C33.7497 17.6873 33.8723 17.8033 33.9497 17.6807C34.0271 17.5582 33.9336 17.4307 33.8384 17.331C33.2109 16.6773 32.527 16.1053 31.6898 15.7458C31.6442 15.7248 31.6 15.7007 31.5575 15.6739C31.5462 15.6739 31.5414 15.6526 31.5317 15.6395C33.6287 15.7507 35.716 15.8961 37.7824 16.2655C38.2663 16.3521 38.7502 16.4746 39.2454 16.5531C39.3263 16.5618 39.4027 16.5948 39.4648 16.6479C40.0171 17.1354 40.5943 17.593 41.194 18.019C41.2231 18.0403 41.2569 18.055 41.2731 18.1024C40.4875 18.1024 39.731 17.8883 38.9502 17.9553C39.2729 18.0272 39.5955 18.1056 39.9181 18.171C40.4091 18.2623 40.8939 18.3845 41.3699 18.5371C41.9206 18.7336 42.4525 18.9809 42.9587 19.2758C44.1718 19.9556 45.4445 20.5014 46.693 21.1061C46.7598 21.1355 46.8188 21.1804 46.8653 21.2372C46.9119 21.294 46.9445 21.361 46.9608 21.433C47.2285 22.3187 47.4576 23.2159 47.7673 24.0903C47.776 24.1263 47.7819 24.1629 47.785 24.1998C47.4479 24.1704 47.1205 24.1491 46.793 24.1148C45.5493 23.9857 45.7493 24.1066 44.9009 23.5559C43.8733 22.8891 42.8119 22.2648 41.7441 21.6618C41.6779 21.6192 41.6026 21.5935 41.5244 21.587C41.4463 21.5804 41.3678 21.5932 41.2956 21.6242C40.4504 21.951 39.5584 22.0998 38.6954 22.3612C38.2115 22.51 37.7114 22.6472 37.2194 22.791C37.1431 22.7976 37.0714 22.8305 37.0162 22.8842C37.4275 22.9136 37.7969 22.7486 38.1776 22.6685C39.1841 22.456 40.1891 22.2452 41.2005 22.054C41.2469 22.0474 41.2942 22.0512 41.339 22.065C41.3839 22.0788 41.4252 22.1024 41.4602 22.1341C42.2941 22.724 43.1104 23.3418 43.9734 23.8893C44.2508 24.0658 44.5347 24.2325 44.8186 24.4057C44.7718 24.4939 44.6847 24.4988 44.6154 24.5283C44.1384 24.6983 43.6752 24.9054 43.2297 25.1476C43.1795 25.1726 43.1243 25.1856 43.0684 25.1856C43.0125 25.1856 42.9573 25.1726 42.9071 25.1476C42.5297 25.0332 42.1812 24.8371 41.7328 24.7293C42.078 24.9924 42.3667 25.2195 42.67 25.4385C42.7797 25.5153 42.8071 25.5546 42.72 25.6722C42.4764 25.9991 42.2554 26.3259 41.9893 26.6348L41.3311 27.3637L41.3892 27.416C41.6126 27.2366 41.8199 27.0375 42.0086 26.8211L42.5329 26.3308C42.5728 26.3188 42.6096 26.2979 42.6406 26.2696C42.6716 26.2413 42.6959 26.2064 42.7119 26.1674L42.8861 26.022C42.9555 26.0056 43.0039 25.9713 43.0087 25.8929C43.053 25.8236 43.1198 25.7722 43.1975 25.7474C43.9637 25.4729 44.7202 25.1722 45.4558 24.8322C45.8203 24.6688 46.1655 24.7423 46.5236 24.793C46.922 24.8486 47.3189 24.9058 47.7189 24.9564C47.7723 24.9567 47.8245 24.9721 47.8695 25.001C47.9146 25.0299 47.9507 25.0711 47.9738 25.1199C48.5835 26.3374 49.2642 27.5173 49.9272 28.7038C49.9649 28.7563 49.9862 28.8191 49.9885 28.884C49.9908 28.9489 49.9739 29.013 49.9401 29.0682C49.7335 29.4522 49.5535 29.8503 49.4013 30.2596C49.3872 30.3123 49.356 30.3588 49.3127 30.3914C49.2694 30.424 49.2165 30.4409 49.1626 30.4394C48.156 30.5276 47.1479 30.6142 46.151 30.7875C45.8752 30.8365 45.7074 30.6861 45.5348 30.5309C45.0589 30.1027 44.6363 29.6157 44.1508 29.1957C44.0782 29.132 44.0185 29.0633 43.904 29.0878C43.4039 29.2022 42.8942 29.2676 42.4022 29.4147C42.3655 29.4343 42.3299 29.4562 42.2958 29.48C42.6059 29.48 42.9157 29.4598 43.2233 29.4196C43.6491 29.3362 43.9427 29.4899 44.2218 29.8053C44.6799 30.325 45.1493 30.8348 45.5816 31.3774C45.6426 31.4518 45.7164 31.5144 45.7993 31.5621C46.6736 32.0752 47.5302 32.6195 48.448 33.0525C48.4935 33.0655 48.532 33.0961 48.5553 33.1378C48.5785 33.1794 48.5846 33.2286 48.5722 33.2748C48.0593 36.674 49.2852 39.4539 51.5516 41.8628C52.0267 42.3685 52.5461 42.8296 53.1033 43.2405C53.1273 43.2522 53.1487 43.2687 53.1661 43.2892C53.1835 43.3096 53.1965 43.3335 53.2044 43.3592C53.2122 43.385 53.2148 43.4121 53.2118 43.4389C53.2089 43.4657 53.2005 43.4916 53.1872 43.515C53.0953 43.7634 53.0259 44.0216 52.9533 44.2766C52.9366 44.3568 52.8968 44.4302 52.8388 44.4874C52.0177 45.2392 51.3757 46.1462 50.7144 47.0336C50.3208 47.5598 49.9288 48.0877 49.5449 48.6221C49.515 48.6628 49.4773 48.6969 49.4341 48.7225C49.3908 48.7481 49.3429 48.7645 49.2933 48.7708C48.0301 49.0043 46.7808 49.3088 45.5509 49.6827C45.3138 49.7595 45.4267 49.5699 45.4332 49.5193C45.5058 48.9538 45.6477 48.4031 45.7558 47.8474C45.801 47.6301 45.851 47.4127 45.8929 47.1937C46.0204 46.5048 46.3172 45.8596 46.7559 45.3176C47.6947 44.1736 47.906 42.8009 47.8238 41.3954C47.6802 38.9898 46.3833 37.3408 44.2895 36.2916C44.1689 36.2139 44.0306 36.1689 43.8879 36.1609C43.9443 36.2933 44.0637 36.3243 44.1524 36.3995C45.0488 37.0762 45.8029 37.9274 46.3704 38.9032C46.6575 39.4163 46.9059 39.9573 46.8237 40.5652C46.7446 41.0503 46.5678 41.5137 46.3042 41.9265C45.9074 42.5802 45.3445 43.1032 44.8654 43.6932C44.3545 44.2919 43.981 44.998 43.7717 45.7605C43.6223 46.381 43.4149 46.9857 43.1523 47.5663C42.89 48.0837 42.5115 48.5315 42.0473 48.8737C41.8022 49.0682 41.4731 49.0192 41.1747 49.011C40.9625 49.0034 40.752 48.9711 40.5472 48.9146C40.1423 48.8067 39.7197 48.7937 39.3229 48.6531C39.3245 48.6874 39.3277 48.7185 39.3293 48.7512ZM48.9755 31.4885C48.8932 31.7484 48.8287 32.0148 48.7642 32.2795C48.74 32.3808 48.7061 32.4201 48.6029 32.3678C47.9996 32.0671 47.3947 31.7729 46.7898 31.4738C46.7543 31.4559 46.7059 31.4444 46.7043 31.3938C47.4173 31.3692 48.1319 31.3464 48.8448 31.3186C48.9787 31.312 49.0255 31.3349 48.9755 31.4885ZM48.3303 52.0491C48.3046 52.0803 48.2697 52.1022 48.2308 52.1117C48.1918 52.1211 48.1509 52.1175 48.1141 52.1014C47.1541 51.8528 46.2501 51.4201 45.4509 50.8267C45.2896 50.6943 45.3396 50.5358 45.3412 50.3838C45.3428 50.2318 45.48 50.2727 45.5638 50.2547C46.7301 50.0096 47.877 49.6811 49.0352 49.4016C49.1965 49.3624 49.282 49.3673 49.2513 49.565C49.2436 49.6738 49.2436 49.7831 49.2513 49.8919H49.2433C49.2642 50.2482 49.282 50.6028 49.3046 50.9574C49.3106 51.0039 49.3047 51.0512 49.2875 51.0947C49.2702 51.1382 49.2422 51.1765 49.2062 51.2058C48.8913 51.4632 48.5968 51.7451 48.3254 52.0491H48.3303ZM48.8142 52.2518C49.0497 52.0491 49.2481 51.8742 49.4497 51.7043C49.4981 51.6634 49.5288 51.7043 49.5433 51.75C49.6062 51.951 49.6691 52.1521 49.7369 52.3727C49.4228 52.3581 49.1105 52.3177 48.8029 52.2518H48.8142ZM53.7937 51.5278C53.0235 52.0212 52.1457 52.3158 51.237 52.3858C51.0047 52.407 50.7692 52.4086 50.5353 52.4217C50.4888 52.4305 50.4407 52.4205 50.4013 52.394C50.3618 52.3674 50.3341 52.3264 50.324 52.2795C50.195 51.902 50.0337 51.5343 49.9272 51.1503C49.8914 50.9382 49.88 50.7227 49.8933 50.508C49.8804 50.1452 49.874 49.7808 49.8514 49.418C49.8512 49.3667 49.8612 49.316 49.8809 49.2688C49.9006 49.2216 49.9295 49.179 49.9659 49.1434C50.8305 48.0386 51.7516 46.9813 52.6501 45.9043C52.8114 45.7196 52.9517 45.5333 53.134 45.3192C53.134 45.6461 53.1437 45.9337 53.134 46.2181C53.1044 47.0317 53.0344 47.8433 52.9243 48.6499C52.8914 48.7854 52.8415 48.9161 52.7759 49.0388C52.5484 49.5994 52.3323 50.1632 52.1113 50.727C52.0195 50.8455 51.969 50.9915 51.9677 51.1421C52.0638 51.0585 52.1358 50.9501 52.1758 50.8283C52.4726 50.3854 52.7452 49.9278 53.0275 49.4392C53.2372 49.8919 53.426 50.307 53.6211 50.7205C53.6968 50.8975 53.7847 51.069 53.8841 51.2336C53.9583 51.3807 53.9083 51.4444 53.7824 51.5278H53.7937ZM53.8389 49.1777C53.7951 49.0518 53.7862 48.9162 53.8131 48.7855C53.8647 48.0991 53.9196 47.4127 53.9744 46.7263C54.018 46.1282 54.0421 45.5268 54.1115 44.9287C54.165 44.661 54.2427 44.399 54.3438 44.1458C54.3712 44.0609 54.4228 44.0854 54.4793 44.1148C54.9043 44.3475 55.3555 44.5274 55.823 44.6508C55.9843 44.6884 55.9278 44.8061 55.9165 44.9009C55.8278 45.7425 55.6972 46.576 55.5294 47.4046C55.309 48.4687 55.0009 49.5123 54.6083 50.5243C54.5906 50.5717 54.5825 50.6257 54.5212 50.6584C54.3115 50.1517 54.0599 49.6696 53.8276 49.1777H53.8389ZM61.6833 40.3299C61.0832 41.4738 60.2654 42.3988 59.1024 42.9725C58.8272 43.1078 58.5384 43.2125 58.241 43.2846C58.1849 43.2892 58.1328 43.3156 58.0955 43.3582C58.0582 43.4009 58.0387 43.4565 58.041 43.5134C57.9684 44.1671 57.9893 44.8208 57.9474 45.4745C57.7022 49.266 56.7618 52.8499 54.8568 56.1446C53.4501 58.5796 51.6919 60.709 49.4094 62.3547C47.2124 63.9432 44.7815 64.878 42.0667 65.0087C40.131 65.1019 38.2631 64.7228 36.4403 64.0887C35.753 63.8532 35.0798 63.5776 34.424 63.2634C34.3653 63.2455 34.3153 63.2061 34.2837 63.1529C34.2521 63.0998 34.2412 63.0366 34.253 62.9757C34.2655 62.8274 34.3083 62.6833 34.3785 62.5525C34.4488 62.4217 34.545 62.3071 34.6611 62.2158C35.0819 61.8733 35.5968 61.6707 36.1354 61.6356C37.711 61.4751 39.2916 61.8882 40.594 62.8009C40.9679 63.0523 41.2892 63.3761 41.5392 63.7536C41.5667 63.8006 41.6063 63.8391 41.6538 63.8651C41.7012 63.891 41.7548 63.9033 41.8086 63.9007C42.7889 63.9421 43.7693 63.8229 44.7121 63.5477C47.1317 62.8515 49.1029 61.4461 50.7821 59.583C52.3516 57.8393 53.4631 55.8046 54.3696 53.6507C55.2867 51.4388 55.9361 49.1225 56.3037 46.7525C56.4919 45.7321 56.6072 44.6993 56.6489 43.6621C56.6631 43.5863 56.6472 43.5079 56.6046 43.4439C56.562 43.3799 56.4961 43.3356 56.4214 43.3206C55.1329 42.8028 54.0072 41.9403 53.1646 40.825C51.8209 39.1074 50.9563 37.1561 50.7966 34.976C50.5563 31.6814 51.3822 28.6956 53.7002 26.2491C53.9229 26.0115 54.1815 25.8112 54.4664 25.6559C54.5406 25.615 54.61 25.5513 54.7067 25.5709C54.7422 25.6559 54.6535 25.6722 54.618 25.7082C53.3501 26.9535 52.6243 28.4864 52.242 30.2138C52.0349 31.1185 51.9653 32.0498 52.0355 32.9757C52.1487 34.5289 52.796 35.9926 53.8647 37.112C53.8744 37.1218 53.8905 37.1235 53.9034 37.13C53.9276 37.0744 53.9034 37.0287 53.8776 36.9813C53.4076 35.8602 53.1556 34.6577 53.1356 33.4398C53.0652 32.1043 53.2701 30.7685 53.7373 29.5176C54.3825 27.7545 55.5891 26.2594 57.1667 25.2686C57.4619 25.0839 57.7393 25.1051 58.041 25.1885C58.041 25.2163 58.041 25.2359 58.041 25.2441C56.6521 26.5384 55.894 28.1857 55.4423 30.0046C54.9487 31.9935 54.9132 33.9841 55.5342 35.955C56.0053 37.4519 56.7989 38.725 58.1152 39.6059C58.6113 39.9532 59.1746 40.1898 59.7677 40.3C60.3609 40.4101 60.9704 40.3914 61.5558 40.2449C61.5958 40.2362 61.6362 40.2297 61.6768 40.2253C61.7123 40.2694 61.6881 40.3004 61.672 40.3299H61.6833ZM64.0126 34.3044C63.9013 35.3797 63.7399 36.4289 63.3334 37.4438C63.2083 37.7447 63.0594 38.0349 62.8882 38.3116C62.7728 38.5068 62.6122 38.6706 62.4202 38.7887C62.2282 38.9069 62.0107 38.9759 61.7865 38.9898C60.6574 39.1042 59.6782 38.7234 58.8475 37.9569C57.8474 37.0352 57.2715 35.8569 56.9812 34.543C56.3279 31.6013 56.8521 28.8231 58.3152 26.223C58.411 26.0683 58.4488 25.8838 58.4216 25.7033C58.0987 23.1221 57.4047 20.6026 56.3617 18.2249C54.8664 14.8731 52.6017 12.2011 49.4901 10.2972C47.9045 9.33311 46.1844 8.61687 44.3879 8.17263C42.8603 7.78695 41.3392 7.38819 39.7826 7.14632C39.7487 7.13605 39.7153 7.12405 39.6826 7.11037L40.4633 6.45667C40.6988 6.25892 40.7037 6.19519 40.4827 5.98763C40.3536 5.8667 40.2181 5.75557 40.052 5.61012C40.3923 5.54802 40.7101 5.49736 41.0198 5.42872C42.0957 5.19502 43.0845 5.54965 44.0734 5.89121C45.8159 6.49845 47.484 7.30615 49.0448 8.29847C50.3579 9.12704 51.6258 9.99319 52.7356 11.0865C54.2207 12.538 55.4726 14.2159 56.4456 16.0595C57.5188 18.1328 58.3131 20.3423 58.8072 22.6293C59.2079 24.5382 59.4571 26.4767 59.5524 28.426C59.6089 29.2986 59.7266 30.1664 59.775 31.0408C59.775 31.0963 59.7669 31.1633 59.8557 31.214C59.9174 31.063 59.9449 30.9 59.9363 30.7368C60.0137 29.7906 60.0847 28.846 60.0799 27.8948C60.0686 26.0399 59.7895 24.2226 59.4121 22.4103C59.147 20.9987 58.7952 19.6052 58.3587 18.238C57.9026 16.9707 57.2976 15.7636 56.5569 14.6426C55.8246 13.4872 55.0858 12.3351 54.2438 11.2565C53.4808 10.2759 52.492 9.55521 51.5016 8.85085C49.7311 7.61015 47.8392 6.55758 45.8558 5.70981C44.9239 5.31264 43.9694 4.97211 42.9974 4.69004C42.8624 4.6574 42.7383 4.58918 42.6377 4.49229C42.0377 3.88271 41.4328 3.27804 40.8295 2.67173C40.8053 2.64558 40.7827 2.6178 40.7504 2.58021C41.3828 2.40371 42.0022 2.23212 42.6184 2.05562C42.7334 2.03281 42.8521 2.03728 42.9652 2.06869C46.1542 2.62107 49.2078 3.56077 52.0516 5.17378C54.5874 6.61192 56.4989 8.64493 57.978 11.147C59.4572 13.649 60.4299 16.3766 61.1155 19.2169C61.6666 21.5035 62.018 23.8348 62.1656 26.1838C62.1665 26.2951 62.2059 26.4027 62.2769 26.4877C63.0189 27.3359 63.406 28.3606 63.6948 29.4294C64.0926 31.0214 64.1965 32.6741 64.0013 34.3044H64.0126Z" fill="#040404"/>
</svg>
