<svg width="18" height="18" viewBox="0 0 18 18" fill="none" xmlns="http://www.w3.org/2000/svg">
<path fill-rule="evenodd" clip-rule="evenodd" d="M12.071 5.00041C12.4615 5.39094 12.4615 6.0241 12.071 6.41463L6.41414 12.0715C6.02361 12.462 5.39045 12.462 4.99992 12.0715C4.6094 11.681 4.6094 11.0478 4.99992 10.6573L10.6568 5.00041C11.0473 4.60989 11.6805 4.60989 12.071 5.00041Z" fill="url(#paint0_linear_180_31)"/>
<path fill-rule="evenodd" clip-rule="evenodd" d="M4.29289 7.12151C4.68342 7.51203 4.68342 8.1452 4.29289 8.53572L2.87868 9.94993C1.70711 11.1215 1.70711 13.021 2.87868 14.1926C4.05025 15.3641 5.94975 15.3641 7.12132 14.1926L8.53553 12.7784C8.92606 12.3878 9.55922 12.3878 9.94975 12.7784C10.3403 13.1689 10.3403 13.8021 9.94975 14.1926L8.53553 15.6068C6.58291 17.5594 3.41709 17.5594 1.46447 15.6068C-0.488155 13.6542 -0.488155 10.4883 1.46447 8.53572L2.87868 7.12151C3.2692 6.73098 3.90237 6.73098 4.29289 7.12151Z" fill="url(#paint1_linear_180_31)"/>
<path fill-rule="evenodd" clip-rule="evenodd" d="M14.1921 2.87868C13.0205 1.70711 11.121 1.70711 9.94945 2.87868L8.53523 4.29289C8.14471 4.68342 7.51154 4.68342 7.12102 4.29289C6.73049 3.90237 6.73049 3.2692 7.12102 2.87868L8.53523 1.46447C10.4879 -0.488155 13.6537 -0.488155 15.6063 1.46447C17.5589 3.41709 17.5589 6.58291 15.6063 8.53553L14.1921 9.94975C13.8016 10.3403 13.1684 10.3403 12.7779 9.94975C12.3873 9.55922 12.3873 8.92606 12.7779 8.53553L14.1921 7.12132C15.3637 5.94975 15.3637 4.05025 14.1921 2.87868Z" fill="url(#paint2_linear_180_31)"/>
<defs>
<linearGradient id="paint0_linear_180_31" x1="8.53546" y1="5.4732" x2="8.53546" y2="12.3644" gradientUnits="userSpaceOnUse">
<stop stop-color="#41DD55"/>
<stop offset="1" stop-color="#41AA38"/>
</linearGradient>
<linearGradient id="paint1_linear_180_31" x1="5.12132" y1="7.85288" x2="5.12132" y2="17.0713" gradientUnits="userSpaceOnUse">
<stop stop-color="#41DD55"/>
<stop offset="1" stop-color="#41AA38"/>
</linearGradient>
<linearGradient id="paint2_linear_180_31" x1="11.9494" y1="1.02426" x2="11.9494" y2="10.2426" gradientUnits="userSpaceOnUse">
<stop stop-color="#41DD55"/>
<stop offset="1" stop-color="#41AA38"/>
</linearGradient>
</defs>
</svg>
