<svg width="23" height="23" viewBox="0 0 23 23" fill="none" xmlns="http://www.w3.org/2000/svg">
<path d="M7.87169 16.6645C7.73835 17.0104 7.61354 17.3003 7.5186 17.5993C7.48447 17.7059 7.48073 17.8578 7.53247 17.9505C7.96057 18.7393 8.49027 19.4685 9.10803 20.1197C9.47179 20.496 9.93528 20.5797 10.403 20.6746C10.6948 20.7337 10.9924 20.7636 11.2975 20.8408C10.2185 20.9688 9.1859 21.2017 8.37465 22.0491C10.7396 22.7366 13.0923 22.6753 15.4588 21.9452C14.6588 21.0333 13.6102 20.8307 12.4837 20.7854C12.5323 20.7675 12.5818 20.752 12.632 20.739C12.8149 20.7028 12.9984 20.6714 13.1813 20.6357C13.8358 20.5061 14.4001 20.254 14.7814 19.655C15.1441 19.0874 15.5618 18.5549 15.9548 18.0076C16.0073 17.942 16.0407 17.8633 16.0515 17.78C16.0623 17.6968 16.0501 17.6121 16.0162 17.5353C15.8579 17.1335 15.7281 16.721 15.6279 16.301C15.6914 16.3468 15.7564 16.3905 15.8178 16.439C16.9261 17.3126 16.5527 17.1772 17.7832 16.8824C18.2633 16.7673 18.7251 16.5627 19.203 16.4273C19.9156 16.2253 20.3604 15.7344 20.6965 15.1135C20.7592 14.9809 20.8405 14.858 20.9381 14.7484C20.8885 15.0336 20.8346 15.3176 20.7914 15.6012C20.745 15.9076 20.6671 16.2178 20.6789 16.5232C20.6901 16.8132 20.7994 17.0994 20.865 17.3872L20.993 17.4037C21.2986 16.8611 21.6245 16.3287 21.904 15.7728C22.1835 15.2169 22.4187 14.636 22.6977 14.0774C22.3424 15.7505 21.596 17.3159 20.5194 18.6455C18.7321 20.8776 16.4279 22.2783 13.6187 22.8022C7.87436 23.8708 2.29055 20.5195 0.533641 14.9232C-1.14273 9.58495 1.35129 4.44708 4.93924 2.13184C4.12159 2.88653 3.28581 3.62417 2.66337 4.61763C3.06926 4.68692 3.43142 4.7578 3.79624 4.80417C3.87678 4.8143 3.97918 4.75087 4.05386 4.69758C4.48642 4.38898 4.91364 4.07186 5.3766 3.78406C5.311 3.86614 5.25126 3.95408 5.17872 4.02976C4.17493 5.07759 4.02025 6.36525 4.14986 7.72434C4.22667 8.53499 4.24213 8.5334 5.19686 9.19908C4.83044 9.222 4.47575 9.24652 4.12053 9.2641C3.86824 9.2769 3.69383 9.39202 3.56689 9.61214C3.2122 10.2267 2.82018 10.822 2.49323 11.4504C2.17321 12.0644 2.21961 12.7418 2.27988 13.409C2.30058 13.5412 2.30808 13.6751 2.30228 13.8088C1.85106 12.8388 1.44036 11.8432 0.283493 11.4418C0.336829 13.8338 1.06167 16.0036 2.48416 18.0198C2.67671 17.4639 3.04046 17.0359 2.95192 16.4646C2.87245 15.9519 2.79191 15.4391 2.71831 14.9787L3.55089 16.1725C3.68376 16.3621 3.88275 16.4952 4.10879 16.5456C4.82937 16.7364 5.54888 16.9368 6.26092 17.1559C6.82469 17.3296 7.28925 17.1655 7.71435 16.8041C7.75328 16.7716 7.79115 16.7353 7.87169 16.6645Z" fill="#35BD46"/>
<path d="M6.32594 9.4336C6.75903 9.4336 7.19266 9.45279 7.62309 9.42401C7.80342 9.40175 7.97422 9.3306 8.11698 9.21828C9.08984 8.49095 10.0565 7.75491 11.0169 7.01017C11.1292 6.93075 11.2177 6.82221 11.2729 6.69624C11.411 6.29598 11.5199 5.88559 11.6463 5.45761C11.6705 5.50528 11.6917 5.55441 11.7097 5.60471C11.7631 5.78273 11.8132 5.96234 11.8633 6.14142C11.9994 6.62962 12.2799 6.98991 12.7066 7.28358C13.5104 7.83734 14.2912 8.42575 15.0593 9.02908C15.4806 9.35952 15.9372 9.42081 16.437 9.36112C16.5777 9.33468 16.7217 9.3309 16.8636 9.34993C16.6279 9.52474 16.3948 9.70222 16.1559 9.87277C15.9959 9.98843 15.9271 10.1334 15.8999 10.3375C15.7318 11.5938 15.4081 12.802 14.8075 13.933C14.7094 14.1179 14.7462 14.3988 14.7825 14.6258C14.8251 14.8923 14.9355 15.146 15.0358 15.4685C14.8758 15.3235 14.759 15.2126 14.6363 15.1103C14.3318 14.8577 14.0208 14.7292 13.5904 14.8284C12.3042 15.1208 10.9717 15.1469 9.67494 14.9051C9.56557 14.8934 9.45589 14.9243 9.36879 14.9915C9.13731 15.1839 8.92663 15.4008 8.70795 15.6076C8.64064 15.6821 8.55351 15.7359 8.45674 15.7627C8.4706 15.6993 8.4802 15.6342 8.49994 15.5724C8.55008 15.4125 8.60661 15.2526 8.65995 15.0927C8.83184 14.5933 8.80918 14.0476 8.59648 13.5642C8.20179 12.6011 7.94364 11.581 7.65242 10.5795C7.58575 10.3514 7.50788 10.1739 7.29187 10.063C7.03958 9.93353 6.7953 9.78803 6.54515 9.65052C6.46461 9.60629 6.38194 9.56631 6.2998 9.52421L6.32594 9.4336Z" fill="#35BD46"/>
<path d="M17.7871 3.39441C18.2325 3.66783 18.6517 3.89967 19.0427 4.17309C19.448 4.4561 19.8683 4.56802 20.343 4.41292C20.4987 4.35963 20.5873 4.42039 20.6769 4.53924C22.0519 6.35988 22.8146 8.41024 22.9965 10.6812C23.0104 10.8555 22.9832 10.9744 22.8093 11.0687C22.3763 11.3059 22.0391 11.6858 21.8551 12.1437C21.6599 12.6053 21.4625 13.0652 21.2257 13.5236C21.2257 13.0844 21.2497 12.6431 21.2204 12.2055C21.1612 11.3229 20.6545 10.6349 20.1777 9.93827C20.1126 9.8434 20.0267 9.76186 19.967 9.66379C19.5648 9.00237 18.929 8.93148 18.2458 8.97785C18.1573 8.98372 18.0693 8.99757 17.9791 9.0045C17.9326 8.99928 17.8866 8.99037 17.8415 8.97785C17.9031 8.92326 17.9675 8.87202 18.0346 8.82436C18.3285 8.64048 18.6282 8.46673 18.9157 8.27433C18.9845 8.22849 19.0608 8.12563 19.0581 8.05154C19.0192 7.11297 18.992 6.17227 18.9088 5.23744C18.8512 4.59787 18.4314 4.12512 18.0021 3.67689C17.9349 3.60707 17.866 3.53885 17.7983 3.46903C17.7972 3.46423 17.7983 3.45304 17.7871 3.39441Z" fill="#35BD46"/>
<path d="M16.8315 2.76608C16.2699 2.5918 15.7589 2.42338 15.2405 2.27895C15.0959 2.2418 14.9441 2.24364 14.8004 2.28428C14.0847 2.4916 13.378 2.72931 12.6606 2.93024C12.2984 3.03151 12.0835 3.26548 11.9384 3.58207C11.8253 3.82937 11.7378 4.08893 11.6296 4.36608C11.5983 4.32267 11.5715 4.27625 11.5496 4.2275C11.5181 4.1353 11.4989 4.03936 11.4717 3.94609C11.3117 3.40246 11.0365 3.01605 10.4108 2.91638C9.80867 2.81992 9.21876 2.6371 8.62886 2.47401C8.31193 2.38143 7.97405 2.38944 7.66187 2.49693C7.23518 2.6435 6.81382 2.80339 6.41699 2.94783C6.43886 2.92758 6.48953 2.87641 6.545 2.83164C6.70467 2.69049 6.87148 2.5576 7.04476 2.43351C7.6576 2.03005 8.04269 1.49494 8.06243 0.739714C8.06776 0.556904 8.1691 0.486551 8.33338 0.440716C10.5378 -0.16581 12.7336 -0.149821 14.9252 0.510535C15.1253 0.570761 15.2026 0.660834 15.2229 0.874557C15.3077 1.76409 15.3151 1.76303 16.0544 2.25123L16.8315 2.76608Z" fill="#35BD46"/>
</svg>
