<svg width="18" height="23" viewBox="0 0 18 23" fill="none" xmlns="http://www.w3.org/2000/svg">
<path d="M17.9998 18.9403C17.9972 14.991 17.9972 11.0411 17.9998 7.09071C17.9998 7.03591 17.9998 6.98111 17.9926 6.9263V3.5522C17.9936 3.36699 17.9804 3.18196 17.9531 2.99871C17.6857 1.30646 16.1999 0.0164403 14.4606 0.00876817C13.4041 0.00292272 12.3475 0 11.2906 0H9.86369C8.06197 0 6.26044 0.0018267 4.45909 0.0054801C3.95159 0.0054801 3.4302 -0.0208244 2.93771 0.0756254C1.53028 0.349631 0.603105 1.1974 0.152305 2.54167C0.0211226 2.93569 0 3.34286 0 3.74784C0 3.85306 0 3.95828 0 4.06295C0.00333515 8.01301 0.00333515 11.9631 0 15.9131C0 15.9679 0.00277929 16.0227 0.00778201 16.0775C0.00778201 17.201 0.00778201 18.3246 0.00778201 19.4483C0.00645872 19.6336 0.0196533 19.8186 0.0472479 20.0018C0.314615 21.6941 1.80042 22.9841 3.5397 22.9918C4.5962 22.9962 5.65233 22.9989 6.70809 23H8.13442C9.93614 23 11.7377 22.9982 13.539 22.9945C14.0471 22.9945 14.5679 23.0208 15.0604 22.9244C16.4684 22.6504 17.395 21.8026 17.8458 20.4583C17.9759 20.0687 17.9959 19.6681 17.9981 19.2648C18.0009 19.159 17.9998 19.0499 17.9998 18.9403ZM16.1982 19.2215C16.1982 19.627 16.1677 20.0227 15.9331 20.3789C15.5918 20.8962 15.1149 21.2064 14.4879 21.214C13.2066 21.2299 11.9248 21.2206 10.643 21.2206H7.69696H4.3985H3.69479C3.18117 21.2206 2.73037 21.0803 2.35684 20.7274C1.9833 20.3745 1.80098 19.9163 1.80098 19.4007V18.6872C1.80098 16.2814 1.80098 13.876 1.80098 11.471V3.54124C1.80098 3.51713 1.80098 3.49357 1.80098 3.47L1.81043 3.46123C1.83155 3.16914 1.8927 2.88637 2.06501 2.62497C2.40631 2.10765 2.88268 1.79747 3.51024 1.7898C4.79149 1.77391 6.0733 1.78323 7.35455 1.78323H10.3006C11.3993 1.78323 12.4988 1.78323 13.5991 1.78323H14.3028C14.8164 1.78323 15.2666 1.92297 15.6402 2.27644C16.0226 2.63812 16.196 3.08749 16.196 3.60317C16.196 3.84137 16.196 4.07884 16.196 4.31558C16.196 5.87047 16.196 7.42481 16.196 8.9786L16.1927 8.98682C16.1927 9.6079 16.1927 10.227 16.1927 10.844C16.1927 13.5158 16.1927 16.1871 16.1927 18.8581C16.1927 18.9425 16.1927 19.0269 16.1927 19.1113C16.1988 19.148 16.1988 19.1847 16.1982 19.2215Z" fill="#35BD46"/>
<path d="M14.23 14.7963C13.9821 13.9447 13.7453 13.0898 13.4796 12.2431C13.2078 11.3778 12.901 10.5223 12.4663 9.72223C12.3456 9.4988 12.2022 9.28802 12.0383 9.09312C11.7982 8.8087 11.5074 8.81363 11.2762 9.10572C11.1251 9.29198 10.9995 9.49705 10.9027 9.71566C10.6648 10.2719 10.458 10.8396 10.2301 11.4008C10.0372 11.8814 9.84098 12.3615 9.5197 12.7768C9.36406 12.9769 9.18618 13.1511 8.92326 13.2114C8.55362 13.2964 8.24678 13.1566 7.98887 12.9171C7.78042 12.7253 7.60477 12.499 7.41189 12.2902C7.219 12.0814 7.03446 11.8491 6.81601 11.6622C6.48749 11.3822 6.16676 11.4019 5.84659 11.6874C5.74383 11.7788 5.64779 11.8774 5.55921 11.9822C5.06839 12.5686 4.69819 13.2306 4.34188 13.9003C4.09842 14.3573 3.86996 14.8215 3.63594 15.2834C3.60431 15.3397 3.59344 15.405 3.6052 15.4683C3.61696 15.5315 3.65061 15.5888 3.70042 15.6303C3.87496 15.7997 4.09619 15.8413 4.3291 15.8413H13.7109C14.0944 15.8413 14.3651 15.5558 14.3273 15.1799C14.3064 15.0494 14.2739 14.921 14.23 14.7963Z" fill="#35BD46"/>
<path d="M6.28117 9.63456C6.51905 9.63732 6.75513 9.59356 6.97575 9.50583C7.19638 9.4181 7.39718 9.28814 7.56656 9.12345C7.73594 8.95875 7.87053 8.7626 7.96256 8.54632C8.05458 8.33005 8.10222 8.09793 8.10272 7.86339C8.11217 6.90657 7.31118 6.09716 6.34843 6.09003C5.30564 6.08181 4.51966 6.84026 4.51077 7.86339C4.50825 8.32944 4.69313 8.77749 5.02495 9.10945C5.35676 9.4414 5.80846 9.63022 6.28117 9.63456Z" fill="#35BD46"/>
</svg>
