<svg width="18" height="18" viewBox="0 0 18 18" fill="none" xmlns="http://www.w3.org/2000/svg">
<path fill-rule="evenodd" clip-rule="evenodd" d="M2 0C0.895431 0 0 0.895431 0 2V16C0 17.1046 0.895431 18 2 18H10H10.5858C11.1162 18 11.6249 17.7893 12 17.4142L17.4142 12C17.7893 11.6249 18 11.1162 18 10.5858V10V2C18 0.895431 17.1046 0 16 0H2ZM16 9V2H2V16H9V11C9 9.89543 9.89543 9 11 9H16ZM11 15.5858V11H15.5858L11 15.5858Z" fill="url(#paint0_linear_180_24)"/>
<defs>
<linearGradient id="paint0_linear_180_24" x1="9" y1="1.8" x2="9" y2="18" gradientUnits="userSpaceOnUse">
<stop stop-color="#41DD55"/>
<stop offset="1" stop-color="#41AA38"/>
</linearGradient>
</defs>
</svg>
