<svg width="276" height="301" viewBox="0 0 276 301" fill="none" xmlns="http://www.w3.org/2000/svg">
	<path d="M124.396 5.348H121.316V4.2H128.792V5.348H125.712V14H124.396V5.348ZM130.393 6.58H131.625V14H130.393V6.58ZM131.009 5.754C130.775 5.754 130.575 5.67 130.407 5.502C130.239 5.334 130.155 5.13333 130.155 4.9C130.155 4.66667 130.239 4.466 130.407 4.298C130.575 4.13 130.775 4.046 131.009 4.046C131.242 4.046 131.443 4.13 131.611 4.298C131.779 4.466 131.863 4.66667 131.863 4.9C131.863 5.13333 131.779 5.334 131.611 5.502C131.443 5.67 131.242 5.754 131.009 5.754ZM134.023 6.58H135.129V7.812C135.287 7.448 135.553 7.13533 135.927 6.874C136.3 6.61267 136.72 6.482 137.187 6.482C137.635 6.482 138.041 6.59867 138.405 6.832C138.778 7.06533 139.044 7.38733 139.203 7.798C139.436 7.39667 139.744 7.07933 140.127 6.846C140.509 6.60333 140.939 6.482 141.415 6.482C141.741 6.482 142.045 6.54267 142.325 6.664C142.605 6.78533 142.843 6.96733 143.039 7.21C143.244 7.44333 143.403 7.742 143.515 8.106C143.627 8.46067 143.683 8.876 143.683 9.352V14H142.437V9.422C142.437 8.78733 142.306 8.32067 142.045 8.022C141.793 7.72333 141.461 7.574 141.051 7.574C140.845 7.574 140.645 7.62067 140.449 7.714C140.262 7.80733 140.094 7.938 139.945 8.106C139.805 8.26467 139.688 8.456 139.595 8.68C139.511 8.904 139.469 9.15133 139.469 9.422V14H138.237V9.422C138.237 8.78733 138.106 8.32067 137.845 8.022C137.583 7.72333 137.247 7.574 136.837 7.574C136.631 7.574 136.435 7.62067 136.249 7.714C136.062 7.80733 135.894 7.938 135.745 8.106C135.605 8.26467 135.488 8.456 135.395 8.68C135.311 8.904 135.269 9.15133 135.269 9.422V14H134.023V6.58ZM148.372 14.098C147.924 14.098 147.513 14.028 147.14 13.888C146.776 13.7387 146.463 13.524 146.202 13.244C145.95 12.9547 145.749 12.6047 145.6 12.194C145.46 11.774 145.39 11.2933 145.39 10.752V9.688C145.39 8.64267 145.647 7.84933 146.16 7.308C146.683 6.75733 147.397 6.482 148.302 6.482C149.207 6.482 149.917 6.75733 150.43 7.308C150.953 7.84933 151.214 8.652 151.214 9.716V10.654H146.622C146.631 11.5033 146.79 12.1147 147.098 12.488C147.415 12.852 147.84 13.034 148.372 13.034C148.605 13.034 148.806 13.006 148.974 12.95C149.151 12.8847 149.296 12.8007 149.408 12.698C149.529 12.5953 149.623 12.4787 149.688 12.348C149.753 12.2173 149.8 12.082 149.828 11.942H151.074C150.925 12.67 150.621 13.2113 150.164 13.566C149.707 13.9207 149.109 14.098 148.372 14.098ZM148.316 7.546C147.784 7.546 147.369 7.70933 147.07 8.036C146.781 8.35333 146.631 8.89 146.622 9.646H150.052C150.033 8.89 149.875 8.35333 149.576 8.036C149.287 7.70933 148.867 7.546 148.316 7.546Z" fill="#636363" />
	<rect x="87" y="27.5" width="99" height="49" rx="5.5" fill="#1B1B1B" stroke="#323232" />
	<g filter="url(#filter0_d_180_327)">
		<path d="M117.01 60.14C116.303 60.14 115.676 60.0333 115.13 59.82C114.583 59.6067 114.123 59.2533 113.75 58.76C113.376 58.2667 113.09 57.62 112.89 56.82C112.703 56.02 112.61 55.0267 112.61 53.84V51.84C112.61 50.7467 112.703 49.82 112.89 49.06C113.09 48.2867 113.376 47.6667 113.75 47.2C114.123 46.7333 114.583 46.3933 115.13 46.18C115.676 45.9667 116.303 45.86 117.01 45.86C117.716 45.86 118.343 45.9667 118.89 46.18C119.436 46.3933 119.896 46.7333 120.27 47.2C120.643 47.6667 120.923 48.2867 121.11 49.06C121.31 49.82 121.41 50.7467 121.41 51.84V53.84C121.41 55.0267 121.31 56.02 121.11 56.82C120.923 57.62 120.643 58.2667 120.27 58.76C119.896 59.2533 119.436 59.6067 118.89 59.82C118.343 60.0333 117.716 60.14 117.01 60.14ZM117.01 58.5C117.41 58.5 117.763 58.4333 118.07 58.3C118.376 58.1667 118.636 57.9267 118.85 57.58C119.076 57.22 119.243 56.74 119.35 56.14C119.47 55.54 119.53 54.7733 119.53 53.84V51.84C119.53 50.9867 119.47 50.28 119.35 49.72C119.243 49.16 119.076 48.7133 118.85 48.38C118.636 48.0467 118.376 47.8133 118.07 47.68C117.763 47.5467 117.41 47.48 117.01 47.48C116.61 47.48 116.256 47.5467 115.95 47.68C115.643 47.8133 115.376 48.0467 115.15 48.38C114.936 48.7133 114.77 49.16 114.65 49.72C114.543 50.28 114.49 50.9867 114.49 51.84V53.84C114.49 54.7733 114.543 55.54 114.65 56.14C114.77 56.74 114.936 57.22 115.15 57.58C115.376 57.9267 115.643 58.1667 115.95 58.3C116.256 58.4333 116.61 58.5 117.01 58.5ZM124.326 58.36H127.686V48.06L124.346 50.48V48.42L127.686 46H129.566V58.36H132.326V60H124.326V58.36ZM136.502 60.14C136.102 60.14 135.762 60 135.482 59.72C135.202 59.44 135.062 59.1 135.062 58.7C135.062 58.2867 135.202 57.9467 135.482 57.68C135.762 57.4 136.102 57.26 136.502 57.26C136.902 57.26 137.242 57.4 137.522 57.68C137.802 57.9467 137.942 58.2867 137.942 58.7C137.942 59.1 137.802 59.44 137.522 59.72C137.242 60 136.902 60.14 136.502 60.14ZM136.502 52.14C136.102 52.14 135.762 52 135.482 51.72C135.202 51.44 135.062 51.1 135.062 50.7C135.062 50.2867 135.202 49.9467 135.482 49.68C135.762 49.4 136.102 49.26 136.502 49.26C136.902 49.26 137.242 49.4 137.522 49.68C137.802 49.9467 137.942 50.2867 137.942 50.7C137.942 51.1 137.802 51.44 137.522 51.72C137.242 52 136.902 52.14 136.502 52.14ZM140.638 58.5L145.738 52.94C146.298 52.3133 146.731 51.78 147.038 51.34C147.358 50.9 147.518 50.4267 147.518 49.92C147.518 49.1867 147.298 48.6 146.858 48.16C146.418 47.72 145.831 47.5 145.098 47.5C144.365 47.5 143.778 47.72 143.338 48.16C142.898 48.6 142.678 49.1867 142.678 49.92H140.838C140.838 49.36 140.945 48.8333 141.158 48.34C141.371 47.8467 141.665 47.42 142.038 47.06C142.425 46.6867 142.878 46.3933 143.398 46.18C143.918 45.9667 144.485 45.86 145.098 45.86C145.711 45.86 146.278 45.9667 146.798 46.18C147.318 46.3933 147.765 46.6867 148.138 47.06C148.525 47.42 148.825 47.8467 149.038 48.34C149.251 48.8333 149.358 49.36 149.358 49.92C149.358 50.28 149.291 50.6333 149.158 50.98C149.038 51.3267 148.871 51.6733 148.658 52.02C148.445 52.3533 148.191 52.6933 147.898 53.04C147.605 53.3733 147.298 53.72 146.978 54.08L142.998 58.36H149.358V60H140.638V58.5ZM158.334 47.64H151.734V46H160.254V47.4L155.754 60H153.774L158.334 47.64Z" fill="url(#paint0_linear_180_327)" />
	</g>
	<g filter="url(#filter1_d_180_327)">
		<path d="M21.4439 160.378C19.6799 160.378 18.1139 160.144 16.7459 159.676C15.4139 159.172 14.2619 158.524 13.2899 157.732C12.3539 156.94 11.6159 156.058 11.0759 155.086C10.5719 154.078 10.2479 153.052 10.1039 152.008H15.1799C15.2519 152.44 15.4319 152.89 15.7199 153.358C16.0079 153.826 16.4039 154.258 16.9079 154.654C17.4119 155.014 18.0419 155.32 18.7979 155.572C19.5539 155.824 20.4359 155.95 21.4439 155.95C23.3519 155.95 24.8819 155.284 26.0339 153.952C27.1859 152.584 27.7619 150.334 27.7619 147.202C27.7619 144.07 27.1859 141.838 26.0339 140.506C24.8819 139.174 23.3519 138.508 21.4439 138.508C20.0759 138.508 18.8879 138.868 17.8799 139.588C16.8719 140.272 16.0439 141.118 15.3959 142.126H10.9679V122.2H31.1639V126.628H15.9359V136.942C16.5479 136.114 17.4299 135.43 18.5819 134.89C19.7699 134.35 21.0299 134.08 22.3619 134.08C25.4939 134.08 28.0139 135.16 29.9219 137.32C31.8299 139.444 32.7839 142.738 32.7839 147.202C32.7839 151.738 31.7939 155.068 29.8139 157.192C27.8339 159.316 25.0439 160.378 21.4439 160.378ZM39.1454 155.95L52.9154 140.938C54.4274 139.246 55.5974 137.806 56.4254 136.618C57.2894 135.43 57.7214 134.152 57.7214 132.784C57.7214 130.804 57.1274 129.22 55.9394 128.032C54.7514 126.844 53.1674 126.25 51.1874 126.25C49.2074 126.25 47.6234 126.844 46.4354 128.032C45.2474 129.22 44.6534 130.804 44.6534 132.784H39.6854C39.6854 131.272 39.9734 129.85 40.5494 128.518C41.1254 127.186 41.9174 126.034 42.9254 125.062C43.9694 124.054 45.1934 123.262 46.5974 122.686C48.0014 122.11 49.5314 121.822 51.1874 121.822C52.8434 121.822 54.3734 122.11 55.7774 122.686C57.1814 123.262 58.3874 124.054 59.3954 125.062C60.4394 126.034 61.2494 127.186 61.8254 128.518C62.4014 129.85 62.6894 131.272 62.6894 132.784C62.6894 133.756 62.5094 134.71 62.1494 135.646C61.8254 136.582 61.3754 137.518 60.7994 138.454C60.2234 139.354 59.5394 140.272 58.7474 141.208C57.9554 142.108 57.1274 143.044 56.2634 144.016L45.5174 155.572H62.6894V160H39.1454V155.95ZM84.9268 151.414H67.6468V147.634L84.1708 122.2H89.8948V146.986H93.5668V151.414H89.8948V160H84.9268V151.414ZM84.9268 146.986V129.058L73.2088 146.986H84.9268ZM110.296 160.378C106.696 160.378 103.888 159.37 101.872 157.354C99.8563 155.338 98.8483 152.53 98.8483 148.93V135.7C98.8483 130.876 99.8563 127.366 101.872 125.17C103.888 122.938 106.696 121.822 110.296 121.822C113.104 121.822 115.426 122.452 117.262 123.712C119.098 124.972 120.322 127.078 120.934 130.03H115.804C115.408 128.554 114.724 127.546 113.752 127.006C112.78 126.466 111.628 126.196 110.296 126.196C109.252 126.196 108.316 126.34 107.488 126.628C106.696 126.916 105.994 127.42 105.382 128.14C104.806 128.86 104.356 129.814 104.032 131.002C103.744 132.19 103.6 133.666 103.6 135.43V138.454C104.428 137.482 105.454 136.726 106.678 136.186C107.938 135.61 109.414 135.322 111.106 135.322C112.654 135.322 114.076 135.592 115.372 136.132C116.668 136.636 117.784 137.374 118.72 138.346C119.692 139.318 120.43 140.488 120.934 141.856C121.474 143.224 121.744 144.736 121.744 146.392V149.308C121.744 151 121.474 152.53 120.934 153.898C120.394 155.23 119.62 156.382 118.612 157.354C117.64 158.326 116.452 159.082 115.048 159.622C113.644 160.126 112.06 160.378 110.296 160.378ZM110.296 155.95C112.24 155.95 113.788 155.374 114.94 154.222C116.092 153.034 116.668 151.396 116.668 149.308V146.392C116.668 144.268 116.092 142.63 114.94 141.478C113.788 140.29 112.24 139.696 110.296 139.696C108.352 139.696 106.804 140.29 105.652 141.478C104.5 142.63 103.924 144.25 103.924 146.338V149.308C103.924 151.36 104.5 152.98 105.652 154.168C106.804 155.356 108.352 155.95 110.296 155.95ZM151.488 160.27C148.14 159.91 145.602 158.794 143.874 156.922C142.182 155.014 141.246 152.71 141.066 150.01H146.142C146.322 151.558 146.826 152.854 147.654 153.898C148.482 154.942 149.796 155.608 151.596 155.896V142.396C150.228 141.928 148.968 141.406 147.816 140.83C146.664 140.218 145.656 139.498 144.792 138.67C143.964 137.806 143.298 136.816 142.794 135.7C142.326 134.548 142.092 133.18 142.092 131.596C142.092 130.372 142.29 129.22 142.686 128.14C143.118 127.024 143.73 126.052 144.522 125.224C145.35 124.36 146.34 123.64 147.492 123.064C148.68 122.488 150.012 122.11 151.488 121.93V116.8H155.484V121.93C158.508 122.326 160.794 123.424 162.342 125.224C163.926 126.988 164.808 129.166 164.988 131.758H160.074C159.858 130.39 159.39 129.238 158.67 128.302C157.986 127.33 156.888 126.7 155.376 126.412V138.724C157.032 139.264 158.508 139.858 159.804 140.506C161.136 141.154 162.252 141.928 163.152 142.828C164.052 143.692 164.736 144.718 165.204 145.906C165.672 147.094 165.906 148.498 165.906 150.118C165.906 152.782 165.006 155.05 163.206 156.922C161.442 158.794 158.868 159.91 155.484 160.27V165.4H151.488V160.27ZM160.938 150.226C160.938 148.534 160.524 147.22 159.696 146.284C158.904 145.348 157.464 144.484 155.376 143.692V155.842C157.248 155.554 158.634 154.906 159.534 153.898C160.47 152.89 160.938 151.666 160.938 150.226ZM147.06 131.542C147.06 133.09 147.402 134.314 148.086 135.214C148.806 136.078 149.976 136.816 151.596 137.428V126.412C150.084 126.7 148.95 127.312 148.194 128.248C147.438 129.148 147.06 130.246 147.06 131.542ZM184.849 160.378C182.581 160.378 180.619 160.126 178.963 159.622C177.307 159.082 175.939 158.344 174.859 157.408C173.779 156.472 172.951 155.374 172.375 154.114C171.799 152.854 171.457 151.486 171.349 150.01H176.479C176.587 150.874 176.803 151.666 177.127 152.386C177.487 153.106 177.991 153.736 178.639 154.276C179.287 154.78 180.115 155.176 181.123 155.464C182.131 155.752 183.373 155.896 184.849 155.896C187.837 155.896 189.979 155.356 191.275 154.276C192.607 153.16 193.273 151.774 193.273 150.118C193.273 149.11 193.129 148.246 192.841 147.526C192.553 146.77 192.049 146.104 191.329 145.528C190.609 144.952 189.637 144.448 188.413 144.016C187.225 143.548 185.695 143.116 183.823 142.72C182.131 142.36 180.583 141.892 179.179 141.316C177.775 140.704 176.569 139.966 175.561 139.102C174.553 138.238 173.761 137.194 173.185 135.97C172.645 134.746 172.375 133.288 172.375 131.596C172.375 130.228 172.627 128.95 173.131 127.762C173.671 126.574 174.463 125.548 175.507 124.684C176.551 123.784 177.847 123.082 179.395 122.578C180.979 122.074 182.797 121.822 184.849 121.822C186.937 121.822 188.755 122.074 190.303 122.578C191.851 123.082 193.129 123.784 194.137 124.684C195.181 125.548 195.973 126.592 196.513 127.816C197.089 129.04 197.431 130.354 197.539 131.758H192.463C192.355 130.966 192.139 130.246 191.815 129.598C191.527 128.914 191.077 128.338 190.465 127.87C189.889 127.366 189.133 126.988 188.197 126.736C187.297 126.448 186.181 126.304 184.849 126.304C182.257 126.304 180.367 126.808 179.179 127.816C178.027 128.824 177.451 130.084 177.451 131.596C177.451 132.568 177.595 133.414 177.883 134.134C178.171 134.818 178.657 135.43 179.341 135.97C180.025 136.51 180.907 136.978 181.987 137.374C183.067 137.77 184.399 138.13 185.983 138.454C187.963 138.886 189.727 139.426 191.275 140.074C192.823 140.686 194.119 141.442 195.163 142.342C196.207 143.242 196.999 144.34 197.539 145.636C198.079 146.896 198.349 148.39 198.349 150.118C198.349 151.558 198.061 152.908 197.485 154.168C196.945 155.428 196.099 156.526 194.947 157.462C193.831 158.362 192.427 159.082 190.735 159.622C189.079 160.126 187.117 160.378 184.849 160.378ZM219.632 160.378C217.4 160.378 215.402 160.036 213.638 159.352C211.874 158.668 210.38 157.606 209.156 156.166C207.932 154.726 206.996 152.908 206.348 150.712C205.7 148.48 205.376 145.816 205.376 142.72V138.4C205.376 132.82 206.636 128.662 209.156 125.926C211.676 123.19 215.168 121.822 219.632 121.822C224.096 121.822 227.588 123.19 230.108 125.926C232.628 128.662 233.888 132.82 233.888 138.4V142.72C233.888 145.816 233.564 148.48 232.916 150.712C232.268 152.908 231.332 154.726 230.108 156.166C228.884 157.606 227.39 158.668 225.626 159.352C223.862 160.036 221.864 160.378 219.632 160.378ZM219.632 155.896C221.072 155.896 222.368 155.68 223.52 155.248C224.672 154.78 225.644 154.024 226.436 152.98C227.228 151.936 227.822 150.586 228.218 148.93C228.65 147.238 228.866 145.168 228.866 142.72V138.4C228.866 134.044 228.056 130.948 226.436 129.112C224.816 127.24 222.548 126.304 219.632 126.304C216.716 126.304 214.448 127.24 212.828 129.112C211.208 130.948 210.398 134.044 210.398 138.4V142.72C210.398 145.168 210.596 147.238 210.992 148.93C211.424 150.586 212.036 151.936 212.828 152.98C213.62 154.024 214.574 154.78 215.69 155.248C216.842 155.68 218.156 155.896 219.632 155.896ZM242.752 122.2H247.828V155.572H265.864V160H242.752V122.2Z" fill="url(#paint1_linear_180_327)" />
	</g>
	<path d="M105.532 191.098C104.953 191.098 104.435 191.009 103.978 190.832C103.521 190.655 103.133 190.379 102.816 190.006C102.499 189.633 102.256 189.157 102.088 188.578C101.92 187.999 101.836 187.309 101.836 186.506V185.386C101.836 183.939 102.163 182.866 102.816 182.166C103.469 181.457 104.375 181.102 105.532 181.102C106.549 181.102 107.357 181.34 107.954 181.816C108.561 182.292 108.957 183.043 109.144 184.07H107.828C107.651 183.407 107.38 182.941 107.016 182.67C106.652 182.399 106.157 182.264 105.532 182.264C104.776 182.264 104.188 182.507 103.768 182.992C103.348 183.468 103.138 184.266 103.138 185.386V186.506C103.138 187.141 103.189 187.677 103.292 188.116C103.404 188.555 103.563 188.909 103.768 189.18C103.973 189.451 104.221 189.647 104.51 189.768C104.809 189.88 105.149 189.936 105.532 189.936C105.859 189.936 106.143 189.903 106.386 189.838C106.638 189.763 106.853 189.656 107.03 189.516C107.217 189.367 107.371 189.175 107.492 188.942C107.623 188.709 107.735 188.424 107.828 188.088H109.144C108.929 189.171 108.514 189.945 107.898 190.412C107.291 190.869 106.503 191.098 105.532 191.098ZM113.09 191.098C112.372 191.098 111.793 190.86 111.354 190.384C110.925 189.908 110.71 189.189 110.71 188.228V183.58H111.956V188.158C111.956 188.793 112.087 189.259 112.348 189.558C112.619 189.857 112.983 190.006 113.44 190.006C113.655 190.006 113.86 189.959 114.056 189.866C114.252 189.773 114.425 189.647 114.574 189.488C114.724 189.32 114.84 189.124 114.924 188.9C115.018 188.676 115.064 188.429 115.064 188.158V183.58H116.31V191H115.204V189.768C115.046 190.132 114.784 190.445 114.42 190.706C114.056 190.967 113.613 191.098 113.09 191.098ZM118.521 183.58H119.627V184.812C119.786 184.448 120.057 184.135 120.439 183.874C120.831 183.613 121.293 183.482 121.825 183.482C121.928 183.482 122.021 183.487 122.105 183.496C122.189 183.505 122.269 183.515 122.343 183.524C122.427 183.533 122.502 183.543 122.567 183.552V184.728C122.474 184.709 122.371 184.691 122.259 184.672C122.157 184.653 122.04 184.639 121.909 184.63C121.788 184.611 121.657 184.602 121.517 184.602C120.995 184.602 120.57 184.765 120.243 185.092C119.926 185.419 119.767 185.862 119.767 186.422V191H118.521V183.58ZM123.976 183.58H125.082V184.812C125.241 184.448 125.512 184.135 125.894 183.874C126.286 183.613 126.748 183.482 127.28 183.482C127.383 183.482 127.476 183.487 127.56 183.496C127.644 183.505 127.724 183.515 127.798 183.524C127.882 183.533 127.957 183.543 128.022 183.552V184.728C127.929 184.709 127.826 184.691 127.714 184.672C127.612 184.653 127.495 184.639 127.364 184.63C127.243 184.611 127.112 184.602 126.972 184.602C126.45 184.602 126.025 184.765 125.698 185.092C125.381 185.419 125.222 185.862 125.222 186.422V191H123.976V183.58ZM131.843 191.098C131.395 191.098 130.984 191.028 130.611 190.888C130.247 190.739 129.934 190.524 129.673 190.244C129.421 189.955 129.22 189.605 129.071 189.194C128.931 188.774 128.861 188.293 128.861 187.752V186.688C128.861 185.643 129.117 184.849 129.631 184.308C130.153 183.757 130.867 183.482 131.773 183.482C132.678 183.482 133.387 183.757 133.901 184.308C134.423 184.849 134.685 185.652 134.685 186.716V187.654H130.093C130.102 188.503 130.261 189.115 130.569 189.488C130.886 189.852 131.311 190.034 131.843 190.034C132.076 190.034 132.277 190.006 132.445 189.95C132.622 189.885 132.767 189.801 132.879 189.698C133 189.595 133.093 189.479 133.159 189.348C133.224 189.217 133.271 189.082 133.299 188.942H134.545C134.395 189.67 134.092 190.211 133.635 190.566C133.177 190.921 132.58 191.098 131.843 191.098ZM131.787 184.546C131.255 184.546 130.839 184.709 130.541 185.036C130.251 185.353 130.102 185.89 130.093 186.646H133.523C133.504 185.89 133.345 185.353 133.047 185.036C132.757 184.709 132.337 184.546 131.787 184.546ZM136.456 183.58H137.562V184.812C137.721 184.448 137.992 184.135 138.374 183.874C138.757 183.613 139.219 183.482 139.76 183.482C140.507 183.482 141.1 183.72 141.538 184.196C141.977 184.672 142.196 185.391 142.196 186.352V191H140.95V186.422C140.95 185.787 140.815 185.321 140.544 185.022C140.274 184.723 139.891 184.574 139.396 184.574C139.163 184.574 138.944 184.621 138.738 184.714C138.533 184.807 138.351 184.938 138.192 185.106C138.043 185.265 137.922 185.456 137.828 185.68C137.744 185.904 137.702 186.151 137.702 186.422V191H136.456V183.58ZM147.022 191C146.201 191 145.617 190.827 145.272 190.482C144.927 190.127 144.754 189.53 144.754 188.69V184.672H143.718V183.58H144.754V181.9H146V183.58H147.526V184.672H146V188.69C146 189.175 146.079 189.502 146.238 189.67C146.397 189.838 146.672 189.922 147.064 189.922H147.526V191H147.022ZM152.767 183.58H153.873V184.812C154.087 184.401 154.372 184.079 154.727 183.846C155.091 183.613 155.539 183.496 156.071 183.496C156.463 183.496 156.822 183.566 157.149 183.706C157.475 183.846 157.755 184.051 157.989 184.322C158.231 184.583 158.418 184.915 158.549 185.316C158.689 185.717 158.759 186.175 158.759 186.688V187.752C158.759 188.303 158.689 188.788 158.549 189.208C158.418 189.628 158.231 189.978 157.989 190.258C157.755 190.538 157.475 190.748 157.149 190.888C156.822 191.028 156.463 191.098 156.071 191.098C155.567 191.098 155.142 190.981 154.797 190.748C154.451 190.515 154.19 190.216 154.013 189.852V193.8H152.767V183.58ZM155.819 190.006C156.323 190.006 156.733 189.829 157.051 189.474C157.368 189.11 157.527 188.536 157.527 187.752V186.688C157.527 185.988 157.368 185.465 157.051 185.12C156.733 184.765 156.323 184.588 155.819 184.588C155.259 184.588 154.815 184.765 154.489 185.12C154.171 185.465 154.013 185.988 154.013 186.688V187.752C154.013 188.536 154.171 189.11 154.489 189.474C154.815 189.829 155.259 190.006 155.819 190.006ZM163.262 191.098C162.329 191.098 161.587 190.813 161.036 190.244C160.486 189.665 160.21 188.835 160.21 187.752V186.688C160.21 186.184 160.28 185.736 160.42 185.344C160.57 184.943 160.775 184.607 161.036 184.336C161.307 184.056 161.629 183.846 162.002 183.706C162.376 183.557 162.796 183.482 163.262 183.482C163.729 183.482 164.149 183.557 164.522 183.706C164.896 183.846 165.213 184.056 165.474 184.336C165.745 184.607 165.95 184.943 166.09 185.344C166.24 185.736 166.314 186.184 166.314 186.688V187.752C166.314 188.835 166.039 189.665 165.488 190.244C164.938 190.813 164.196 191.098 163.262 191.098ZM163.262 190.006C163.822 190.006 164.266 189.829 164.592 189.474C164.919 189.11 165.082 188.536 165.082 187.752V186.688C165.082 185.979 164.919 185.451 164.592 185.106C164.266 184.751 163.822 184.574 163.262 184.574C162.702 184.574 162.259 184.751 161.932 185.106C161.606 185.451 161.442 185.979 161.442 186.688V187.752C161.442 188.536 161.606 189.11 161.932 189.474C162.259 189.829 162.702 190.006 163.262 190.006ZM170.893 191C170.072 191 169.488 190.827 169.143 190.482C168.798 190.127 168.625 189.53 168.625 188.69V184.672H167.589V183.58H168.625V181.9H169.871V183.58H171.397V184.672H169.871V188.69C169.871 189.175 169.95 189.502 170.109 189.67C170.268 189.838 170.543 189.922 170.935 189.922H171.397V191H170.893Z" fill="#636363" />
	<rect x="87" y="224.5" width="99" height="49" rx="5.5" fill="#1B1B1B" stroke="#323232" />
	<g filter="url(#filter2_d_180_327)">
		<path d="M115.008 257.14C114.328 257.14 113.714 257.04 113.168 256.84C112.634 256.64 112.174 256.367 111.788 256.02C111.414 255.673 111.121 255.267 110.908 254.8C110.708 254.32 110.608 253.807 110.608 253.26C110.608 252.42 110.794 251.733 111.168 251.2C111.554 250.653 112.088 250.187 112.768 249.8C112.261 249.493 111.834 249.073 111.488 248.54C111.154 247.993 110.988 247.32 110.988 246.52C110.988 246.013 111.081 245.54 111.268 245.1C111.468 244.647 111.741 244.26 112.088 243.94C112.448 243.607 112.874 243.347 113.368 243.16C113.861 242.96 114.408 242.86 115.008 242.86C115.608 242.86 116.154 242.96 116.648 243.16C117.141 243.347 117.561 243.607 117.908 243.94C118.268 244.26 118.541 244.647 118.728 245.1C118.928 245.54 119.028 246.013 119.028 246.52C119.028 247.32 118.854 247.993 118.508 248.54C118.174 249.073 117.754 249.493 117.248 249.8C117.928 250.187 118.454 250.653 118.828 251.2C119.214 251.733 119.408 252.42 119.408 253.26C119.408 253.807 119.301 254.32 119.088 254.8C118.888 255.267 118.594 255.673 118.208 256.02C117.834 256.367 117.374 256.64 116.828 256.84C116.294 257.04 115.688 257.14 115.008 257.14ZM115.008 255.52C115.394 255.52 115.741 255.46 116.048 255.34C116.368 255.22 116.641 255.06 116.868 254.86C117.094 254.647 117.268 254.407 117.388 254.14C117.508 253.86 117.568 253.56 117.568 253.24C117.568 252.453 117.334 251.84 116.868 251.4C116.401 250.947 115.781 250.667 115.008 250.56C114.234 250.667 113.614 250.947 113.148 251.4C112.681 251.84 112.448 252.453 112.448 253.24C112.448 253.56 112.508 253.86 112.628 254.14C112.748 254.407 112.921 254.647 113.148 254.86C113.374 255.06 113.641 255.22 113.948 255.34C114.268 255.46 114.621 255.52 115.008 255.52ZM115.008 244.48C114.368 244.48 113.841 244.68 113.428 245.08C113.028 245.48 112.828 245.973 112.828 246.56C112.828 246.933 112.888 247.267 113.008 247.56C113.128 247.84 113.288 248.08 113.488 248.28C113.688 248.48 113.921 248.647 114.188 248.78C114.454 248.9 114.728 248.987 115.008 249.04C115.288 248.987 115.561 248.9 115.828 248.78C116.094 248.647 116.328 248.48 116.528 248.28C116.728 248.08 116.888 247.84 117.008 247.56C117.128 247.267 117.188 246.933 117.188 246.56C117.188 245.973 116.981 245.48 116.568 245.08C116.168 244.68 115.648 244.48 115.008 244.48ZM126.004 257.14C125.297 257.14 124.671 257.033 124.124 256.82C123.577 256.607 123.117 256.253 122.744 255.76C122.371 255.267 122.084 254.62 121.884 253.82C121.697 253.02 121.604 252.027 121.604 250.84V248.84C121.604 247.747 121.697 246.82 121.884 246.06C122.084 245.287 122.371 244.667 122.744 244.2C123.117 243.733 123.577 243.393 124.124 243.18C124.671 242.967 125.297 242.86 126.004 242.86C126.711 242.86 127.337 242.967 127.884 243.18C128.431 243.393 128.891 243.733 129.264 244.2C129.637 244.667 129.917 245.287 130.104 246.06C130.304 246.82 130.404 247.747 130.404 248.84V250.84C130.404 252.027 130.304 253.02 130.104 253.82C129.917 254.62 129.637 255.267 129.264 255.76C128.891 256.253 128.431 256.607 127.884 256.82C127.337 257.033 126.711 257.14 126.004 257.14ZM126.004 255.5C126.404 255.5 126.757 255.433 127.064 255.3C127.371 255.167 127.631 254.927 127.844 254.58C128.071 254.22 128.237 253.74 128.344 253.14C128.464 252.54 128.524 251.773 128.524 250.84V248.84C128.524 247.987 128.464 247.28 128.344 246.72C128.237 246.16 128.071 245.713 127.844 245.38C127.631 245.047 127.371 244.813 127.064 244.68C126.757 244.547 126.404 244.48 126.004 244.48C125.604 244.48 125.251 244.547 124.944 244.68C124.637 244.813 124.371 245.047 124.144 245.38C123.931 245.713 123.764 246.16 123.644 246.72C123.537 247.28 123.484 247.987 123.484 248.84V250.84C123.484 251.773 123.537 252.54 123.644 253.14C123.764 253.74 123.931 254.22 124.144 254.58C124.371 254.927 124.637 255.167 124.944 255.3C125.251 255.433 125.604 255.5 126.004 255.5ZM138.84 242H140.64L134.16 260H132.36L138.84 242ZM147 257.14C146.32 257.14 145.707 257.04 145.16 256.84C144.627 256.64 144.167 256.367 143.78 256.02C143.407 255.673 143.113 255.267 142.9 254.8C142.7 254.32 142.6 253.807 142.6 253.26C142.6 252.42 142.787 251.733 143.16 251.2C143.547 250.653 144.08 250.187 144.76 249.8C144.253 249.493 143.827 249.073 143.48 248.54C143.147 247.993 142.98 247.32 142.98 246.52C142.98 246.013 143.073 245.54 143.26 245.1C143.46 244.647 143.733 244.26 144.08 243.94C144.44 243.607 144.867 243.347 145.36 243.16C145.853 242.96 146.4 242.86 147 242.86C147.6 242.86 148.147 242.96 148.64 243.16C149.133 243.347 149.553 243.607 149.9 243.94C150.26 244.26 150.533 244.647 150.72 245.1C150.92 245.54 151.02 246.013 151.02 246.52C151.02 247.32 150.847 247.993 150.5 248.54C150.167 249.073 149.747 249.493 149.24 249.8C149.92 250.187 150.447 250.653 150.82 251.2C151.207 251.733 151.4 252.42 151.4 253.26C151.4 253.807 151.293 254.32 151.08 254.8C150.88 255.267 150.587 255.673 150.2 256.02C149.827 256.367 149.367 256.64 148.82 256.84C148.287 257.04 147.68 257.14 147 257.14ZM147 255.52C147.387 255.52 147.733 255.46 148.04 255.34C148.36 255.22 148.633 255.06 148.86 254.86C149.087 254.647 149.26 254.407 149.38 254.14C149.5 253.86 149.56 253.56 149.56 253.24C149.56 252.453 149.327 251.84 148.86 251.4C148.393 250.947 147.773 250.667 147 250.56C146.227 250.667 145.607 250.947 145.14 251.4C144.673 251.84 144.44 252.453 144.44 253.24C144.44 253.56 144.5 253.86 144.62 254.14C144.74 254.407 144.913 254.647 145.14 254.86C145.367 255.06 145.633 255.22 145.94 255.34C146.26 255.46 146.613 255.52 147 255.52ZM147 244.48C146.36 244.48 145.833 244.68 145.42 245.08C145.02 245.48 144.82 245.973 144.82 246.56C144.82 246.933 144.88 247.267 145 247.56C145.12 247.84 145.28 248.08 145.48 248.28C145.68 248.48 145.913 248.647 146.18 248.78C146.447 248.9 146.72 248.987 147 249.04C147.28 248.987 147.553 248.9 147.82 248.78C148.087 248.647 148.32 248.48 148.52 248.28C148.72 248.08 148.88 247.84 149 247.56C149.12 247.267 149.18 246.933 149.18 246.56C149.18 245.973 148.973 245.48 148.56 245.08C148.16 244.68 147.64 244.48 147 244.48ZM157.996 257.14C157.289 257.14 156.663 257.033 156.116 256.82C155.569 256.607 155.109 256.253 154.736 255.76C154.363 255.267 154.076 254.62 153.876 253.82C153.689 253.02 153.596 252.027 153.596 250.84V248.84C153.596 247.747 153.689 246.82 153.876 246.06C154.076 245.287 154.363 244.667 154.736 244.2C155.109 243.733 155.569 243.393 156.116 243.18C156.663 242.967 157.289 242.86 157.996 242.86C158.703 242.86 159.329 242.967 159.876 243.18C160.423 243.393 160.883 243.733 161.256 244.2C161.629 244.667 161.909 245.287 162.096 246.06C162.296 246.82 162.396 247.747 162.396 248.84V250.84C162.396 252.027 162.296 253.02 162.096 253.82C161.909 254.62 161.629 255.267 161.256 255.76C160.883 256.253 160.423 256.607 159.876 256.82C159.329 257.033 158.703 257.14 157.996 257.14ZM157.996 255.5C158.396 255.5 158.749 255.433 159.056 255.3C159.363 255.167 159.623 254.927 159.836 254.58C160.063 254.22 160.229 253.74 160.336 253.14C160.456 252.54 160.516 251.773 160.516 250.84V248.84C160.516 247.987 160.456 247.28 160.336 246.72C160.229 246.16 160.063 245.713 159.836 245.38C159.623 245.047 159.363 244.813 159.056 244.68C158.749 244.547 158.396 244.48 157.996 244.48C157.596 244.48 157.243 244.547 156.936 244.68C156.629 244.813 156.363 245.047 156.136 245.38C155.923 245.713 155.756 246.16 155.636 246.72C155.529 247.28 155.476 247.987 155.476 248.84V250.84C155.476 251.773 155.529 252.54 155.636 253.14C155.756 253.74 155.923 254.22 156.136 254.58C156.363 254.927 156.629 255.167 156.936 255.3C157.243 255.433 157.596 255.5 157.996 255.5Z" fill="url(#paint2_linear_180_327)" />
	</g>
	<path d="M121.739 288.2H123.027L127.507 295.732V288.2H128.795V298H127.507L123.027 290.454V298H121.739V288.2ZM131.542 288.2H137.562V289.348H132.858V292.526H137.114V293.674H132.858V298H131.542V288.2ZM141.418 289.348H138.338V288.2H145.814V289.348H142.734V298H141.418V289.348ZM149.133 298.098C148.638 298.098 148.213 298.047 147.859 297.944C147.513 297.832 147.224 297.683 146.991 297.496C146.767 297.3 146.599 297.071 146.487 296.81C146.375 296.549 146.309 296.259 146.291 295.942H147.537C147.555 296.11 147.593 296.259 147.649 296.39C147.714 296.521 147.807 296.637 147.929 296.74C148.05 296.833 148.209 296.908 148.405 296.964C148.601 297.011 148.843 297.034 149.133 297.034C149.739 297.034 150.159 296.941 150.393 296.754C150.635 296.558 150.757 296.301 150.757 295.984C150.757 295.853 150.738 295.732 150.701 295.62C150.663 295.499 150.579 295.387 150.449 295.284C150.327 295.181 150.145 295.088 149.903 295.004C149.66 294.911 149.338 294.827 148.937 294.752C148.115 294.593 147.499 294.355 147.089 294.038C146.687 293.711 146.487 293.226 146.487 292.582C146.487 291.966 146.701 291.462 147.131 291.07C147.569 290.678 148.237 290.482 149.133 290.482C150.029 290.482 150.682 290.678 151.093 291.07C151.513 291.462 151.741 291.966 151.779 292.582H150.533C150.495 292.255 150.379 292.003 150.183 291.826C149.987 291.639 149.637 291.546 149.133 291.546C148.61 291.546 148.241 291.635 148.027 291.812C147.821 291.989 147.719 292.237 147.719 292.554C147.719 292.694 147.737 292.82 147.775 292.932C147.812 293.044 147.887 293.147 147.999 293.24C148.12 293.324 148.288 293.403 148.503 293.478C148.717 293.553 149.002 293.623 149.357 293.688C149.814 293.772 150.206 293.875 150.533 293.996C150.869 294.108 151.139 294.253 151.345 294.43C151.559 294.607 151.718 294.822 151.821 295.074C151.923 295.317 151.975 295.606 151.975 295.942C151.975 296.577 151.746 297.095 151.289 297.496C150.831 297.897 150.113 298.098 149.133 298.098Z" fill="#636363" />
	<defs>
		<filter id="filter0_d_180_327" x="102.609" y="35.86" width="67.6445" height="34.28" filterUnits="userSpaceOnUse" color-interpolation-filters="sRGB">
			<feFlood flood-opacity="0" result="BackgroundImageFix" />
			<feColorMatrix in="SourceAlpha" type="matrix" values="0 0 0 0 0 0 0 0 0 0 0 0 0 0 0 0 0 0 127 0" result="hardAlpha" />
			<feOffset />
			<feGaussianBlur stdDeviation="5" />
			<feComposite in2="hardAlpha" operator="out" />
			<feColorMatrix type="matrix" values="0 0 0 0 0.357 0 0 0 0 0.7 0 0 0 0 0.400556 0 0 0 0.4 0" />
			<feBlend mode="normal" in2="BackgroundImageFix" result="effect1_dropShadow_180_327" />
			<feBlend mode="normal" in="SourceGraphic" in2="effect1_dropShadow_180_327" result="shape" />
		</filter>
		<filter id="filter1_d_180_327" x="0.103516" y="106.8" width="275.761" height="68.6" filterUnits="userSpaceOnUse" color-interpolation-filters="sRGB">
			<feFlood flood-opacity="0" result="BackgroundImageFix" />
			<feColorMatrix in="SourceAlpha" type="matrix" values="0 0 0 0 0 0 0 0 0 0 0 0 0 0 0 0 0 0 127 0" result="hardAlpha" />
			<feOffset />
			<feGaussianBlur stdDeviation="5" />
			<feComposite in2="hardAlpha" operator="out" />
			<feColorMatrix type="matrix" values="0 0 0 0 0.357 0 0 0 0 0.7 0 0 0 0 0.400556 0 0 0 0.6 0" />
			<feBlend mode="normal" in2="BackgroundImageFix" result="effect1_dropShadow_180_327" />
			<feBlend mode="normal" in="SourceGraphic" in2="effect1_dropShadow_180_327" result="shape" />
		</filter>
		<filter id="filter2_d_180_327" x="100.607" y="232" width="71.7891" height="38" filterUnits="userSpaceOnUse" color-interpolation-filters="sRGB">
			<feFlood flood-opacity="0" result="BackgroundImageFix" />
			<feColorMatrix in="SourceAlpha" type="matrix" values="0 0 0 0 0 0 0 0 0 0 0 0 0 0 0 0 0 0 127 0" result="hardAlpha" />
			<feOffset />
			<feGaussianBlur stdDeviation="5" />
			<feComposite in2="hardAlpha" operator="out" />
			<feColorMatrix type="matrix" values="0 0 0 0 0.357 0 0 0 0 0.7 0 0 0 0 0.400556 0 0 0 0.4 0" />
			<feBlend mode="normal" in2="BackgroundImageFix" result="effect1_dropShadow_180_327" />
			<feBlend mode="normal" in="SourceGraphic" in2="effect1_dropShadow_180_327" result="shape" />
		</filter>
		<linearGradient id="paint0_linear_180_327" x1="136.5" y1="40" x2="136.5" y2="64" gradientUnits="userSpaceOnUse">
			<stop stop-color="#41DD55" />
			<stop offset="1" stop-color="#41AA38" />
		</linearGradient>
		<linearGradient id="paint1_linear_180_327" x1="136.5" y1="107" x2="136.5" y2="172" gradientUnits="userSpaceOnUse">
			<stop stop-color="#41DD55" />
			<stop offset="1" stop-color="#41AA38" />
		</linearGradient>
		<linearGradient id="paint2_linear_180_327" x1="136.5" y1="237" x2="136.5" y2="261" gradientUnits="userSpaceOnUse">
			<stop stop-color="#41DD55" />
			<stop offset="1" stop-color="#41AA38" />
		</linearGradient>
	</defs>
</svg>
