<svg width="666" height="666" viewBox="0 0 666 666" fill="none" xmlns="http://www.w3.org/2000/svg">
	<mask id="path-1-inside-1_180_390" fill="white">
		<path fill-rule="evenodd" clip-rule="evenodd" d="M333 590C474.937 590 590 474.937 590 333C590 191.063 474.937 76 333 76C191.063 76 76 191.063 76 333C76 474.937 191.063 590 333 590ZM333 563C460.025 563 563 460.025 563 333C563 205.975 460.025 103 333 103C205.975 103 103 205.975 103 333C103 460.025 205.975 563 333 563Z" />
	</mask>
	<path fill-rule="evenodd" clip-rule="evenodd" d="M333 590C474.937 590 590 474.937 590 333C590 191.063 474.937 76 333 76C191.063 76 76 191.063 76 333C76 474.937 191.063 590 333 590ZM333 563C460.025 563 563 460.025 563 333C563 205.975 460.025 103 333 103C205.975 103 103 205.975 103 333C103 460.025 205.975 563 333 563Z" fill="white" fill-opacity="0.08" />
	<path d="M588 333C588 473.833 473.833 588 333 588L333 592C476.042 592 592 476.042 592 333L588 333ZM333 78C473.833 78 588 192.167 588 333L592 333C592 189.958 476.042 74 333 74V78ZM78 333C78 192.167 192.167 78 333 78V74C189.958 74 74 189.958 74 333H78ZM333 588C192.167 588 78 473.833 78 333H74C74 476.042 189.958 592 333 592L333 588ZM561 333C561 458.921 458.921 561 333 561V565C461.13 565 565 461.13 565 333H561ZM333 105C458.921 105 561 207.079 561 333H565C565 204.87 461.13 101 333 101V105ZM105 333C105 207.079 207.079 105 333 105V101C204.87 101 101 204.87 101 333H105ZM333 561C207.079 561 105 458.921 105 333H101C101 461.13 204.87 565 333 565V561Z" fill="url(#paint0_linear_180_390)" mask="url(#path-1-inside-1_180_390)" />
	<path fill-rule="evenodd" clip-rule="evenodd" d="M333 666C516.911 666 666 516.911 666 333C666 149.089 516.911 0 333 0C149.089 0 0 149.089 0 333C0 516.911 149.089 666 333 666ZM333 637C500.895 637 637 500.895 637 333C637 165.105 500.895 29 333 29C165.105 29 29 165.105 29 333C29 500.895 165.105 637 333 637Z" fill="white" fill-opacity="0.08" />
	<path d="M80.9 333C80.9 359.3 84.9 384.6 92.4 408.4L32.5 427.6C23.1 397.8 18 366 18 333V332.9C18 295.7 24.4 260.1 36.3 227L95.4 248.4C86 274.9 80.9 303.3 80.9 333Z" fill="url(#paint1_linear_180_390)" />
	<path d="M229.4 562.8L203.7 620.2C172.7 606.2 144.3 587.4 119.5 564.6L161.9 518.1C181.7 536.4 204.5 551.6 229.4 562.8Z" fill="url(#paint2_linear_180_390)" />
	<path d="M613 477.5C598 506.5 578.7 532.9 555.8 555.7L555.7 555.6C537.6 573.7 517.4 589.6 495.3 602.8L463.2 548.8C480.8 538.2 496.9 525.5 511.3 511.1L511.4 511.2C529.7 492.9 545.2 471.8 557.2 448.5L613 477.5Z" fill="url(#paint3_linear_180_390)" />
	<path d="M333.7 18V80.9H333C303.5 80.9 275.1 86 248.8 95.3L227.7 36C260.6 24.4 296 18 333 18V18.2V18H333.7Z" fill="url(#paint4_linear_180_390)" />
	<path d="M648 332.9C648 385 635.4 434.2 613 477.4L557.2 448.4C575.1 413.8 585.1 374.5 585.1 332.9V332.8C585.1 298 578 264.8 565.3 234.7C552.5 204.5 534.1 177.4 511.3 154.6C465.8 109.2 403 81.1 333.7 80.9V18C376.9 18.1 418.2 26.9 455.7 42.8C493.4 58.7 527.3 81.8 555.8 110.3C612.7 167.2 648 246 648 332.9Z" fill="url(#paint5_linear_180_390)" />
	<path d="M248.8 95.3C244.1 97 239.5 98.8 234.9 100.7C204.7 113.5 177.6 131.9 154.8 154.7C128.6 180.9 108.1 212.8 95.4998 248.5L36.2998 227C38.2998 221.4 40.4998 215.8 42.7998 210.3C58.6998 172.6 81.7998 138.7 110.3 110.2C143.1 77.5 183 51.9 227.7 36L248.8 95.3Z" fill="url(#paint6_linear_180_390)" />
	<path d="M161.9 518.2L119.5 564.7C116.3 561.8 113.2 558.8 110.2 555.8C74.8004 520.4 47.8004 476.6 32.4004 427.7L92.3004 408.5C104.6 447.7 126.1 482.8 154.4 511.1C156.9 513.4 159.4 515.8 161.9 518.2Z" fill="url(#paint7_linear_180_390)" />
	<path d="M495.3 602.8C482.6 610.4 469.3 617.2 455.6 623C417.9 638.9 376.5 647.7 333.1 647.7L332.9 647.6V647.7C286.9 647.7 243.2 637.8 203.8 620.1L229.5 562.7C261 576.9 296.1 584.8 332.9 584.8V585L333.1 584.8C380.7 584.8 425.2 571.6 463.2 548.7L495.3 602.8Z" fill="url(#paint8_linear_180_390)" />
	<g filter="url(#filter0_d_180_390)">
		<path d="M542.321 534.438C541.666 535.064 540.993 535.433 540.304 535.546C539.623 535.651 538.888 535.43 538.101 534.884L539.513 533.536C539.855 533.74 540.163 533.807 540.436 533.738C540.702 533.661 540.958 533.505 541.205 533.269C541.406 533.078 541.557 532.881 541.66 532.68C541.77 532.471 541.813 532.246 541.789 532.004C541.772 531.754 541.676 531.484 541.502 531.194C541.335 530.896 541.075 530.561 540.721 530.191L540.29 529.74C540.282 530.087 540.203 530.436 540.051 530.787C539.9 531.123 539.647 531.46 539.292 531.799C538.961 532.116 538.597 532.353 538.201 532.51C537.813 532.659 537.415 532.729 537.008 532.72C536.593 532.703 536.185 532.599 535.782 532.409C535.379 532.219 534.996 531.935 534.635 531.557L534.171 531.071C533.449 530.315 533.106 529.5 533.141 528.625C533.184 527.743 533.607 526.919 534.409 526.153C535.226 525.372 536.076 524.996 536.958 525.024C537.848 525.044 538.706 525.486 539.531 526.35L541.862 528.791C542.945 529.925 543.499 530.953 543.523 531.874C543.555 532.787 543.154 533.642 542.321 534.438ZM538.442 530.377C538.813 530.023 539.003 529.635 539.012 529.213C539.022 528.79 538.839 528.383 538.463 527.989L537.955 527.457C537.564 527.048 537.158 526.839 536.736 526.829C536.306 526.812 535.906 526.98 535.536 527.333C535.166 527.687 534.976 528.075 534.966 528.497C534.956 528.92 535.15 529.339 535.548 529.756L536.012 530.241C536.41 530.658 536.824 530.875 537.254 530.892C537.676 530.902 538.072 530.73 538.442 530.377ZM543.222 525.17C542.698 525.671 542.149 525.915 541.576 525.901C540.995 525.88 540.444 525.596 539.921 525.049L539.478 524.586C538.955 524.038 538.7 523.478 538.714 522.905C538.719 522.324 538.985 521.783 539.509 521.282C540.034 520.781 540.586 520.541 541.167 520.562C541.74 520.575 542.288 520.855 542.811 521.403L543.253 521.866C543.776 522.414 544.035 522.978 544.029 523.559C544.016 524.132 543.747 524.669 543.222 525.17ZM542.427 524.337C542.65 524.123 542.761 523.899 542.759 523.665C542.749 523.424 542.586 523.137 542.269 522.805L541.827 522.342C541.51 522.011 541.232 521.835 540.991 521.814C540.75 521.793 540.517 521.89 540.294 522.103C540.07 522.317 539.963 522.545 539.972 522.786C539.982 523.028 540.145 523.315 540.462 523.646L540.904 524.109C541.221 524.441 541.5 524.617 541.741 524.638C541.974 524.651 542.203 524.55 542.427 524.337ZM543.844 517.319L545.047 516.17L547.379 529.43L546.165 530.59L543.844 517.319ZM551.692 525.466C551.167 525.967 550.618 526.211 550.045 526.198C549.465 526.177 548.913 525.893 548.39 525.345L547.948 524.882C547.425 524.334 547.17 523.774 547.183 523.201C547.189 522.62 547.454 522.079 547.978 521.578C548.503 521.077 549.055 520.837 549.636 520.858C550.209 520.871 550.757 521.152 551.28 521.699L551.722 522.162C552.245 522.71 552.504 523.274 552.498 523.855C552.485 524.428 552.216 524.965 551.692 525.466ZM550.896 524.633C551.12 524.419 551.23 524.195 551.228 523.962C551.219 523.72 551.056 523.433 550.739 523.102L550.297 522.639C549.98 522.307 549.701 522.131 549.46 522.11C549.219 522.09 548.987 522.186 548.763 522.4C548.539 522.613 548.432 522.841 548.442 523.083C548.451 523.324 548.615 523.611 548.931 523.943L549.373 524.406C549.69 524.737 549.969 524.913 550.21 524.934C550.444 524.947 550.672 524.847 550.896 524.633Z" fill="white" />
	</g>
	<g filter="url(#filter1_d_180_390)">
		<path d="M588.355 192.569C588.659 193.032 588.868 193.495 588.98 193.957C589.084 194.426 589.105 194.865 589.043 195.276C588.973 195.693 588.824 196.078 588.597 196.431C588.37 196.785 588.069 197.085 587.695 197.331L586.666 195.767C587.031 195.527 587.254 195.195 587.333 194.773C587.404 194.356 587.29 193.92 586.991 193.466C586.692 193.011 586.333 192.737 585.913 192.642C585.485 192.554 585.07 192.642 584.669 192.905C584.188 193.222 583.912 193.608 583.841 194.063C583.755 194.515 583.906 195.035 584.293 195.623L584.794 196.385L583.43 197.282L582.929 196.52C582.566 195.968 582.186 195.643 581.79 195.546C581.389 195.44 580.961 195.536 580.506 195.835C580.132 196.081 579.909 196.393 579.839 196.772C579.769 197.15 579.871 197.548 580.147 197.967C580.422 198.386 580.743 198.641 581.109 198.732C581.476 198.823 581.828 198.757 582.167 198.535L583.195 200.099C582.848 200.327 582.481 200.479 582.096 200.553C581.705 200.619 581.317 200.6 580.93 200.497C580.534 200.4 580.152 200.217 579.784 199.949C579.416 199.68 579.082 199.319 578.783 198.864C578.496 198.427 578.302 197.987 578.201 197.542C578.1 197.098 578.084 196.675 578.151 196.273C578.204 195.868 578.343 195.496 578.567 195.157C578.791 194.818 579.076 194.535 579.424 194.306C579.968 193.949 580.501 193.789 581.024 193.828C581.539 193.873 581.989 194.023 582.375 194.28C582.228 193.726 582.27 193.188 582.501 192.666C582.717 192.14 583.115 191.687 583.694 191.306C584.068 191.06 584.467 190.9 584.891 190.826C585.305 190.757 585.718 190.773 586.129 190.873C586.539 190.973 586.939 191.164 587.328 191.444C587.707 191.731 588.05 192.106 588.355 192.569ZM584.155 188.862L578.325 188.005C577.674 187.909 577.145 187.861 576.737 187.862C576.323 187.853 575.964 187.949 575.661 188.148C575.233 188.429 574.981 188.774 574.905 189.182C574.813 189.586 574.905 189.998 575.181 190.417C575.456 190.836 575.801 191.088 576.215 191.173C576.613 191.256 577.027 191.156 577.455 190.875L578.466 192.412C578.091 192.658 577.692 192.819 577.269 192.893C576.831 192.964 576.402 192.953 575.982 192.858C575.563 192.764 575.167 192.59 574.796 192.336C574.419 192.073 574.093 191.733 573.817 191.314C573.542 190.895 573.361 190.465 573.275 190.023C573.183 189.573 573.177 189.137 573.257 188.714C573.336 188.292 573.498 187.898 573.743 187.532C573.973 187.164 574.276 186.857 574.65 186.611C574.899 186.446 575.171 186.325 575.464 186.247C575.749 186.175 576.054 186.134 576.379 186.124C576.705 186.115 577.048 186.131 577.408 186.175C577.763 186.21 578.134 186.26 578.521 186.324L582.56 186.962L580.01 183.085L581.374 182.188L585.278 188.124L584.155 188.862ZM580.145 180.319L578.447 181.436L577.331 179.738L579.028 178.622L582.073 178.476L582.645 179.345L580.145 180.319ZM575.937 173.688C576.236 174.142 576.44 174.589 576.55 175.027C576.653 175.457 576.678 175.863 576.622 176.244C576.566 176.625 576.452 176.975 576.278 177.293C576.09 177.609 575.86 177.881 575.59 178.11L574.535 176.506C574.746 176.303 574.878 176.038 574.93 175.71C574.968 175.379 574.849 175.004 574.573 174.585C574.315 174.193 573.96 173.973 573.508 173.926C573.05 173.87 572.464 174.076 571.751 174.545C571.047 175.008 570.627 175.456 570.491 175.891C570.355 176.325 570.419 176.742 570.683 177.143C570.888 177.455 571.15 177.659 571.469 177.756C571.773 177.85 572.082 177.883 572.396 177.855L573.319 179.259L568.239 182.6L564.819 177.399L566.169 176.511L568.578 180.174L570.731 178.759C570.462 178.719 570.175 178.613 569.872 178.443C569.562 178.263 569.296 178.004 569.073 177.666C568.827 177.291 568.668 176.904 568.597 176.504C568.525 176.105 568.555 175.702 568.684 175.298C568.805 174.899 569.034 174.5 569.371 174.1C569.699 173.705 570.143 173.323 570.705 172.954C571.846 172.204 572.847 171.902 573.71 172.05C574.573 172.197 575.315 172.743 575.937 173.688ZM567.008 171.176C567.406 171.782 567.548 172.366 567.432 172.927C567.307 173.495 566.928 173.986 566.295 174.402L565.761 174.754C565.128 175.17 564.531 175.32 563.969 175.205C563.399 175.094 562.915 174.736 562.516 174.13C562.118 173.524 561.981 172.938 562.105 172.371C562.221 171.809 562.596 171.32 563.228 170.904L563.763 170.553C564.396 170.136 564.997 169.983 565.568 170.093C566.129 170.209 566.609 170.57 567.008 171.176ZM566.045 171.809C565.875 171.551 565.675 171.402 565.444 171.362C565.205 171.328 564.894 171.437 564.511 171.689L563.976 172.04C563.593 172.293 563.369 172.535 563.306 172.769C563.242 173.002 563.295 173.248 563.465 173.506C563.635 173.765 563.84 173.911 564.079 173.945C564.319 173.979 564.63 173.87 565.013 173.618L565.548 173.266C565.931 173.014 566.155 172.772 566.218 172.538C566.273 172.311 566.215 172.068 566.045 171.809ZM559.396 169.154L558.482 167.764L571.945 167.852L572.869 169.256L559.396 169.154ZM568.821 162.898C569.22 163.504 569.361 164.088 569.245 164.649C569.12 165.216 568.741 165.708 568.109 166.124L567.574 166.476C566.941 166.892 566.344 167.042 565.783 166.926C565.213 166.816 564.728 166.458 564.33 165.852C563.931 165.246 563.794 164.659 563.919 164.092C564.035 163.531 564.409 163.042 565.042 162.626L565.577 162.274C566.209 161.858 566.811 161.705 567.381 161.815C567.943 161.931 568.423 162.292 568.821 162.898ZM567.859 163.531C567.689 163.273 567.488 163.123 567.258 163.084C567.018 163.049 566.707 163.158 566.324 163.411L565.789 163.762C565.406 164.014 565.183 164.257 565.119 164.49C565.055 164.724 565.109 164.969 565.279 165.228C565.449 165.486 565.653 165.633 565.893 165.667C566.132 165.701 566.443 165.592 566.827 165.34L567.361 164.988C567.745 164.736 567.968 164.493 568.032 164.26C568.086 164.032 568.029 163.789 567.859 163.531Z" fill="white" />
	</g>
	<g filter="url(#filter2_d_180_390)">
		<path d="M329.649 617.368H332.273V609.784L329.713 611.512V609.528L332.273 607.8H334.177V617.368H336.321V619H329.649V617.368ZM341.55 619.128C341.006 619.128 340.52 619.053 340.094 618.904C339.678 618.755 339.326 618.552 339.038 618.296C338.75 618.04 338.52 617.752 338.35 617.432C338.19 617.101 338.088 616.76 338.046 616.408H339.966C340.019 616.696 340.168 616.952 340.414 617.176C340.67 617.389 341.048 617.496 341.55 617.496C342.019 617.496 342.398 617.32 342.686 616.968C342.984 616.616 343.134 616.013 343.134 615.16C343.134 614.317 342.99 613.72 342.702 613.368C342.414 613.016 342.03 612.84 341.55 612.84C341.176 612.84 340.862 612.947 340.606 613.16C340.36 613.363 340.163 613.603 340.014 613.88H338.334V607.8H344.558V609.416H340.174V611.992C340.355 611.789 340.6 611.608 340.91 611.448C341.23 611.288 341.592 611.208 341.998 611.208C342.446 611.208 342.856 611.288 343.23 611.448C343.603 611.608 343.923 611.853 344.19 612.184C344.456 612.504 344.664 612.915 344.814 613.416C344.963 613.907 345.038 614.488 345.038 615.16C345.038 616.525 344.739 617.528 344.142 618.168C343.544 618.808 342.68 619.128 341.55 619.128ZM347.29 619V616.968H349.322V619L347.77 621.624H346.73L347.29 619ZM356.183 616.616H351.127V615.224L355.879 607.8H358.023V614.984H359.079V616.616H358.023V619H356.183V616.616ZM356.183 614.984V610.28L353.143 614.984H356.183ZM362.148 613.048C361.423 613.048 360.858 612.845 360.452 612.44C360.047 612.024 359.844 611.437 359.844 610.68V610.04C359.844 609.283 360.047 608.701 360.452 608.296C360.858 607.88 361.423 607.672 362.148 607.672C362.874 607.672 363.439 607.88 363.844 608.296C364.25 608.701 364.452 609.283 364.452 610.04V610.68C364.452 611.437 364.25 612.024 363.844 612.44C363.439 612.845 362.874 613.048 362.148 613.048ZM362.148 611.896C362.458 611.896 362.692 611.811 362.852 611.64C363.012 611.459 363.092 611.139 363.092 610.68V610.04C363.092 609.581 363.012 609.261 362.852 609.08C362.692 608.899 362.458 608.808 362.148 608.808C361.839 608.808 361.604 608.899 361.444 609.08C361.284 609.261 361.204 609.581 361.204 610.04V610.68C361.204 611.139 361.284 611.459 361.444 611.64C361.604 611.811 361.839 611.896 362.148 611.896ZM368.02 607.8H369.684L362.212 619H360.532L368.02 607.8ZM368.068 619.112C367.343 619.112 366.778 618.909 366.372 618.504C365.967 618.088 365.764 617.501 365.764 616.744V616.104C365.764 615.347 365.967 614.765 366.372 614.36C366.778 613.944 367.343 613.736 368.068 613.736C368.794 613.736 369.359 613.944 369.764 614.36C370.17 614.765 370.372 615.347 370.372 616.104V616.744C370.372 617.501 370.17 618.088 369.764 618.504C369.359 618.909 368.794 619.112 368.068 619.112ZM368.068 617.96C368.378 617.96 368.612 617.875 368.772 617.704C368.932 617.523 369.012 617.203 369.012 616.744V616.104C369.012 615.645 368.932 615.325 368.772 615.144C368.612 614.963 368.378 614.872 368.068 614.872C367.759 614.872 367.524 614.963 367.364 615.144C367.204 615.325 367.124 615.645 367.124 616.104V616.744C367.124 617.203 367.204 617.523 367.364 617.704C367.524 617.875 367.759 617.96 368.068 617.96Z" fill="white" />
	</g>
	<g filter="url(#filter3_d_180_390)">
		<path d="M162.552 565.282C162.086 565.003 161.707 564.69 161.418 564.343C161.137 564.001 160.939 563.646 160.823 563.279C160.707 562.911 160.658 562.546 160.676 562.184C160.708 561.818 160.796 561.473 160.94 561.149L162.588 562.134C162.486 562.409 162.483 562.705 162.579 563.023C162.689 563.338 162.96 563.624 163.39 563.881C163.793 564.122 164.208 564.165 164.636 564.011C165.073 563.862 165.51 563.421 165.948 562.689C166.38 561.965 166.563 561.379 166.497 560.929C166.43 560.479 166.191 560.131 165.779 559.885C165.458 559.693 165.133 559.623 164.804 559.675C164.49 559.723 164.197 559.828 163.927 559.989L162.485 559.127L165.604 553.908L170.947 557.102L170.117 558.489L166.354 556.24L165.033 558.451C165.292 558.37 165.596 558.34 165.944 558.361C166.3 558.388 166.653 558.506 167.001 558.714C167.385 558.943 167.697 559.223 167.935 559.552C168.173 559.881 168.322 560.255 168.381 560.676C168.446 561.088 168.414 561.547 168.285 562.054C168.161 562.551 167.927 563.089 167.582 563.666C166.882 564.837 166.111 565.545 165.27 565.788C164.429 566.031 163.523 565.862 162.552 565.282ZM167.546 568.117L168.588 566.373L170.332 567.416L169.29 569.16L166.611 570.616L165.719 570.082L167.546 568.117ZM171.886 569.146L177.508 567.381C178.135 567.184 178.632 566.996 179 566.818C179.376 566.646 179.658 566.404 179.844 566.093C180.106 565.653 180.184 565.233 180.075 564.833C179.981 564.429 179.719 564.098 179.289 563.841C178.858 563.583 178.438 563.506 178.029 563.609C177.634 563.709 177.305 563.978 177.042 564.418L175.463 563.474C175.693 563.089 175.982 562.771 176.331 562.52C176.695 562.265 177.086 562.089 177.505 561.991C177.923 561.894 178.355 561.878 178.8 561.945C179.253 562.018 179.696 562.183 180.126 562.44C180.556 562.697 180.906 563.006 181.176 563.366C181.454 563.731 181.65 564.121 181.762 564.536C181.874 564.951 181.9 565.377 181.838 565.812C181.791 566.244 181.653 566.652 181.423 567.037C181.27 567.293 181.078 567.52 180.848 567.718C180.623 567.907 180.367 568.076 180.078 568.227C179.789 568.377 179.473 568.511 179.129 568.629C178.794 568.752 178.439 568.869 178.062 568.979L174.148 570.163L178.131 572.544L177.294 573.945L171.196 570.3L171.886 569.146ZM181.771 576.77C181.304 576.491 180.926 576.178 180.636 575.831C180.356 575.489 180.158 575.135 180.042 574.767C179.926 574.4 179.877 574.035 179.895 573.672C179.927 573.307 180.015 572.962 180.159 572.638L181.807 573.623C181.705 573.897 181.702 574.194 181.798 574.512C181.908 574.826 182.178 575.112 182.609 575.369C183.011 575.61 183.427 575.653 183.855 575.499C184.292 575.35 184.729 574.909 185.167 574.177C185.599 573.454 185.782 572.867 185.715 572.417C185.649 571.967 185.409 571.619 184.997 571.373C184.677 571.181 184.352 571.111 184.023 571.163C183.708 571.211 183.416 571.316 183.145 571.477L181.703 570.615L184.823 565.397L190.165 568.59L189.336 569.977L185.573 567.728L184.252 569.939C184.511 569.858 184.815 569.828 185.162 569.85C185.519 569.876 185.871 569.994 186.219 570.202C186.604 570.432 186.915 570.711 187.154 571.04C187.392 571.369 187.541 571.744 187.6 572.164C187.665 572.576 187.633 573.035 187.504 573.542C187.38 574.04 187.146 574.577 186.801 575.154C186.1 576.326 185.33 577.033 184.489 577.276C183.648 577.519 182.742 577.35 181.771 576.77ZM190.903 575.145C190.281 574.773 189.899 574.309 189.76 573.753C189.625 573.188 189.752 572.581 190.141 571.931L190.469 571.381C190.858 570.731 191.33 570.336 191.886 570.196C192.447 570.047 193.039 570.159 193.662 570.531C194.284 570.903 194.663 571.372 194.797 571.937C194.937 572.493 194.813 573.096 194.424 573.746L194.096 574.295C193.707 574.945 193.232 575.345 192.671 575.494C192.115 575.634 191.526 575.518 190.903 575.145ZM191.494 574.157C191.76 574.315 192.005 574.362 192.23 574.298C192.46 574.225 192.693 573.991 192.929 573.597L193.257 573.048C193.492 572.654 193.588 572.338 193.544 572.101C193.499 571.863 193.344 571.665 193.079 571.506C192.813 571.347 192.565 571.305 192.335 571.378C192.105 571.452 191.872 571.686 191.636 572.079L191.308 572.629C191.073 573.022 190.977 573.338 191.021 573.576C191.071 573.804 191.229 573.998 191.494 574.157ZM198.636 573.654L200.064 574.507L187.904 580.287L186.462 579.425L198.636 573.654ZM192.873 583.388C192.251 583.016 191.87 582.552 191.73 581.996C191.595 581.431 191.722 580.823 192.111 580.173L192.439 579.624C192.828 578.974 193.3 578.579 193.856 578.439C194.417 578.29 195.009 578.401 195.632 578.773C196.254 579.146 196.633 579.614 196.767 580.179C196.907 580.735 196.783 581.338 196.394 581.988L196.066 582.537C195.677 583.187 195.202 583.587 194.641 583.736C194.085 583.876 193.496 583.76 192.873 583.388ZM193.464 582.399C193.73 582.558 193.975 582.605 194.2 582.541C194.43 582.467 194.663 582.233 194.899 581.84L195.227 581.29C195.462 580.897 195.558 580.581 195.514 580.343C195.469 580.105 195.314 579.907 195.049 579.748C194.783 579.59 194.535 579.547 194.305 579.621C194.075 579.694 193.842 579.928 193.606 580.322L193.278 580.871C193.043 581.265 192.947 581.58 192.992 581.818C193.041 582.047 193.199 582.24 193.464 582.399Z" fill="white" />
	</g>
	<g filter="url(#filter4_d_180_390)">
		<path d="M86.2555 480.249C85.9279 479.776 85.7025 479.309 85.5793 478.85C85.4561 478.39 85.4175 477.95 85.4636 477.529C85.5245 477.111 85.66 476.725 85.87 476.372C86.0948 476.022 86.3914 475.72 86.7599 475.465C87.3038 475.089 87.8362 474.902 88.357 474.905C88.8866 474.902 89.4272 475.028 89.9789 475.282C89.9502 474.809 90.0354 474.341 90.2347 473.879C90.4427 473.411 90.7967 473.004 91.2968 472.658C91.639 472.422 92.0047 472.266 92.394 472.191C92.7833 472.117 93.1725 472.126 93.5617 472.22C93.9597 472.308 94.3354 472.476 94.6888 472.725C95.057 472.976 95.3867 473.312 95.6779 473.733C95.9691 474.154 96.1673 474.582 96.2723 475.015C96.3861 475.442 96.4108 475.853 96.3465 476.247C96.2971 476.645 96.1687 477.012 95.9614 477.35C95.7541 477.688 95.4794 477.975 95.1373 478.212C94.6372 478.558 94.1315 478.745 93.6201 478.775C93.1175 478.798 92.65 478.713 92.2177 478.519C92.2666 479.134 92.1962 479.688 92.0064 480.182C91.8253 480.671 91.4628 481.103 90.9189 481.479C90.5504 481.734 90.1597 481.9 89.7468 481.978C89.3488 482.059 88.9403 482.05 88.5214 481.951C88.1174 481.854 87.7191 481.662 87.3266 481.376C86.9402 481.099 86.5832 480.723 86.2555 480.249ZM87.5584 479.348C87.71 479.568 87.8847 479.745 88.0823 479.881C88.2799 480.017 88.4856 480.108 88.6994 480.154C88.9132 480.201 89.1234 480.205 89.3298 480.166C89.5423 480.136 89.7407 480.057 89.925 479.929C90.3724 479.62 90.6438 479.225 90.7392 478.744C90.8406 478.272 90.7717 477.788 90.5325 477.292C90.1529 476.893 89.7212 476.653 89.2376 476.573C88.76 476.501 88.2975 476.62 87.85 476.929C87.6658 477.056 87.519 477.21 87.4096 477.389C87.3002 477.569 87.2296 477.767 87.1978 477.983C87.166 478.2 87.1787 478.424 87.2359 478.657C87.2931 478.89 87.4006 479.12 87.5584 479.348ZM94.3751 474.634C94.1142 474.257 93.7834 474.032 93.3827 473.959C92.9969 473.888 92.6329 473.972 92.2907 474.208C92.0802 474.354 91.9114 474.522 91.7845 474.714C91.6664 474.899 91.5809 475.095 91.5282 475.3C91.4903 475.507 91.4835 475.713 91.5076 475.917C91.5379 476.129 91.5901 476.327 91.6642 476.509C91.8085 476.643 91.9717 476.757 92.1538 476.851C92.3359 476.946 92.5278 477.008 92.7295 477.037C92.946 477.069 93.1619 477.062 93.3771 477.017C93.6072 476.974 93.8275 476.88 94.0381 476.735C94.3802 476.498 94.5834 476.183 94.6477 475.788C94.7269 475.396 94.636 475.012 94.3751 474.634ZM89.6535 484.938L91.3248 483.782L92.4805 485.453L90.8093 486.609L87.7683 486.825L87.1768 485.97L89.6535 484.938ZM93.6969 487.915L95.1894 490.074L101.427 485.76L98.5497 484.637L100.182 483.509L103.059 484.631L104.142 486.197L96.2724 491.64L97.4918 493.403L96.1496 494.331L92.3546 488.844L93.6969 487.915ZM103 493.773C102.587 493.176 102.432 492.596 102.535 492.032C102.647 491.462 103.014 490.961 103.637 490.531L104.163 490.167C104.786 489.736 105.38 489.572 105.944 489.675C106.516 489.772 107.009 490.118 107.421 490.715C107.834 491.311 107.985 491.895 107.873 492.465C107.77 493.029 107.407 493.526 106.784 493.957L106.258 494.321C105.635 494.751 105.037 494.918 104.465 494.822C103.901 494.719 103.412 494.369 103 493.773ZM103.947 493.117C104.123 493.372 104.327 493.516 104.558 493.551C104.798 493.579 105.107 493.463 105.484 493.202L106.011 492.838C106.388 492.577 106.606 492.329 106.664 492.095C106.722 491.86 106.663 491.615 106.487 491.361C106.311 491.107 106.103 490.965 105.863 490.937C105.623 490.908 105.314 491.024 104.937 491.285L104.411 491.649C104.033 491.91 103.816 492.158 103.757 492.393C103.708 492.621 103.771 492.863 103.947 493.117ZM110.656 495.617L111.603 496.986L98.1408 497.211L97.1852 495.829L110.656 495.617ZM101.38 502.091C100.967 501.494 100.812 500.914 100.915 500.35C101.027 499.78 101.394 499.28 102.017 498.849L102.543 498.485C103.166 498.054 103.759 497.89 104.323 497.993C104.896 498.09 105.389 498.436 105.801 499.033C106.214 499.63 106.364 500.213 106.253 500.783C106.15 501.347 105.787 501.844 105.164 502.275L104.638 502.639C104.015 503.07 103.417 503.237 102.844 503.14C102.28 503.037 101.792 502.687 101.38 502.091ZM102.327 501.436C102.503 501.69 102.707 501.834 102.938 501.869C103.178 501.897 103.487 501.781 103.864 501.52L104.39 501.156C104.768 500.895 104.985 500.648 105.044 500.413C105.102 500.178 105.043 499.934 104.867 499.679C104.691 499.425 104.483 499.283 104.243 499.255C104.003 499.226 103.694 499.343 103.317 499.604L102.79 499.968C102.413 500.228 102.195 500.476 102.137 500.711C102.088 500.94 102.151 501.181 102.327 501.436Z" fill="white" />
	</g>
	<g filter="url(#filter5_d_180_390)">
		<path d="M46.7357 301.772L46.6656 304.395L54.2468 304.597L52.5879 301.992L54.5712 302.045L56.2301 304.65L56.1793 306.554L46.6147 306.298L46.5574 308.441L44.926 308.398L45.1042 301.728L46.7357 301.772ZM44.6596 313.573C44.6756 312.976 44.775 312.451 44.9578 311.997C45.1407 311.543 45.4335 311.167 45.8363 310.868C46.2388 310.58 46.7621 310.364 47.4061 310.222C48.0499 310.089 48.841 310.036 49.7793 310.061L51.3787 310.104C52.2744 310.128 53.0241 310.222 53.6279 310.388C54.2421 310.564 54.7318 310.807 55.097 311.115C55.4726 311.435 55.7396 311.826 55.8979 312.289C56.0563 312.752 56.1275 313.282 56.1115 313.879C56.0956 314.477 55.9962 315.002 55.8133 315.456C55.6304 315.91 55.3429 316.286 54.9508 316.585C54.5694 316.885 54.0674 317.101 53.445 317.233C52.8329 317.377 52.079 317.437 51.1834 317.413L49.5839 317.37C48.6456 317.345 47.8587 317.244 47.2232 317.067C46.5874 316.901 46.0764 316.658 45.6901 316.338C45.3039 316.018 45.0316 315.627 44.8732 315.164C44.7149 314.701 44.6437 314.171 44.6596 313.573ZM46.291 313.617C46.2836 313.894 46.3251 314.141 46.4153 314.357C46.5053 314.583 46.6709 314.774 46.9122 314.93C47.1641 315.086 47.5076 315.207 47.9428 315.294C48.378 315.38 48.9421 315.433 49.6352 315.451L51.2347 315.494C51.8744 315.511 52.4032 315.488 52.8211 315.424C53.2389 315.361 53.5671 315.257 53.8057 315.114C54.0549 314.972 54.2305 314.79 54.3325 314.568C54.4342 314.358 54.4887 314.114 54.4961 313.836C54.5035 313.559 54.4622 313.307 54.3722 313.081C54.282 312.865 54.1162 312.679 53.875 312.523C53.6444 312.368 53.3221 312.247 52.9083 312.161C52.4944 312.076 51.9676 312.024 51.3278 312.007L49.7284 311.964C49.0353 311.946 48.4692 311.968 48.03 312.031C47.5909 312.094 47.2413 312.197 46.9814 312.339C46.7322 312.482 46.5567 312.658 46.4551 312.869C46.3531 313.09 46.2984 313.34 46.291 313.617ZM44.6329 319.364L46.6642 319.418L46.6099 321.449L44.5786 321.395L41.997 319.773L42.0248 318.734L44.6329 319.364ZM46.1375 324.154L46.0673 326.777L53.6486 326.98L51.9897 324.375L53.9729 324.428L55.6319 327.033L55.5811 328.936L46.0165 328.681L45.9592 330.824L44.3278 330.78L44.506 324.111L46.1375 324.154ZM50.1858 334.375C50.2052 333.65 50.4229 333.09 50.8389 332.696C51.2656 332.302 51.8575 332.115 52.6145 332.135L53.2543 332.152C54.0114 332.173 54.5871 332.391 54.9814 332.807C55.3865 333.223 55.5793 333.794 55.5599 334.519C55.5405 335.244 55.3175 335.803 54.8908 336.197C54.4748 336.592 53.8883 336.779 53.1312 336.759L52.4914 336.742C51.7344 336.721 51.1533 336.503 50.7483 336.087C50.3539 335.671 50.1665 335.1 50.1858 334.375ZM51.3374 334.406C51.3292 334.715 51.4082 334.952 51.5745 335.116C51.7515 335.281 52.0693 335.37 52.5278 335.382L53.1675 335.399C53.626 335.411 53.9481 335.34 54.1336 335.185C54.3191 335.03 54.4161 334.798 54.4243 334.488C54.4326 334.179 54.3482 333.942 54.1712 333.777C53.9942 333.613 53.6765 333.524 53.218 333.512L52.5782 333.495C52.1197 333.482 51.7977 333.554 51.6121 333.709C51.4373 333.864 51.3457 334.097 51.3374 334.406ZM55.2751 340.385L55.2306 342.049L44.2342 334.28L44.2791 332.601L55.2751 340.385ZM43.9658 340.131C43.9852 339.406 44.2029 338.846 44.6189 338.452C45.0456 338.058 45.6375 337.871 46.3945 337.891L47.0343 337.908C47.7914 337.928 48.3671 338.147 48.7614 338.563C49.1665 338.979 49.3593 339.55 49.3399 340.275C49.3205 341 49.0975 341.559 48.6708 341.953C48.2548 342.348 47.6683 342.535 46.9112 342.515L46.2714 342.497C45.5144 342.477 44.9333 342.259 44.5283 341.843C44.1339 341.427 43.9465 340.856 43.9658 340.131ZM45.1174 340.162C45.1092 340.471 45.1882 340.708 45.3545 340.872C45.5315 341.037 45.8493 341.126 46.3078 341.138L46.9475 341.155C47.406 341.167 47.7281 341.096 47.9136 340.941C48.0992 340.786 48.1961 340.553 48.2043 340.244C48.2126 339.935 48.1282 339.698 47.9512 339.533C47.7742 339.368 47.4565 339.28 46.998 339.268L46.3582 339.251C45.8997 339.238 45.5777 339.31 45.3921 339.465C45.2173 339.62 45.1257 339.853 45.1174 340.162Z" fill="white" />
	</g>
	<g filter="url(#filter6_d_180_390)">
		<path d="M154.419 106.513L152.498 108.302L157.667 113.852L158.363 110.843L159.715 112.295L159.019 115.304L157.626 116.601L151.105 109.599L149.536 111.06L148.424 109.866L153.307 105.319L154.419 106.513ZM145.461 115.883L149.161 112.437L150.11 113.456L151.691 122.127L150.122 123.589L145.226 118.331L144.454 119.051L143.341 117.856L144.114 117.137L142.49 115.392L143.836 114.138L145.461 115.883ZM146.573 117.077L149.779 120.52L148.798 115.005L146.573 117.077ZM140.396 117.342L141.781 118.829L140.294 120.214L138.909 118.727L138.256 115.749L139.017 115.04L140.396 117.342ZM134.714 122.458C135.12 122.08 135.541 121.797 135.978 121.609C136.422 121.428 136.852 121.334 137.267 121.326C137.69 121.326 138.095 121.409 138.481 121.573C138.868 121.738 139.214 121.984 139.519 122.312L138.149 123.588C137.851 123.268 137.487 123.104 137.057 123.096C136.635 123.096 136.224 123.282 135.826 123.652C135.428 124.023 135.218 124.423 135.195 124.852C135.179 125.29 135.335 125.684 135.662 126.035C136.055 126.457 136.481 126.664 136.942 126.658C137.402 126.667 137.889 126.431 138.405 125.952L139.072 125.33L140.184 126.525L139.517 127.146C139.033 127.597 138.776 128.025 138.746 128.432C138.709 128.846 138.876 129.252 139.246 129.65C139.552 129.978 139.897 130.145 140.281 130.151C140.666 130.157 141.042 129.989 141.409 129.647C141.776 129.306 141.973 128.947 142.002 128.57C142.03 128.194 141.907 127.858 141.63 127.561L143 126.285C143.284 126.59 143.495 126.925 143.632 127.293C143.762 127.667 143.809 128.054 143.772 128.452C143.743 128.859 143.626 129.266 143.423 129.674C143.22 130.082 142.919 130.471 142.521 130.842C142.139 131.198 141.737 131.463 141.315 131.637C140.894 131.81 140.48 131.897 140.072 131.898C139.664 131.914 139.274 131.839 138.903 131.675C138.531 131.511 138.204 131.277 137.92 130.972C137.477 130.496 137.23 129.997 137.181 129.474C137.139 128.96 137.212 128.49 137.401 128.067C136.879 128.305 136.342 128.354 135.788 128.213C135.234 128.088 134.721 127.771 134.248 127.264C133.943 126.936 133.718 126.57 133.574 126.165C133.438 125.767 133.384 125.358 133.414 124.936C133.444 124.515 133.565 124.089 133.777 123.659C133.996 123.236 134.308 122.836 134.714 122.458ZM133.579 131.823C134.11 131.329 134.661 131.092 135.234 131.112C135.814 131.14 136.363 131.432 136.879 131.986L137.315 132.454C137.831 133.008 138.079 133.572 138.058 134.145C138.045 134.725 137.773 135.263 137.242 135.757C136.712 136.252 136.156 136.485 135.576 136.456C135.003 136.436 134.459 136.149 133.943 135.594L133.506 135.126C132.99 134.572 132.739 134.004 132.752 133.424C132.772 132.851 133.048 132.317 133.579 131.823ZM134.364 132.666C134.137 132.877 134.024 133.099 134.023 133.333C134.03 133.575 134.189 133.864 134.502 134.199L134.938 134.668C135.25 135.003 135.527 135.183 135.768 135.207C136.008 135.23 136.242 135.137 136.468 134.926C136.695 134.715 136.805 134.489 136.798 134.247C136.792 134.005 136.632 133.717 136.32 133.381L135.883 132.913C135.571 132.577 135.294 132.397 135.054 132.374C134.82 132.358 134.59 132.455 134.364 132.666ZM132.858 139.665L131.64 140.799L129.476 127.511L130.705 126.366L132.858 139.665ZM125.114 131.42C125.645 130.925 126.196 130.688 126.769 130.709C127.349 130.737 127.898 131.028 128.414 131.582L128.85 132.051C129.366 132.605 129.614 133.169 129.593 133.741C129.58 134.322 129.308 134.86 128.777 135.354C128.247 135.848 127.691 136.081 127.111 136.053C126.538 136.033 125.994 135.745 125.478 135.191L125.041 134.723C124.525 134.168 124.274 133.601 124.287 133.02C124.307 132.447 124.583 131.914 125.114 131.42ZM125.899 132.263C125.672 132.473 125.559 132.696 125.558 132.93C125.565 133.171 125.724 133.46 126.037 133.796L126.473 134.264C126.785 134.6 127.062 134.78 127.303 134.803C127.543 134.827 127.777 134.733 128.003 134.523C128.23 134.312 128.34 134.085 128.333 133.844C128.327 133.602 128.167 133.313 127.855 132.978L127.418 132.509C127.106 132.174 126.829 131.994 126.589 131.97C126.355 131.954 126.125 132.052 125.899 132.263Z" fill="white" />
	</g>
	<g filter="url(#filter7_d_180_390)">
		<path d="M294.827 44.3301C295.359 44.2167 295.85 44.1885 296.298 44.2456C296.736 44.305 297.123 44.4298 297.458 44.6201C297.793 44.8105 298.077 45.0443 298.311 45.3217C298.536 45.6118 298.706 45.9245 298.821 46.2599L296.944 46.6601C296.831 46.3896 296.632 46.1703 296.345 46.0024C296.05 45.8471 295.658 45.8217 295.168 45.9262C294.708 46.024 294.375 46.2751 294.167 46.6794C293.948 47.0859 293.927 47.7065 294.105 48.5411C294.281 49.3652 294.546 49.9194 294.901 50.2037C295.256 50.4879 295.669 50.58 296.138 50.4799C296.503 50.4021 296.789 50.2322 296.995 49.9702C297.192 49.7208 297.335 49.4449 297.424 49.1426L299.067 48.7924L300.334 54.7388L294.247 56.0362L293.91 54.4557L298.198 53.5419L297.661 51.0224C297.526 51.2585 297.323 51.487 297.054 51.7079C296.775 51.9311 296.437 52.085 296.04 52.1695C295.602 52.2628 295.184 52.2702 294.785 52.1916C294.387 52.1129 294.023 51.9397 293.693 51.6718C293.365 51.4145 293.076 51.0562 292.826 50.597C292.577 50.1482 292.383 49.5952 292.243 48.938C291.958 47.6027 292.042 46.5598 292.492 45.8093C292.943 45.0588 293.721 44.5658 294.827 44.3301ZM289.239 45.652L289.663 47.6394L287.675 48.0629L287.252 46.0756L288.223 43.1857L289.24 42.9689L289.239 45.652ZM281.039 49.8374L285.984 48.7835L286.274 50.1449L283.174 58.3964L281.077 58.8433L279.579 51.8171L278.547 52.0373L278.206 50.4411L279.239 50.221L278.742 47.8894L280.542 47.5058L281.039 49.8374ZM281.379 51.4336L282.359 56.0342L284.352 50.7999L281.379 51.4336ZM275.949 54.5705C276.658 54.4193 277.253 54.4996 277.734 54.8116C278.217 55.1339 278.538 55.6655 278.696 56.4062L278.829 57.0321C278.987 57.7728 278.91 58.3836 278.598 58.8645C278.288 59.3559 277.779 59.6772 277.069 59.8284C276.36 59.9796 275.764 59.894 275.281 59.5716C274.8 59.2597 274.48 58.7334 274.322 57.9927L274.189 57.3667C274.031 56.6261 274.107 56.01 274.417 55.5187C274.729 55.0377 275.239 54.7217 275.949 54.5705ZM276.189 55.6972C275.886 55.7617 275.675 55.894 275.554 56.0943C275.435 56.305 275.423 56.6347 275.519 57.0832L275.652 57.7092C275.748 58.1578 275.893 58.4541 276.087 58.5981C276.282 58.7421 276.53 58.7818 276.833 58.7173C277.135 58.6528 277.346 58.5153 277.464 58.3046C277.583 58.0938 277.595 57.7642 277.499 57.3156L277.366 56.6897C277.27 56.2411 277.125 55.9448 276.931 55.8008C276.739 55.6672 276.491 55.6327 276.189 55.6972ZM271.3 60.9273L269.672 61.2741L274.645 48.7626L276.288 48.4124L271.3 60.9273ZM268.895 49.8738C269.604 49.7226 270.199 49.8029 270.68 50.1149C271.163 50.4372 271.484 50.9688 271.642 51.7095L271.775 52.3354C271.933 53.0761 271.856 53.6869 271.544 54.1678C271.234 54.6592 270.725 54.9805 270.015 55.1317C269.306 55.2829 268.71 55.1973 268.226 54.8749C267.746 54.563 267.426 54.0367 267.268 53.296L267.135 52.6701C266.977 51.9294 267.053 51.3133 267.363 50.822C267.675 50.3411 268.185 50.025 268.895 49.8738ZM269.135 51.0005C268.832 51.065 268.62 51.1973 268.5 51.3976C268.381 51.6083 268.369 51.938 268.465 52.3865L268.598 53.0125C268.694 53.4611 268.839 53.7574 269.033 53.9014C269.228 54.0454 269.476 54.0851 269.778 54.0206C270.081 53.9562 270.292 53.8186 270.41 53.6079C270.529 53.3972 270.541 53.0675 270.445 52.6189L270.311 51.993C270.216 51.5444 270.071 51.2481 269.877 51.1041C269.685 50.9705 269.437 50.936 269.135 51.0005Z" fill="white" />
	</g>
	<defs>
		<filter id="filter0_d_180_390" x="521.828" y="505.602" width="41.541" height="41.3004" filterUnits="userSpaceOnUse" color-interpolation-filters="sRGB">
			<feFlood flood-opacity="0" result="BackgroundImageFix" />
			<feColorMatrix in="SourceAlpha" type="matrix" values="0 0 0 0 0 0 0 0 0 0 0 0 0 0 0 0 0 0 127 0" result="hardAlpha" />
			<feOffset />
			<feGaussianBlur stdDeviation="5" />
			<feComposite in2="hardAlpha" operator="out" />
			<feColorMatrix type="matrix" values="0 0 0 0 0.357 0 0 0 0 0.7 0 0 0 0 0.400556 0 0 0 0.4 0" />
			<feBlend mode="normal" in2="BackgroundImageFix" result="effect1_dropShadow_180_390" />
			<feBlend mode="normal" in="SourceGraphic" in2="effect1_dropShadow_180_390" result="shape" />
		</filter>
		<filter id="filter1_d_180_390" x="547.997" y="149.593" width="54.4297" height="62.2925" filterUnits="userSpaceOnUse" color-interpolation-filters="sRGB">
			<feFlood flood-opacity="0" result="BackgroundImageFix" />
			<feColorMatrix in="SourceAlpha" type="matrix" values="0 0 0 0 0 0 0 0 0 0 0 0 0 0 0 0 0 0 127 0" result="hardAlpha" />
			<feOffset />
			<feGaussianBlur stdDeviation="5" />
			<feComposite in2="hardAlpha" operator="out" />
			<feColorMatrix type="matrix" values="0 0 0 0 0.357 0 0 0 0 0.7 0 0 0 0 0.400556 0 0 0 0.4 0" />
			<feBlend mode="normal" in2="BackgroundImageFix" result="effect1_dropShadow_180_390" />
			<feBlend mode="normal" in="SourceGraphic" in2="effect1_dropShadow_180_390" result="shape" />
		</filter>
		<filter id="filter2_d_180_390" x="319.648" y="597.672" width="60.7236" height="33.952" filterUnits="userSpaceOnUse" color-interpolation-filters="sRGB">
			<feFlood flood-opacity="0" result="BackgroundImageFix" />
			<feColorMatrix in="SourceAlpha" type="matrix" values="0 0 0 0 0 0 0 0 0 0 0 0 0 0 0 0 0 0 127 0" result="hardAlpha" />
			<feOffset />
			<feGaussianBlur stdDeviation="5" />
			<feComposite in2="hardAlpha" operator="out" />
			<feColorMatrix type="matrix" values="0 0 0 0 0.357 0 0 0 0 0.7 0 0 0 0 0.400556 0 0 0 0.4 0" />
			<feBlend mode="normal" in2="BackgroundImageFix" result="effect1_dropShadow_180_390" />
			<feBlend mode="normal" in="SourceGraphic" in2="effect1_dropShadow_180_390" result="shape" />
		</filter>
		<filter id="filter3_d_180_390" x="148.265" y="543.651" width="62.4561" height="53.0753" filterUnits="userSpaceOnUse" color-interpolation-filters="sRGB">
			<feFlood flood-opacity="0" result="BackgroundImageFix" />
			<feColorMatrix in="SourceAlpha" type="matrix" values="0 0 0 0 0 0 0 0 0 0 0 0 0 0 0 0 0 0 127 0" result="hardAlpha" />
			<feOffset />
			<feGaussianBlur stdDeviation="5" />
			<feComposite in2="hardAlpha" operator="out" />
			<feColorMatrix type="matrix" values="0 0 0 0 0.357 0 0 0 0 0.7 0 0 0 0 0.400556 0 0 0 0.4 0" />
			<feBlend mode="normal" in2="BackgroundImageFix" result="effect1_dropShadow_180_390" />
			<feBlend mode="normal" in="SourceGraphic" in2="effect1_dropShadow_180_390" result="shape" />
		</filter>
		<filter id="filter4_d_180_390" x="72.1279" y="460.733" width="49.9717" height="54.6818" filterUnits="userSpaceOnUse" color-interpolation-filters="sRGB">
			<feFlood flood-opacity="0" result="BackgroundImageFix" />
			<feColorMatrix in="SourceAlpha" type="matrix" values="0 0 0 0 0 0 0 0 0 0 0 0 0 0 0 0 0 0 127 0" result="hardAlpha" />
			<feOffset />
			<feGaussianBlur stdDeviation="5" />
			<feComposite in2="hardAlpha" operator="out" />
			<feColorMatrix type="matrix" values="0 0 0 0 0.357 0 0 0 0 0.7 0 0 0 0 0.400556 0 0 0 0.4 0" />
			<feBlend mode="normal" in2="BackgroundImageFix" result="effect1_dropShadow_180_390" />
			<feBlend mode="normal" in="SourceGraphic" in2="effect1_dropShadow_180_390" result="shape" />
		</filter>
		<filter id="filter5_d_180_390" x="31.3936" y="291.658" width="35.0342" height="61.0817" filterUnits="userSpaceOnUse" color-interpolation-filters="sRGB">
			<feFlood flood-opacity="0" result="BackgroundImageFix" />
			<feColorMatrix in="SourceAlpha" type="matrix" values="0 0 0 0 0 0 0 0 0 0 0 0 0 0 0 0 0 0 127 0" result="hardAlpha" />
			<feOffset />
			<feGaussianBlur stdDeviation="5" />
			<feComposite in2="hardAlpha" operator="out" />
			<feColorMatrix type="matrix" values="0 0 0 0 0.357 0 0 0 0 0.7 0 0 0 0 0.400556 0 0 0 0.4 0" />
			<feBlend mode="normal" in2="BackgroundImageFix" result="effect1_dropShadow_180_390" />
			<feBlend mode="normal" in="SourceGraphic" in2="effect1_dropShadow_180_390" result="shape" />
		</filter>
		<filter id="filter6_d_180_390" x="111.716" y="93.3988" width="59.3105" height="57.9631" filterUnits="userSpaceOnUse" color-interpolation-filters="sRGB">
			<feFlood flood-opacity="0" result="BackgroundImageFix" />
			<feColorMatrix in="SourceAlpha" type="matrix" values="0 0 0 0 0 0 0 0 0 0 0 0 0 0 0 0 0 0 127 0" result="hardAlpha" />
			<feOffset />
			<feGaussianBlur stdDeviation="5" />
			<feComposite in2="hardAlpha" operator="out" />
			<feColorMatrix type="matrix" values="0 0 0 0 0.357 0 0 0 0 0.7 0 0 0 0 0.400556 0 0 0 0.4 0" />
			<feBlend mode="normal" in2="BackgroundImageFix" result="effect1_dropShadow_180_390" />
			<feBlend mode="normal" in="SourceGraphic" in2="effect1_dropShadow_180_390" result="shape" />
		</filter>
		<filter id="filter7_d_180_390" x="256.117" y="31.1584" width="54.5254" height="40.3843" filterUnits="userSpaceOnUse" color-interpolation-filters="sRGB">
			<feFlood flood-opacity="0" result="BackgroundImageFix" />
			<feColorMatrix in="SourceAlpha" type="matrix" values="0 0 0 0 0 0 0 0 0 0 0 0 0 0 0 0 0 0 127 0" result="hardAlpha" />
			<feOffset />
			<feGaussianBlur stdDeviation="5" />
			<feComposite in2="hardAlpha" operator="out" />
			<feColorMatrix type="matrix" values="0 0 0 0 0.357 0 0 0 0 0.7 0 0 0 0 0.400556 0 0 0 0.4 0" />
			<feBlend mode="normal" in2="BackgroundImageFix" result="effect1_dropShadow_180_390" />
			<feBlend mode="normal" in="SourceGraphic" in2="effect1_dropShadow_180_390" result="shape" />
		</filter>
		<linearGradient id="paint0_linear_180_390" x1="333" y1="76" x2="333" y2="590" gradientUnits="userSpaceOnUse">
			<stop stop-color="#41DD55" />
			<stop offset="1" stop-color="#41DD55" stop-opacity="0" />
		</linearGradient>
		<linearGradient id="paint1_linear_180_390" x1="33.2829" y1="427.65" x2="133.168" y2="287.414" gradientUnits="userSpaceOnUse">
			<stop stop-color="#5C90F5" />
			<stop offset="1" stop-color="#3534D6" />
		</linearGradient>
		<linearGradient id="paint2_linear_180_390" x1="209.15" y1="611.17" x2="183.759" y2="507.239" gradientUnits="userSpaceOnUse">
			<stop stop-color="#8CAEF8" />
			<stop offset="1" stop-color="#6FB9F7" />
		</linearGradient>
		<linearGradient id="paint3_linear_180_390" x1="490.254" y1="589.499" x2="529.996" y2="435.334" gradientUnits="userSpaceOnUse">
			<stop stop-color="#C539C9" />
			<stop offset="1" stop-color="#F349ED" />
		</linearGradient>
		<linearGradient id="paint4_linear_180_390" x1="323.837" y1="85.0013" x2="222.867" y2="47.3432" gradientUnits="userSpaceOnUse">
			<stop stop-color="#F06C4E" />
			<stop offset="1" stop-color="#FFA783" />
		</linearGradient>
		<linearGradient id="paint5_linear_180_390" x1="590.088" y1="436.768" x2="424.13" y2="5.01" gradientUnits="userSpaceOnUse">
			<stop stop-color="#3C3E7D" />
			<stop offset="1" stop-color="#6E75B6" />
		</linearGradient>
		<linearGradient id="paint6_linear_180_390" x1="248.81" y1="80.2985" x2="38.265" y2="130.72" gradientUnits="userSpaceOnUse">
			<stop stop-color="#F5A354" />
			<stop offset="1" stop-color="#F7D855" />
		</linearGradient>
		<linearGradient id="paint7_linear_180_390" x1="132.074" y1="564.739" x2="90.2321" y2="415.317" gradientUnits="userSpaceOnUse">
			<stop stop-color="#AA66D6" />
			<stop offset="1" stop-color="#7B31C5" />
		</linearGradient>
		<linearGradient id="paint8_linear_180_390" x1="203.8" y1="627.241" x2="385.127" y2="524.871" gradientUnits="userSpaceOnUse">
			<stop stop-color="#D6007B" />
			<stop offset="1" stop-color="#F14170" />
		</linearGradient>
	</defs>
</svg>
